<svg width="32" height="31" viewBox="0 0 32 31" fill="none" xmlns="http://www.w3.org/2000/svg">
<path d="M7.66134 17.0992L8.4818 10.7178L1.18884 5.61276L7.84367 7.89181L9.39342 5.43044L15.1366 1.87512L27.8993 8.89459L28.5374 19.5605L22.8854 27.4005L18.4185 28.1298L20.6975 23.8452V19.7429L19.0566 16.5522L17.3245 15.4583L14.6808 18.1931V21.1103L12.5841 23.0247L10.1227 23.2982L8.93761 23.9363L7.02321 23.2982L6.29391 20.5633L7.7525 18.5578V17.0992H7.66134Z" fill="white"/>
<path d="M19.4213 5.52162C18.0539 5.24813 16.5041 5.33929 16.5041 5.33929C16.5041 5.33929 15.9572 7.61834 12.8577 8.25648C12.8577 8.25648 16.96 9.71507 19.4213 5.52162Z" fill="#94A6C3"/>
<path d="M20.6064 26.58C22.2473 25.3037 23.5235 23.4805 24.1617 21.3838C24.1617 21.2926 24.4352 21.2014 24.6175 21.1103C24.891 20.928 25.1644 20.8368 25.1644 20.5633C25.2556 19.9252 25.3468 19.287 25.3468 18.6489C25.3468 18.3754 25.0733 18.1931 24.891 17.9196C24.7086 17.7373 24.5263 17.555 24.5263 17.4638C24.2528 15.0936 23.1589 12.8145 21.4268 11.1736L21.1533 11.4471C22.8854 13.088 23.9793 15.2759 24.2528 17.555C24.2528 17.7373 24.5263 18.0108 24.7086 18.1931C24.891 18.3754 25.0733 18.5577 25.0733 18.7401C25.0733 19.3782 24.9821 19.9252 24.891 20.5633C24.891 20.6545 24.6175 20.7456 24.4352 20.8368C24.1617 20.928 23.8882 21.1103 23.8882 21.2926C23.2501 23.5717 21.7915 25.4861 19.8771 26.7623C20.2417 26.033 21.3356 23.6628 21.8826 22.3865L21.7915 18.4666L18.4185 15.1848L16.5041 15.4582L14.4073 18.8312C14.4073 18.8312 15.4101 20.1075 14.0427 21.4749C12.6753 22.9335 11.6725 23.207 11.6725 23.207L10.6697 22.66C10.9432 22.2954 11.5813 21.7484 11.946 21.3838C12.6753 20.7456 13.4957 20.6545 13.4957 20.0163C13.4957 18.5577 12.0371 19.0136 12.0371 19.0136L11.4902 19.6517L11.2167 21.5661L10.0316 23.0247H9.9404L8.026 22.5689C8.026 22.5689 9.21111 21.9307 9.39343 21.2926C9.57575 20.6545 9.02878 18.4666 9.02878 18.2843C9.02878 18.2843 9.57575 18.7401 9.84924 19.4694C10.3051 18.2843 10.852 17.1903 10.9432 17.0992C11.1255 17.008 13.2222 15.8229 13.2222 15.8229L12.4929 17.8285L13.0399 17.555L14.3162 14.4555C14.3162 14.4555 15.5924 13.8173 16.5041 13.8173C18.145 13.8173 20.6064 11.7206 19.5124 8.16528C19.7859 8.25645 25.3468 11.0825 26.2584 16.461C26.9877 20.4721 24.6175 24.3921 20.6064 26.58Z" fill="#94A6C3"/>
<path d="M14.4074 6.15981C15.0455 5.43052 14.772 4.42773 14.772 4.42773L13.0399 7.07143C12.9488 6.98027 13.5869 6.98027 14.4074 6.15981Z" fill="#1B314F"/>
<path d="M8.48189 20.3809L8.66422 19.287C8.66422 19.287 7.7526 20.8367 7.7526 21.0191C7.66143 21.2926 7.84376 21.6572 8.11724 21.6572C8.48189 21.6572 8.84654 21.1102 8.84654 20.7456C8.84654 20.3809 8.48189 20.3809 8.48189 20.3809Z" fill="#1B314F"/>
<path d="M24.0707 3.60722C24.0707 3.60722 25.3469 3.69838 26.7143 3.78955C23.6148 1.32817 20.6977 0.690039 18.3274 0.690039C15.0456 0.690039 12.8577 2.05747 12.6754 2.14863L13.8605 0.507715C13.8605 0.507715 9.75822 0.143067 8.29963 4.42768C7.93498 3.51606 7.57034 2.14863 7.57034 2.14863C7.57034 2.14863 5.38245 4.06303 6.38523 7.16254C3.92386 6.25092 0.459704 5.06581 0.368542 4.97465C0.186218 4.97465 0.0950561 5.06581 0.0950561 5.06581C0.0950561 5.06581 0.00389417 5.15697 0.186218 5.24814C0.459704 5.52162 6.02058 9.62391 7.20569 10.3532C6.9322 11.2648 6.9322 11.7206 7.20569 12.1764C7.57034 12.8146 7.57034 13.0881 7.57034 13.5439C7.47917 13.9997 7.02337 17.8285 6.9322 18.3755C6.84104 18.9224 5.7471 20.5633 5.7471 21.0192C5.83826 21.5661 6.47639 23.6629 7.11453 23.9363C7.57034 24.1187 8.66428 24.4833 9.39358 24.4833C9.66706 24.4833 9.94055 24.3921 10.0317 24.301C10.4875 23.9363 10.5787 23.8452 10.9433 23.8452H11.0345C11.1257 23.8452 11.308 23.8452 11.4903 23.8452C11.9461 23.8452 12.4931 23.754 12.8577 23.3894C13.4047 22.8424 14.4075 22.0219 14.7721 21.6573C15.1368 21.1103 15.4103 20.4722 15.3191 19.7429C15.2279 19.1048 15.5926 18.5578 15.9572 18.0108C16.5042 17.3727 17.4158 16.1876 17.4158 16.1876C19.2391 17.555 20.333 19.6517 20.333 21.9308C20.333 26.0331 16.7777 29.4061 12.3108 29.4061C11.5815 29.4061 10.9433 29.3149 10.3052 29.1326C12.3108 29.8619 14.0428 30.0442 15.4103 30.0442C18.4186 30.0442 19.9684 28.9502 19.9684 28.9502C19.9684 28.9502 19.4214 29.6795 18.5098 30.5C23.4325 29.7707 25.8027 25.7596 25.8027 25.7596C25.8027 25.7596 25.6204 27.0358 25.3469 27.9475C31.9106 23.0247 30.8166 16.8257 30.7255 16.6434C30.8166 16.7345 31.4548 17.555 31.8194 17.9196C33.0045 7.16254 24.0707 3.60722 24.0707 3.60722ZM14.0428 21.0192C13.9517 21.1103 13.4959 21.5661 13.1312 21.8396C12.7666 22.1131 12.4931 22.3866 12.2196 22.6601C12.1284 22.7512 11.9461 22.8424 11.5815 22.8424C11.4903 22.8424 11.3991 22.8424 11.308 22.8424C11.2168 22.8424 11.2168 22.8424 11.1257 22.8424C11.0345 22.8424 11.0345 22.8424 11.0345 22.8424C10.9433 22.8424 10.8522 22.8424 10.761 22.8424C11.1257 22.2954 12.3108 21.1103 12.6754 20.8368C13.1312 20.5633 13.4047 20.1987 13.1312 19.6517C12.8577 19.1048 12.0373 19.1959 12.0373 19.1959C12.0373 19.1959 12.4931 19.0136 12.8577 19.0136C12.3108 18.9224 11.7638 19.0136 11.3991 19.2871C11.1257 19.5606 11.1257 20.5633 11.0345 21.2926C10.9433 22.0219 10.4875 22.2954 9.75822 22.9336C9.39358 23.2982 9.12009 23.3894 8.93777 23.3894C8.48196 23.2982 7.93498 23.207 7.57034 23.0247C7.29685 22.6601 6.9322 21.5661 6.84104 21.1103C6.9322 20.8368 7.20569 20.2899 7.38801 20.0164C7.6615 19.3782 7.93498 19.1048 7.93498 18.7401C8.02615 18.2843 8.39079 15.5494 8.48196 14.3643C8.8466 14.8201 9.30241 15.5494 9.21125 16.0052C9.94055 14.9113 9.39358 13.9085 9.12009 13.4527C8.8466 12.9969 8.57312 12.1764 8.8466 11.2648C9.12009 10.3532 10.0317 7.89183 10.0317 7.89183C10.0317 7.89183 10.3052 8.43881 10.761 8.34764C11.2168 8.25648 14.8633 2.78676 14.8633 2.78676C14.8633 2.78676 15.8661 4.88349 14.7721 6.43324C13.6782 7.983 12.6754 8.25648 12.6754 8.25648C12.6754 8.25648 14.134 8.52997 15.5014 7.52719C16.0484 8.80345 16.5954 10.1709 16.5954 10.3532C16.5042 10.5355 15.5014 13.0881 15.3191 13.2704C15.2279 13.3616 14.8633 13.4527 14.5898 13.4527C14.134 13.5439 13.8605 13.635 13.7694 13.7262C13.587 13.9085 12.7666 16.1876 12.3108 17.3727C11.8549 17.4638 11.3991 17.7373 11.0345 18.2843C11.2168 18.1931 11.7638 18.102 12.2196 18.0108C12.5842 18.0108 13.6782 18.5578 14.0428 19.7429C14.0428 19.7429 14.0428 19.7429 14.0428 19.8341C14.3163 20.2899 14.2252 20.6545 14.0428 21.0192ZM11.4903 21.2926C11.7638 20.928 11.6726 20.381 11.7638 20.1987C11.7638 20.0164 11.8549 19.6517 12.0373 19.6517C12.2196 19.5606 12.7666 19.6517 12.7666 20.0164C12.7666 20.381 12.4019 20.4722 12.1284 20.6545C11.9461 20.8368 11.5815 21.2015 11.4903 21.2926ZM22.0651 16.2787C22.3386 14.9113 22.3386 13.8174 22.2474 12.8146C23.2502 14.182 23.8883 15.8229 24.0707 17.555C24.0707 17.7373 24.3441 18.0108 24.5265 18.1931C24.7088 18.3755 24.8911 18.5578 24.8911 18.7401C24.8911 19.3782 24.7999 19.9252 24.7088 20.5633C24.7088 20.6545 24.4353 20.7457 24.253 20.8368C23.9795 20.928 23.706 21.1103 23.706 21.2926C23.159 23.2982 21.8828 25.1214 20.2418 26.3977C22.7944 23.8452 23.9795 19.6517 22.0651 16.2787ZM20.4242 26.58C22.1562 25.3038 23.4325 23.3894 24.0707 21.2926C24.0707 21.2015 24.3441 21.1103 24.5265 21.0192C24.7999 20.928 25.0734 20.7457 25.0734 20.4722C25.1646 19.8341 25.2558 19.1959 25.2558 18.5578C25.2558 18.2843 24.9823 18.102 24.7999 17.8285C24.7088 17.6462 24.4353 17.4638 24.4353 17.3727C24.253 15.4583 23.4325 13.635 22.2474 12.0853C21.7004 8.89462 19.6037 7.983 19.6037 7.89183C19.6949 7.983 21.0623 9.98856 20.0595 12.2676C19.0567 14.6378 16.5954 14.2732 16.413 14.2732C16.2307 14.2732 15.4103 15.3671 14.3163 17.2815C14.2252 17.1904 13.587 17.0992 13.0401 17.1904C13.4959 15.9141 14.2252 13.9997 14.3163 13.8174C14.4075 13.7262 14.7721 13.635 15.0456 13.5439C15.5926 13.4527 15.7749 13.3616 15.8661 13.2704C15.9572 13.1792 16.1396 12.5411 16.413 11.9941C16.6865 11.9941 17.2335 11.903 17.3247 11.903C17.4158 11.8118 17.8716 10.5355 17.8716 10.4444C17.8716 10.3532 16.8689 7.80067 16.413 6.79789C16.5954 6.61557 16.7777 6.34208 16.96 6.06859C22.3386 6.61557 26.6232 11.2648 26.6232 16.8257C26.532 21.2015 24.0707 24.848 20.4242 26.58Z" fill="#1B314F"/>
<path d="M13.4047 12.3587C13.9517 11.8117 13.6782 10.7178 12.6754 10.5354C12.9489 9.98847 13.2224 8.89453 13.2224 8.89453C13.2224 8.89453 10.5787 13.088 10.3052 13.1791C10.1229 13.2703 9.84939 12.3587 9.84939 12.3587C9.30241 14.2731 10.6698 14.5466 10.8522 13.9084C11.5815 13.7261 12.8577 12.9057 13.4047 12.3587Z" fill="#1B314F"/>
<path d="M11.1256 13.4526L12.493 11.0824C12.493 11.0824 13.3135 11.447 12.8577 12.0852C12.3107 12.8145 11.1256 13.4526 11.1256 13.4526Z" fill="#FFD923"/>
<path d="M27.9906 24.301C27.626 24.8479 27.1701 25.3949 26.6232 25.9419C29.9962 19.3782 26.8055 13.4527 26.6232 13.1792C26.8967 13.4527 27.079 13.7262 27.3525 13.9085C29.9962 16.7345 30.2696 21.1103 27.9906 24.301Z" fill="#D82122"/>
<path d="M31.1811 15.914C29.996 12.7233 28.2639 9.98848 24.6174 7.52711C21.0621 5.1569 17.1421 5.33922 16.9598 5.33922H16.8687C16.9598 5.24806 17.1421 5.24806 17.2333 5.24806C18.0538 4.97458 19.1477 4.79225 20.1505 4.60993C22.9765 4.24528 25.8025 5.1569 27.7169 7.16246C27.7169 7.16246 27.7169 7.16246 27.8081 7.25363C29.996 9.62384 31.1811 12.4499 31.1811 15.914Z" fill="#D82122"/>
<path d="M23.7972 2.78672C19.8772 2.05742 17.3247 2.42207 15.5014 3.0602C15.4103 2.87788 15.2279 2.42207 15.1368 2.05742C14.5898 2.69555 14.0428 3.51601 13.6782 3.97182C12.6754 4.70112 12.2196 5.33925 12.2196 5.33925C12.7666 3.33369 14.4987 1.8751 16.5042 1.51045C17.0512 1.41929 17.6893 1.32812 18.4186 1.32812C20.2419 1.51045 22.0651 1.96626 23.7972 2.78672Z" fill="#D82122"/>
<path d="M9.21106 7.89189C6.11156 7.80073 7.2055 4.15425 7.2055 3.97192C7.2055 3.97192 7.47898 6.79794 9.21106 7.89189Z" fill="#D82122"/>
<path d="M12.3106 1.41931C9.94041 2.8779 10.3962 6.2509 10.3962 6.2509C8.11717 2.78674 12.1283 1.51047 12.3106 1.41931Z" fill="#D82122"/>
<path d="M8.39079 8.80342C8.57311 8.89458 8.66427 9.16806 8.48195 9.53271C8.39079 9.71504 8.20847 9.71504 7.93498 9.62387C7.66149 9.44155 5.74709 8.34761 4.01501 7.25366C6.02058 7.8918 8.02614 8.62109 8.39079 8.80342C8.29963 8.80342 8.29963 8.80342 8.39079 8.80342Z" fill="white"/>
</svg>
