<svg width="31" height="30" viewBox="0 0 31 30" fill="none" xmlns="http://www.w3.org/2000/svg">
<path d="M15.3334 30C23.6176 30 30.3334 23.2843 30.3334 15C30.3334 6.71573 23.6176 0 15.3334 0C7.0491 0 0.333374 6.71573 0.333374 15C0.333374 23.2843 7.0491 30 15.3334 30Z" fill="#F3BA2F"/>
<path d="M10.9729 12.8197L15.4206 8.45926L19.8683 12.9069L22.3973 10.3779L15.4206 3.40112L8.44385 10.3779L10.9729 12.8197Z" fill="white"/>
<path d="M4.08337 14.564L6.61244 12.0349L9.14151 14.564L6.61244 17.0931L4.08337 14.564Z" fill="white"/>
<path d="M10.9729 16.3954L15.4206 20.8431L19.8683 16.3954L22.3973 18.9245L15.4206 25.9012L8.44385 18.9245L10.9729 16.3954Z" fill="white"/>
<path d="M21.6124 14.564L24.1415 12.0349L26.6706 14.564L24.1415 17.0931L21.6124 14.564Z" fill="white"/>
<path d="M18.0369 14.5639L15.4206 11.9476L13.502 13.8662L13.2404 14.1279L12.8043 14.5639L15.4206 17.1802L18.0369 14.5639Z" fill="white"/>
</svg>
