<svg width="30" height="31" viewBox="0 0 30 31" fill="none" xmlns="http://www.w3.org/2000/svg">
<path d="M5.84534 15.651C6.54596 14.2497 7.50931 12.8485 8.29751 11.4472C10.3118 8.03172 12.4137 4.61618 14.5155 1.20065C14.6031 1.0255 14.6031 0.850342 14.8658 0.850342C14.9534 0.850342 14.9534 0.850342 15.041 0.850342C15.041 4.44103 15.041 7.94414 15.041 11.5348L14.9534 11.6224C14.7783 11.6224 14.6907 11.71 14.5155 11.71C12.5888 12.5858 10.6621 13.4615 8.64782 14.3373C7.68447 14.8628 6.80869 15.3882 5.84534 15.651Z" fill="#828384"/>
<path d="M15.041 11.5348C15.041 7.94412 15.041 4.44101 15.041 0.850326C15.1285 0.762749 15.1285 0.762749 15.2161 0.675171C17.1428 3.91555 19.1571 7.15592 21.0838 10.3963C22.1348 12.1479 23.1857 13.8994 24.2366 15.651C24.149 15.651 24.0615 15.651 23.8863 15.651C20.9087 14.2497 18.0186 12.9361 15.041 11.5348Z" fill="#2F3030"/>
<path d="M5.84536 15.651C6.80872 15.3882 7.68449 14.8628 8.64785 14.4249C10.5746 13.5491 12.5888 12.6733 14.5156 11.7975C14.6907 11.71 14.7783 11.71 14.9534 11.71C15.041 12.0603 15.1286 12.4106 15.1286 12.6733C15.1286 15.4758 15.1286 18.3659 15.1286 21.1684C15.041 21.1684 15.041 21.2559 14.9534 21.2559C12.0634 19.5044 9.08574 17.8404 6.19567 16.0888C6.02052 16.0013 5.58263 16.0013 5.84536 15.651Z" fill="#353636"/>
<path d="M15.041 21.1683C15.041 18.3658 15.041 15.4757 15.041 12.6732C15.041 12.3229 15.041 11.9726 14.8658 11.7099L14.9534 11.6223C17.9311 12.936 20.8211 14.3372 23.7988 15.6509C23.8864 15.6509 23.9739 15.6509 24.1491 15.6509C24.3242 15.826 24.1491 15.9136 24.0615 16.0012C21.0839 17.7528 18.1938 19.5043 15.2162 21.1683C15.2162 21.1683 15.1286 21.1683 15.041 21.1683Z" fill="#131313"/>
<path d="M14.9536 23.0951C17.9312 21.3436 20.9088 19.592 23.9741 17.8405C24.0616 18.1032 23.8865 18.1908 23.7989 18.3659C20.9964 22.3069 18.1939 26.2479 15.3914 30.1889C15.3039 30.2765 15.3039 30.6268 14.9536 30.4517C14.9536 27.9995 14.9536 25.5473 14.9536 23.0951Z" fill="#313232"/>
<path d="M14.9533 23.0951C14.9533 25.5473 14.9533 27.9995 14.9533 30.4517C13.7272 28.8753 12.5887 27.1237 11.3626 25.5473C9.52349 23.0075 7.77194 20.4678 6.02039 17.928L6.10796 17.8405C7.85952 18.8914 9.61107 19.8547 11.3626 20.9057C12.5011 21.6939 13.7272 22.3945 14.9533 23.0951Z" fill="#828384"/>
<path d="M15.1285 0.675155C15.0409 0.762733 15.0409 0.762733 14.9534 0.850311C14.8658 0.850311 14.8658 0.850311 14.7782 0.850311C14.7782 0.762733 14.7782 0.587578 14.9534 0.5C15.1285 0.5 15.1285 0.587578 15.1285 0.675155Z" fill="#353636"/>
<path d="M5.93297 17.928C5.93297 17.928 5.84539 17.928 5.93297 17.928C5.93297 17.8404 6.02054 17.8404 5.93297 17.928C6.02054 17.928 6.02054 17.928 5.93297 17.928Z" fill="#828384"/>
<path d="M14.9536 21.2559C15.0411 21.2559 15.0411 21.1683 15.1287 21.1683C15.0411 21.2559 15.0411 21.3435 14.9536 21.2559Z" fill="#2F3030"/>
</svg>
