<svg width="19" height="30" viewBox="0 0 19 30" fill="none" xmlns="http://www.w3.org/2000/svg">
<path d="M0.415283 15.151C1.11591 13.7498 2.07926 12.3485 2.86746 10.9473C4.88176 7.53173 6.98363 4.11619 9.08549 0.700653C9.17307 0.525498 9.17307 0.350342 9.43581 0.350342C9.52338 0.350342 9.52339 0.350342 9.61096 0.350342C9.61096 3.94104 9.61096 7.44415 9.61096 11.0348L9.52339 11.1224C9.34823 11.1224 9.26065 11.21 9.08549 11.21C7.15878 12.0858 5.23207 12.9616 3.21778 13.8373C2.25442 14.3628 1.37864 14.8883 0.415283 15.151Z" fill="#828384"/>
<path d="M9.61096 11.0348C9.61096 7.44414 9.61096 3.94102 9.61096 0.350327C9.69854 0.262749 9.69854 0.262749 9.78612 0.175171C11.7128 3.41555 13.7271 6.65594 15.6538 9.89632C16.7048 11.6479 17.7557 13.3994 18.8066 15.151C18.7191 15.151 18.6315 15.151 18.4563 15.151C15.4787 13.7497 12.5886 12.4361 9.61096 11.0348Z" fill="#2F3030"/>
<path d="M0.415307 15.151C1.37866 14.8882 2.25444 14.3628 3.2178 13.9249C5.14451 13.0491 7.15881 12.1733 9.08552 11.2975C9.26068 11.21 9.34825 11.21 9.52341 11.21C9.61099 11.5603 9.69857 11.9106 9.69857 12.1733C9.69857 14.9758 9.69857 17.8659 9.69857 20.6684C9.61099 20.6684 9.61099 20.756 9.52341 20.756C6.63334 19.0044 3.65569 17.3404 0.765619 15.5889C0.590463 15.5013 0.152574 15.5013 0.415307 15.151Z" fill="#353636"/>
<path d="M9.61101 20.6684C9.61101 17.8659 9.61101 14.9758 9.61101 12.1733C9.61101 11.823 9.61101 11.4727 9.43585 11.21L9.52343 11.1224C12.5011 12.436 15.3911 13.8373 18.3688 15.151C18.4564 15.151 18.544 15.151 18.7191 15.151C18.8943 15.3261 18.7191 15.4137 18.6315 15.5013C15.6539 17.2528 12.7638 19.0044 9.78616 20.6684C9.78616 20.6684 9.69859 20.6684 9.61101 20.6684Z" fill="#131313"/>
<path d="M9.52344 22.5951C12.5011 20.8435 15.4787 19.092 18.544 17.3404C18.6315 17.6031 18.4564 17.6907 18.3688 17.8659C15.5663 21.8069 12.7638 25.7479 9.96133 29.6889C9.87375 29.7765 9.87375 30.1268 9.52344 29.9516C9.52344 27.4994 9.52344 25.0472 9.52344 22.5951Z" fill="#313232"/>
<path d="M9.5234 22.5951C9.5234 25.0472 9.5234 27.4994 9.5234 29.9516C8.29731 28.3752 7.1588 26.6237 5.93271 25.0472C4.09357 22.5075 2.34201 19.9677 0.590454 17.428L0.678032 17.3404C2.42959 18.3913 4.18115 19.3547 5.93271 20.4056C7.07122 21.1938 8.29731 21.8944 9.5234 22.5951Z" fill="#828384"/>
<path d="M9.69858 0.175156C9.611 0.262734 9.611 0.262734 9.52342 0.350312C9.43585 0.350312 9.43584 0.350312 9.34827 0.350312C9.34827 0.262734 9.34827 0.0875779 9.52342 0C9.69858 0 9.69858 0.0875779 9.69858 0.175156Z" fill="#353636"/>
<path d="M0.502913 17.428C0.502913 17.428 0.415335 17.428 0.502913 17.428C0.502913 17.3404 0.590491 17.3404 0.502913 17.428C0.590491 17.428 0.590491 17.428 0.502913 17.428Z" fill="#828384"/>
<path d="M9.52344 20.7559C9.61102 20.7559 9.61102 20.6683 9.69859 20.6683C9.61102 20.7559 9.61102 20.8435 9.52344 20.7559Z" fill="#2F3030"/>
</svg>
