<svg width="42" height="41" viewBox="0 0 42 41" fill="none" xmlns="http://www.w3.org/2000/svg">
<path fill-rule="evenodd" clip-rule="evenodd" d="M42 19.6728C42 31.3896 32.5988 40.8912 21 40.8912C9.40118 40.8912 0 31.3896 0 19.6728C0 19.1951 0.0193674 18.723 0.0489882 18.2556L12.7597 25.6469L39.6907 9.9893C41.2111 12.9848 42.0017 16.304 41.9966 19.6705L42 19.6728ZM12.7597 20.3061L0.926219 13.4271C0.691952 14.1952 0.501759 14.9763 0.356589 15.7665L12.7597 22.9771L38.5378 7.99526C38.1127 7.34693 37.654 6.72168 37.1638 6.1221L12.7597 20.3061ZM35.5655 4.38595C34.9817 3.81778 34.3663 3.28385 33.7221 2.7868L12.7597 14.9687L2.75815 9.15231C2.3791 9.8236 2.0368 10.5154 1.73282 11.2246L12.7597 17.6351L35.5655 4.38595ZM12.7597 12.2988L31.602 1.35229C30.8113 0.884108 29.9912 0.468753 29.1469 0.108887L12.7597 9.6301L5.46845 5.38988C4.94825 5.9686 4.45955 6.57546 4.0045 7.20777L12.7597 12.2988Z" fill="#299D30"/>
</svg>
