<svg width="15" height="15" viewBox="0 0 15 15" fill="none" xmlns="http://www.w3.org/2000/svg">
<path d="M7.79999 14.3C11.666 14.3 14.8 11.166 14.8 7.30005C14.8 3.43406 11.666 0.300049 7.79999 0.300049C3.93399 0.300049 0.799988 3.43406 0.799988 7.30005C0.799988 11.166 3.93399 14.3 7.79999 14.3Z" fill="#23292F"/>
<path d="M11.0748 3.45215H12.4257L9.64209 6.23577C8.6187 7.21823 6.98127 7.21823 5.99882 6.23577L3.17426 3.45215H4.52513L6.65379 5.53987C7.30876 6.1539 8.33215 6.1539 8.98712 5.53987L11.0748 3.45215Z" fill="white"/>
<path d="M4.48418 11.1479H3.1333L5.95786 8.36428C6.98125 7.38183 8.61868 7.38183 9.60114 8.36428L12.4257 11.1479H11.0748L8.94617 9.01925C8.2912 8.40522 7.2678 8.40522 6.61283 9.01925L4.48418 11.1479Z" fill="white"/>
</svg>
