<svg width="141" height="26" viewBox="0 0 141 26" fill="none" xmlns="http://www.w3.org/2000/svg">
<path d="M0.419099 2.08986C0.406339 1.89247 0.469616 1.69769 0.595941 1.54548C0.662658 1.47511 0.743825 1.42002 0.833859 1.38401C0.923893 1.348 1.02066 1.33191 1.1175 1.33686H16.907C17.0079 1.33105 17.109 1.34663 17.2035 1.38258C17.298 1.41853 17.3839 1.47404 17.4554 1.54548C17.585 1.70602 17.651 1.90976 17.6421 2.11675V6.15316C17.6377 6.34682 17.5724 6.53417 17.4554 6.68857C17.3905 6.77176 17.3072 6.8388 17.2121 6.88446C17.1169 6.93012 17.0125 6.95317 16.907 6.9518H6.58005V11.0053H14.5445C14.7238 10.9972 14.9006 11.0477 15.0497 11.1504C15.119 11.2105 15.1728 11.2864 15.2067 11.3716C15.2406 11.4568 15.2536 11.5489 15.2445 11.6402V15.1143C15.2437 15.243 15.2053 15.3687 15.1341 15.476C15.0629 15.5832 14.9619 15.6674 14.8436 15.7181C14.7548 15.7556 14.6586 15.7724 14.5624 15.767H6.59635V19.9493H17.3047C17.4033 19.935 17.5039 19.9445 17.5981 19.9771C17.6922 20.0097 17.7772 20.0645 17.8458 20.1367C17.9161 20.2097 17.9685 20.2978 17.999 20.3944C18.0296 20.491 18.0374 20.5933 18.0218 20.6933V24.7925C18.0206 24.8487 18.0084 24.9041 17.9857 24.9556C17.9631 25.0071 17.9305 25.0536 17.8898 25.0924C17.8898 25.3915 17.6331 25.5455 17.2436 25.5455H1.11832C0.931366 25.5569 0.747303 25.4952 0.604905 25.3735C0.537582 25.3045 0.486089 25.2217 0.454002 25.1308C0.421916 25.0399 0.410006 24.9431 0.419099 24.8471V2.08986ZM19.615 25.156L19.8717 24.6572C19.9606 24.4942 20.0673 24.3215 20.1814 24.1495L27.3505 13.1739L23.7305 7.58664L20.1016 2.00837C20.046 1.93042 19.9959 1.84874 19.9516 1.76389C19.9148 1.68307 19.8909 1.59701 19.8807 1.50881C19.8807 1.41917 19.9606 1.38249 20.0665 1.38249C20.1746 1.38778 20.282 1.36235 20.3762 1.30915H25.917C26.1142 1.30996 26.3073 1.36945 26.472 1.48029C26.6374 1.59193 26.767 1.75003 26.846 1.93584L30.7488 7.94032L34.6963 1.9448C34.7721 1.76552 34.8952 1.61231 35.0508 1.50229C35.2064 1.39204 35.3901 1.32843 35.5805 1.31893H41.2093C41.2998 1.32626 41.3886 1.34419 41.475 1.37271C41.5062 1.38486 41.533 1.40613 41.5519 1.43376C41.5708 1.46139 41.5809 1.49408 41.581 1.52755C41.5738 1.68331 41.5111 1.83134 41.4041 1.9448L34.121 13.1747L41.5989 24.6034C41.6926 24.7338 41.7725 24.8724 41.8385 25.0207C41.8937 25.1173 41.9211 25.2273 41.9175 25.3385C41.9175 25.5015 41.8197 25.583 41.6258 25.583H35.9261C35.7476 25.5842 35.5736 25.5269 35.4306 25.42C35.2758 25.3052 35.1538 25.1518 35.0769 24.975L30.7488 18.3985L26.4654 24.975C26.3882 25.1516 26.2659 25.3047 26.1109 25.4192C25.9675 25.5268 25.7931 25.5838 25.6154 25.5822H19.8986C19.8188 25.5837 19.7408 25.5585 19.677 25.5105C19.6447 25.4865 19.6188 25.4549 19.6018 25.4185C19.5847 25.3821 19.5769 25.342 19.5792 25.3018C19.5771 25.251 19.5895 25.1999 19.615 25.156ZM45.148 2.054C45.1424 1.86853 45.2054 1.68752 45.3248 1.54548C45.3912 1.47451 45.4725 1.41904 45.5627 1.38298C45.653 1.34693 45.7501 1.33118 45.8472 1.33686H51.0603C51.2201 1.3393 51.3782 1.38005 51.52 1.45502C51.6927 1.54141 51.8378 1.67669 51.9356 1.84538C53.2811 4.07669 54.6176 6.27458 55.9451 8.43988L59.9815 15.0336V1.95377C60.0208 1.77488 60.1247 1.61677 60.2733 1.50962C60.3954 1.40219 60.5531 1.34408 60.7158 1.34664H65.2558C65.4571 1.34256 65.6543 1.4102 65.8132 1.53652C65.8888 1.60077 65.9483 1.68188 65.9868 1.77333C66.0253 1.86477 66.0418 1.96399 66.0349 2.06297V24.9481C66.043 25.0381 66.0295 25.1287 65.9955 25.2123C65.9615 25.296 65.9079 25.3703 65.8393 25.429C65.6882 25.5386 65.5042 25.5933 65.3177 25.5838H60.2032C60.0649 25.5862 59.9313 25.5338 59.8316 25.4379C59.7095 25.3192 59.5997 25.1884 59.504 25.0476L55.3086 17.9454C53.9108 15.576 52.5097 13.2086 51.1052 10.8431V24.8675C51.1194 25.0595 51.0626 25.25 50.9454 25.4029C50.8669 25.4704 50.7755 25.5212 50.6768 25.5523C50.578 25.5834 50.4739 25.5941 50.3709 25.5838H45.848C45.7492 25.5953 45.6492 25.5822 45.5566 25.5458C45.4641 25.5094 45.382 25.4508 45.3175 25.3752C45.2024 25.2388 45.1423 25.0645 45.1488 24.8862L45.148 2.054ZM118.844 13.4827C118.846 14.5946 118.701 15.7018 118.41 16.7751C118.131 17.7846 117.717 18.7519 117.18 19.651C116.124 21.4385 114.624 22.9225 112.826 23.9588C110.951 25.013 108.834 25.5633 106.683 25.5561H98.8338C98.6545 25.5577 98.4785 25.5145 98.3204 25.429C98.1696 25.3377 98.0987 25.1568 98.0987 24.8666V2.08986C98.0962 1.98261 98.1154 1.87596 98.155 1.77627C98.1946 1.67658 98.2539 1.58589 98.3294 1.50962C98.3976 1.4332 98.4827 1.37373 98.5779 1.33596C98.6731 1.29819 98.7758 1.28315 98.8778 1.29203H106.728C107.819 1.28959 108.904 1.43302 109.959 1.71825C110.969 1.99207 111.942 2.3971 112.852 2.92436C113.747 3.44664 114.573 4.07728 115.313 4.80199C116.05 5.5281 116.69 6.352 117.216 7.25088C117.75 8.16733 118.163 9.14907 118.445 10.1716C118.729 11.2506 118.863 12.3655 118.844 13.4827ZM104.268 7.17835V19.7415H106.321L107.02 19.6869C107.794 19.6253 108.55 19.4225 109.25 19.0887C109.913 18.7605 110.512 18.3183 111.02 17.7824C111.543 17.2305 111.954 16.5838 112.233 15.877C112.532 15.1191 112.682 14.3091 112.676 13.4917C112.685 12.6516 112.523 11.8184 112.201 11.0424C111.879 10.2664 111.403 9.56378 110.802 8.97693C110.225 8.41369 109.541 7.97173 108.79 7.6771C108.009 7.35861 107.173 7.1985 106.33 7.20606L104.268 7.17835ZM123.003 2.08986C122.991 1.89278 123.054 1.69841 123.18 1.5463C123.247 1.47599 123.328 1.42096 123.419 1.38496C123.509 1.34895 123.606 1.33282 123.703 1.33767H139.5C139.6 1.33067 139.7 1.34573 139.794 1.38179C139.887 1.41784 139.971 1.47401 140.04 1.5463C140.176 1.70448 140.246 1.90867 140.235 2.11675V6.15397C140.234 6.34956 140.164 6.53944 140.04 6.68939C139.974 6.77223 139.888 6.83789 139.79 6.8809C139.694 6.9233 139.588 6.94149 139.483 6.93387H129.163V10.9882H137.129C137.307 10.9801 137.485 11.0306 137.633 11.1341C137.703 11.1936 137.757 11.2692 137.791 11.3544C137.825 11.4396 137.838 11.5318 137.828 11.623V15.1159C137.827 15.2783 137.764 15.4343 137.651 15.5511C137.59 15.6251 137.513 15.6834 137.425 15.7213C137.337 15.7591 137.241 15.7754 137.146 15.7686H129.181V19.9501H139.89C139.988 19.9361 140.089 19.9458 140.183 19.9786C140.277 20.0113 140.362 20.0661 140.43 20.1384C140.5 20.2114 140.552 20.2994 140.583 20.3958C140.614 20.4921 140.622 20.5942 140.607 20.6942V24.7933C140.604 24.9068 140.556 25.0144 140.474 25.0932C140.474 25.3923 140.217 25.5471 139.819 25.5471H123.703C123.61 25.5536 123.517 25.5416 123.429 25.512C123.341 25.4823 123.259 25.4355 123.189 25.3744C123.122 25.305 123.071 25.2221 123.039 25.1313C123.007 25.0405 122.995 24.9438 123.003 24.8479V2.08986Z" fill="#AEB6C9"/>
<path d="M92.6207 15.9681L86.921 22.1356C86.7655 22.3017 86.5777 22.4343 86.3692 22.5254C86.1607 22.6164 85.9359 22.6641 85.7083 22.6653C85.481 22.6639 85.2562 22.6163 85.0479 22.5252C84.8396 22.4341 84.6519 22.3016 84.4965 22.1356L78.7968 15.9681C78.671 15.8282 78.5876 15.6553 78.5563 15.4698C78.525 15.2842 78.5471 15.0936 78.62 14.9201C78.6933 14.7465 78.8148 14.599 78.9688 14.4947C79.1228 14.3912 79.3029 14.3358 79.4871 14.335H82.284V0.00341797C84.7452 0.0824443 87.1282 0.887075 89.1335 2.31622V14.335H91.9394C92.1227 14.3374 92.302 14.3936 92.4544 14.498C92.6068 14.6031 92.7266 14.7506 92.7991 14.9242C92.8704 15.0972 92.8915 15.2869 92.8599 15.4714C92.8284 15.6559 92.7454 15.8278 92.6207 15.9673V15.9681Z" fill="#CED3DE"/>
<path d="M83.284 8.33045H80.4961V26C77.9553 25.7123 75.5642 24.6515 73.6457 22.9611V8.33045H70.8936C70.707 8.33409 70.5237 8.28095 70.368 8.17805C70.2105 8.07378 70.0874 7.92519 70.0143 7.75103C69.9408 7.57587 69.9195 7.38319 69.9531 7.19622C69.9866 7.00925 70.0736 6.83598 70.2034 6.69731L75.9031 0.529832C76.0595 0.361955 76.2478 0.228304 76.4564 0.138661C76.7702 0.00101084 77.1192 -0.035284 77.4546 0.034837C77.79 0.104958 78.0951 0.277999 78.3275 0.529832L84.0272 6.69731C84.1577 6.84 84.2432 7.01805 84.2729 7.20913C84.3026 7.40021 84.2753 7.59581 84.1943 7.7714C84.1153 7.946 83.9858 8.093 83.8227 8.19354C83.6605 8.29378 83.4731 8.34023 83.284 8.33045Z" fill="#AEB6C9"/>
</svg>
