<svg width="150" height="34" viewBox="0 0 150 34" fill="none" xmlns="http://www.w3.org/2000/svg">
<path fill-rule="evenodd" clip-rule="evenodd" d="M102.414 28.835H27.8691L27.5454 28.3068L24.033 22.6364C23.908 22.4404 23.7547 22.2729 23.5843 22.1423C23.2777 21.8981 22.9085 21.7646 22.5309 21.7476C22.2924 21.6653 22.0397 21.634 21.7898 21.6624L21.1111 20.5721L20.8556 20.1575L20.5319 19.6379L20.1599 19.0359C20.4495 18.786 20.725 18.5248 20.9805 18.2465C24.2516 14.7483 24.9019 9.25955 22.2526 4.98328C21.9658 4.52045 21.6535 4.09168 21.3099 3.68848H102.414V28.835ZM97.7431 8.74807H91.0931V23.7775H97.7431V20.9692H93.9297V17.5562H97.2633V14.7507H93.9297V11.5535H97.7431V8.74807ZM33.1477 8.74807H26.5004V23.7775H33.1477V20.9692H29.3371V17.5562H32.6678V14.7507H29.3371V11.5535H33.1477V8.74807ZM37.2337 8.74807H33.9172L36.7112 15.9376L33.7099 23.7775H37.0009L38.2729 19.3706H38.3553L39.6274 23.7775H42.9638L39.8801 15.9376L42.7537 8.74807H39.4201L38.4206 12.4621H38.2957L37.2337 8.74807ZM44.889 9.69646C44.2699 10.4149 43.9604 11.3718 43.9604 12.5672V20.106C43.9604 21.3724 44.2614 22.3237 44.8577 22.9569C45.454 23.5901 46.4052 23.9052 47.7142 23.9052C48.8926 23.9052 49.7984 23.5418 50.4203 22.8149C51.0478 22.088 51.3687 21.1282 51.38 19.9328L48.5803 19.5438C48.5661 20.0606 48.4724 20.4524 48.302 20.7108C48.1288 20.9692 47.9016 21.0998 47.6262 21.0998C47.2684 21.0998 47.0384 21.0061 46.9419 20.8187C46.8454 20.6313 46.7971 20.4382 46.7971 20.2366V12.5672C46.7971 12.4678 46.8113 12.3485 46.8368 12.2122C46.8624 12.0759 46.9135 11.9482 46.9817 11.8346C47.0498 11.7182 47.1435 11.6216 47.2599 11.5421C47.3763 11.4626 47.5325 11.4257 47.7256 11.4257C48.0124 11.4257 48.2424 11.5734 48.4128 11.8658C48.586 12.1611 48.6768 12.5331 48.691 12.9789L51.4198 12.482C51.434 12.4082 51.4425 12.3429 51.4425 12.2776V12.0703C51.4425 11.0509 51.1415 10.2189 50.5367 9.5772C49.9319 8.93832 48.9977 8.61746 47.7341 8.61746C46.4563 8.61746 45.508 8.97523 44.889 9.69646ZM55.8181 8.74807H52.9843V23.7775H55.8181V17.5562H57.6326V23.7775H60.4664V8.74807H57.6326V14.7053H55.8181V8.74807ZM67.8831 8.74807H64.4246L61.6732 23.7775H64.6745L65.1118 20.8414H67.2385L67.6758 23.7775H70.6544L67.8831 8.74807ZM66.2362 12.6325L66.5485 15.6793L66.8211 18.0758H65.5093L65.7989 15.6793L66.1113 12.6325H66.2362ZM74.3202 8.74807H71.8414V23.7775H74.678V16.5425H74.7802L75.7769 19.3933L77.4777 23.7775H79.8856V8.74807H77.1143V15.8525H77.0092L76.0324 13.1095L74.3202 8.74807ZM82.9182 9.69646C82.2708 10.4149 81.9471 11.3718 81.9471 12.5672V20.106C81.9471 21.3724 82.2452 22.3237 82.8444 22.9569C83.4407 23.5901 84.3919 23.9052 85.698 23.9052C86.8679 23.9052 87.768 23.5872 88.4069 22.9455C89.0458 22.3038 89.3638 21.3667 89.3638 20.1259V15.3981H85.5731V17.9679H86.5329V20.2792C86.5329 20.5234 86.442 20.7222 86.2688 20.8727C86.0899 21.0232 85.8656 21.0998 85.5958 21.0998C85.2437 21.0998 85.0194 21.0061 84.9257 20.8187C84.8292 20.6313 84.7809 20.4382 84.7809 20.2366V12.5672C84.7809 12.4678 84.7951 12.3485 84.8235 12.2122C84.849 12.0759 84.8973 11.9482 84.9655 11.8346C85.0308 11.7182 85.1273 11.6216 85.2409 11.5421C85.3545 11.4626 85.5106 11.4257 85.698 11.4257C85.982 11.4257 86.212 11.5734 86.3824 11.8658C86.5527 12.1611 86.6436 12.5331 86.6578 12.9789L89.4092 12.482C89.449 11.9368 89.4036 11.4257 89.273 10.9487C89.1423 10.4745 88.918 10.0628 88.6057 9.71918C88.2933 9.37276 87.8958 9.10017 87.4188 8.90708C86.9389 8.714 86.371 8.61746 85.7179 8.61746C84.4969 8.61746 83.5627 8.97523 82.9182 9.69646Z" fill="#AEB6C9"/>
<path fill-rule="evenodd" clip-rule="evenodd" d="M16.7837 5.41792C15.2873 4.47237 13.7852 3.54386 12.2831 2.60399C12.1837 2.53868 12.0787 2.51313 11.9821 2.5756C11.8714 2.64658 11.8544 2.77152 11.8799 2.89646C11.9736 3.35361 12.0787 3.80793 12.1752 4.26509C12.1951 4.36163 12.1809 4.41558 12.0673 4.42126C7.01588 4.70237 2.92986 9.1774 4.2985 14.473C4.33257 14.6122 4.37232 14.757 4.53133 14.8109C4.64207 14.8479 4.75565 14.8138 4.83232 14.7371C4.89479 14.6803 4.93454 14.598 4.94022 14.5014C5.22417 10.3927 9.32155 8.38234 12.8624 8.18074C12.9532 8.17506 13.0157 8.21765 13.0271 8.32271C13.1123 8.92185 13.294 9.5948 13.4218 10.1939C13.4502 10.3416 13.5155 10.4211 13.6376 10.4438C13.7682 10.4665 13.8534 10.3842 13.9215 10.2848C14.921 8.80543 15.912 7.28346 16.8689 5.77286C16.9569 5.63656 16.92 5.50311 16.7837 5.41792ZM5.7154 16.8298C7.21181 17.7782 8.71674 18.7067 10.2131 19.6466C10.3182 19.7091 10.4204 19.7346 10.5198 19.6721C10.6277 19.6012 10.6419 19.4734 10.6164 19.3513C10.5226 18.897 10.4176 18.4398 10.3239 17.9855C10.304 17.8889 10.3182 17.835 10.4346 17.8293C15.4832 17.5454 19.5721 13.0703 18.2006 7.77469C18.1665 7.6384 18.124 7.48791 17.9706 7.43963C17.857 7.40272 17.7463 7.43396 17.6668 7.51062C17.6072 7.56741 17.5646 7.64976 17.5561 7.74914C17.2778 11.8579 13.1776 13.8682 9.63673 14.067C9.54303 14.0727 9.48624 14.0301 9.4692 13.925C9.38969 13.3259 9.20513 12.6529 9.08019 12.0538C9.04612 11.9061 8.98365 11.8295 8.86439 11.8068C8.72809 11.7812 8.64575 11.8636 8.5776 11.9658C7.5781 13.4451 6.58428 14.9671 5.63021 16.4749C5.54503 16.614 5.5791 16.7446 5.7154 16.8298Z" fill="#AEB6C9"/>
<path fill-rule="evenodd" clip-rule="evenodd" d="M25.694 29.0139L22.0879 23.1929C21.9629 22.9885 21.8039 22.8181 21.6307 22.6818C21.1395 22.2956 20.4893 22.1764 19.8958 22.3695L19.0922 21.0718L18.8282 20.6459L18.4959 20.1121L18.1126 19.4959C18.4107 19.2375 18.6947 18.9678 18.9588 18.6838C22.315 15.0919 22.9852 9.45549 20.2649 5.06564C19.8788 4.44663 19.4443 3.87874 18.9644 3.36763C18.1666 2.50443 17.2494 1.80307 16.2613 1.26641C15.0772 0.624687 13.7937 0.21864 12.4734 0.0681477C12.073 0.0227159 11.6698 0 11.2638 0C9.3102 0.00567897 7.33392 0.570737 5.56776 1.74628C2.40173 3.85602 0.678162 7.41106 0.678162 11.0428C0.678162 13.0787 1.22618 15.1373 2.36482 16.9773C4.62221 20.6203 8.60033 22.4206 12.4876 21.9776C13.5723 21.8555 14.6513 21.5545 15.682 21.0747L16.0994 21.7476L17.4794 23.9795C16.9143 24.6297 16.8121 25.6122 17.2892 26.3873L21.4405 33.0857C21.8096 33.6791 22.4286 34 23.0618 34C23.4168 34 23.7774 33.8978 24.0982 33.6848L24.2317 33.594L25.66 32.6456C26.5516 32.0493 26.8128 30.8169 26.2392 29.8913L25.694 29.0139ZM3.65678 16.1198C1.02458 11.8747 2.09223 6.26674 6.00504 3.35911C6.13281 3.26541 6.26343 3.17455 6.39689 3.08368C8.27095 1.83715 10.4233 1.39419 12.4734 1.66678C12.5359 1.6753 12.5955 1.68382 12.6551 1.69233C14.9523 2.05011 17.1046 3.31084 18.5868 5.35243C18.7117 5.52848 18.8367 5.70737 18.9531 5.89477C18.9616 5.90613 18.9673 5.91465 18.973 5.92601C19.3109 6.47119 19.5863 7.03908 19.8049 7.62118C20.316 8.98129 20.5006 10.4209 20.3814 11.8265C20.1485 14.6404 18.7032 17.3152 16.2329 18.9621C15.0602 19.7401 13.7852 20.2029 12.4904 20.379C12.3939 20.3932 12.3002 20.4017 12.2036 20.4102C10.0116 20.6289 7.79675 20.0184 5.99652 18.6781C5.09356 18.0052 4.29567 17.1477 3.65678 16.1198Z" fill="#AEB6C9"/>
<path fill-rule="evenodd" clip-rule="evenodd" d="M102.238 3.68848H144.972C147.426 3.68848 149.416 5.74994 149.416 8.29696V24.2293C149.416 26.7735 147.426 28.835 144.972 28.835H102.238V3.68848ZM109.448 13.8648C109.337 13.72 109.269 13.5695 109.24 13.4105C109.212 13.2515 109.198 13.0726 109.198 12.871C109.198 12.712 109.209 12.5473 109.229 12.3741C109.249 12.2009 109.291 12.0447 109.354 11.9084C109.416 11.7721 109.501 11.6585 109.612 11.5648C109.72 11.4711 109.871 11.4257 110.064 11.4257C110.271 11.4257 110.433 11.4683 110.549 11.5535C110.666 11.6387 110.757 11.7579 110.828 11.9084C110.893 12.0618 110.938 12.2293 110.961 12.4195C110.978 12.6041 110.989 12.8057 110.989 13.0215L113.786 12.3968C113.786 11.9794 113.729 11.545 113.616 11.0992C113.505 10.6534 113.315 10.2473 113.042 9.87819C112.773 9.51473 112.401 9.21091 111.929 8.97239C111.458 8.73671 110.859 8.61746 110.135 8.61746C109.456 8.61746 108.877 8.72536 108.397 8.93832C107.917 9.15696 107.531 9.45226 107.23 9.82424C106.932 10.199 106.713 10.6477 106.574 11.1702C106.435 11.6955 106.367 12.269 106.367 12.8852C106.367 13.3736 106.401 13.8251 106.469 14.234C106.54 14.6428 106.688 15.0319 106.918 15.3953C107.148 15.7644 107.477 16.108 107.906 16.4317C108.337 16.7554 108.908 17.0678 109.615 17.3716C109.879 17.4852 110.103 17.5959 110.282 17.7038C110.464 17.8117 110.606 17.9366 110.711 18.0815C110.816 18.2263 110.884 18.3966 110.93 18.5982C110.969 18.7999 110.989 19.0526 110.989 19.3536C110.989 19.5694 110.978 19.7823 110.961 19.9981C110.938 20.2168 110.898 20.4013 110.836 20.5603C110.776 20.7193 110.686 20.85 110.569 20.9493C110.453 21.0487 110.291 21.0998 110.084 21.0998C109.729 21.0998 109.484 20.9635 109.354 20.6909C109.22 20.4155 109.144 20.0066 109.115 19.4586L106.262 20.018C106.262 20.5518 106.33 21.0544 106.469 21.5229C106.608 21.9943 106.827 22.4088 107.125 22.7638C107.426 23.1187 107.815 23.3998 108.292 23.6043C108.772 23.8059 109.345 23.9052 110.01 23.9052C110.748 23.9052 111.358 23.7973 111.844 23.5844C112.332 23.3686 112.719 23.0619 113.003 22.6644C113.286 22.2697 113.488 21.7898 113.605 21.2305C113.724 20.6682 113.786 20.0407 113.786 19.3507C113.786 18.7743 113.755 18.2575 113.69 17.806C113.627 17.3517 113.497 16.9457 113.295 16.5851C113.093 16.2273 112.801 15.8951 112.415 15.5912C112.026 15.2902 111.503 15.0006 110.839 14.728C110.45 14.569 110.149 14.4242 109.933 14.2879C109.72 14.1488 109.558 14.0096 109.448 13.8648ZM143.203 22.9796C143.831 22.3577 144.14 21.4008 144.14 20.106V12.3968C144.14 11.0992 143.842 10.1451 143.235 9.53461C142.633 8.92128 141.698 8.61746 140.435 8.61746C139.282 8.61746 138.379 8.92128 137.726 9.53461C137.07 10.1451 136.743 11.0992 136.743 12.3968V20.106C136.743 22.6417 137.973 23.9052 140.435 23.9052C141.656 23.9052 142.581 23.5986 143.203 22.9796ZM139.83 11.5762C139.995 11.4314 140.196 11.3604 140.435 11.3604C140.67 11.3604 140.866 11.4314 141.025 11.5762C141.184 11.7182 141.267 11.9567 141.267 12.2889V20.2366C141.267 20.583 141.184 20.8216 141.025 20.9579C140.866 21.097 140.67 21.1651 140.435 21.1651C140.196 21.1651 139.995 21.097 139.83 20.9579C139.662 20.8216 139.58 20.583 139.58 20.2366V12.2889C139.58 11.9567 139.662 11.7182 139.83 11.5762ZM132.038 23.7775H134.869V8.74807H132.226L130.806 12.6978L129.807 15.7446H129.682L128.702 12.7631L127.265 8.74807H124.619V23.7775H127.453V16.693H127.555L128.219 18.9191L128.821 20.8414H130.71L131.269 19.0895L131.953 16.7583H132.038V23.7775ZM121.825 22.9796C122.452 22.3577 122.762 21.4008 122.762 20.106V8.76795H119.888V20.1713C119.888 20.5177 119.809 20.7563 119.647 20.8926C119.488 21.0317 119.292 21.0998 119.056 21.0998C118.818 21.0998 118.616 21.0317 118.452 20.8926C118.284 20.7563 118.202 20.5177 118.202 20.1713V8.76795H115.365V20.106C115.365 22.6417 116.594 23.9052 119.056 23.9052C120.277 23.9052 121.203 23.5986 121.825 22.9796Z" fill="#AEB6C9"/>
</svg>
