<svg width="160" height="86" viewBox="0 0 160 86" fill="none" xmlns="http://www.w3.org/2000/svg">
<path d="M51 76C42.2349 76.686 41.686 77.2349 41 86C40.314 77.2349 39.7651 76.686 31 76C39.7651 75.314 40.314 74.7651 41 66C41.686 74.7651 42.2349 75.314 51 76Z" fill="#EBEBEB"/>
<path d="M160 16C146.852 17.0291 146.029 17.8523 145 31C143.971 17.8523 143.148 17.0291 130 16C143.148 14.9709 143.971 14.1477 145 1C146.029 14.1477 146.852 14.9709 160 16Z" fill="#EBEBEB"/>
<path d="M20 10C11.2349 10.686 10.686 11.2349 10 20C9.31396 11.2349 8.76513 10.686 0 10C8.76513 9.31396 9.31396 8.76513 10 0C10.686 8.76513 11.2349 9.31396 20 10Z" fill="#EBEBEB"/>
</svg>
