<svg width="912" height="929" viewBox="0 0 912 929" fill="none" xmlns="http://www.w3.org/2000/svg">
<path d="M226 337C217.235 337.686 216.686 338.235 216 347C215.314 338.235 214.765 337.686 206 337C214.765 336.314 215.314 335.765 216 327C216.686 335.765 217.235 336.314 226 337Z" fill="#EBEBEB"/>
<path d="M335 282C321.852 283.029 321.029 283.852 320 297C318.971 283.852 318.148 283.029 305 282C318.148 280.971 318.971 280.148 320 267C321.029 280.148 321.852 280.971 335 282Z" fill="#EBEBEB"/>
<path d="M198 277C189.235 277.686 188.686 278.235 188 287C187.314 278.235 186.765 277.686 178 277C186.765 276.314 187.314 275.765 188 267C188.686 275.765 189.235 276.314 198 277Z" fill="#EBEBEB"/>
<path d="M215.04 858.801L469.4 565.91L169.69 825.922C184.11 837.789 199.25 848.769 215.04 858.801ZM304.58 902.618L469.4 565.921L255.63 881.79C271.45 889.681 287.8 896.614 304.58 902.618ZM455.53 928.84C467.46 928.84 479.24 928.228 490.94 927.311L469.39 565.921L440.75 928.463C445.67 928.626 450.57 928.84 455.52 928.84H455.53ZM397.6 924.976L469.39 565.921L347.25 915.535C363.7 919.624 380.5 922.764 397.6 924.976ZM65.07 703.664L469.41 565.91L36.54 646.868C44.79 666.534 54.33 685.507 65.06 703.664H65.07ZM133.22 792.585L469.41 565.91L94.44 747.39C106.44 763.274 119.34 778.414 133.22 792.585ZM873.23 649.825L469.41 565.91L846.49 702.828C856.48 685.844 865.4 668.135 873.23 649.825ZM582.35 910.458L469.41 565.91L533.48 921.928C550.1 919.002 566.4 915.168 582.36 910.458H582.35ZM819.31 743.924L469.4 565.9L783.33 786.722C796.13 773.204 808.18 758.941 819.3 743.924H819.31ZM749.69 818.898L469.4 565.9L707.57 851.246C722.24 841.296 736.28 830.469 749.69 818.898ZM18.07 593.885L469.4 565.91L4.32 527.73C7.35 550.343 11.97 572.425 18.07 593.885ZM669.53 874.429L469.4 565.921L623.21 896.226C639.1 889.803 654.58 882.565 669.53 874.44V874.429ZM708.23 78.0116L469.4 565.91L767.2 125.867C748.88 108.331 729.19 92.2845 708.23 78.0014V78.0116ZM877.92 290.474L469.41 565.91L898.93 358.026C893.58 334.791 886.55 312.22 877.92 290.474ZM810.37 173.304L469.41 565.91L851.32 234.585C839.24 213.023 825.56 192.531 810.37 173.304ZM579.07 17.4231L469.41 565.91L651.37 45.031C628.29 33.8064 604.09 24.6004 579.06 17.4231H579.07ZM905.17 538.904L469.4 565.91L891.15 600.532C897.16 580.53 901.84 559.946 905.17 538.904ZM911.08 464.42C911.08 448.159 910.24 432.092 908.64 416.259L469.4 565.91L910.6 483.393C910.85 477.092 911.07 470.782 911.07 464.42H911.08ZM293.81 30.228L469.4 565.91L369.09 8.46179C343.14 13.5491 317.99 20.869 293.81 30.228ZM17.75 336.117L469.4 565.9L43.48 266.312C33.13 288.659 24.54 311.995 17.74 336.117H17.75ZM74.72 209.649L469.4 565.9L121.36 148.928C104.22 167.788 88.63 188.096 74.72 209.649ZM169.27 103.244L469.4 565.9L233.35 59.0083C210.73 71.9252 189.3 86.7283 169.27 103.244ZM0 464.42C0 465.745 0.09 467.06 0.1 468.386L469.4 565.91L4.81 397.215C1.69 419.165 0 441.583 0 464.42ZM455.54 0C448.88 0 442.28 0.224288 435.69 0.509747L469.4 565.91L513.79 3.91485C494.7 1.42729 475.29 0 455.53 0H455.54Z" fill="url(#paint0_radial_307_19912)" fill-opacity="0.2"/>
<path d="M768 348C759.235 348.686 758.686 349.235 758 358C757.314 349.235 756.765 348.686 748 348C756.765 347.314 757.314 346.765 758 338C758.686 346.765 759.235 347.314 768 348Z" fill="#EBEBEB"/>
<path d="M803 628C789.852 629.029 789.029 629.852 788 643C786.971 629.852 786.148 629.029 773 628C786.148 626.971 786.971 626.148 788 613C789.029 626.148 789.852 626.971 803 628Z" fill="#EBEBEB"/>
<defs>
<radialGradient id="paint0_radial_307_19912" cx="0" cy="0" r="1" gradientUnits="userSpaceOnUse" gradientTransform="translate(455.54 464.42) rotate(90) scale(464.42 455.54)">
<stop stop-color="white"/>
<stop offset="1" stop-color="white" stop-opacity="0"/>
</radialGradient>
</defs>
</svg>
