<svg width="184" height="349" viewBox="0 0 184 349" fill="none" xmlns="http://www.w3.org/2000/svg">
<path d="M184 202C184 283.186 118.186 349 37 349C-44.1859 349 -110 283.186 -110 202C-110 120.814 -44.1859 55 37 55C118.186 55 184 120.814 184 202ZM-67.6218 202C-67.6218 259.781 -20.781 306.622 37 306.622C94.781 306.622 141.622 259.781 141.622 202C141.622 144.219 94.781 97.3782 37 97.3782C-20.781 97.3782 -67.6218 144.219 -67.6218 202Z" fill="#FEFEFE"/>
<path opacity="0.2" d="M88 122.5C88 190.155 33.1549 245 -34.5 245C-102.155 245 -157 190.155 -157 122.5C-157 54.8451 -102.155 0 -34.5 0C33.1549 0 88 54.8451 88 122.5ZM-147.285 122.5C-147.285 184.789 -96.7893 235.285 -34.5 235.285C27.7893 235.285 78.2847 184.789 78.2847 122.5C78.2847 60.2107 27.7893 9.71532 -34.5 9.71532C-96.7893 9.71532 -147.285 60.2107 -147.285 122.5Z" fill="#FEFEFE"/>
</svg>
