<svg width="360" height="309" viewBox="0 0 360 309" fill="none" xmlns="http://www.w3.org/2000/svg">
<path d="M61.4235 276.877L177.844 142.547L40.6669 261.798C47.2669 267.241 54.1964 272.276 61.4235 276.877ZM102.406 296.974L177.844 142.552L80.0015 287.421C87.2423 291.04 94.7256 294.22 102.406 296.974ZM171.495 309C176.956 309 182.347 308.719 187.703 308.299L177.839 142.552L164.731 308.827C166.983 308.902 169.225 309 171.491 309H171.495ZM144.981 307.228L177.839 142.552L121.936 302.898C129.465 304.773 137.154 306.213 144.981 307.228ZM-7.21756 205.726L177.848 142.547L-20.2757 179.678C-16.4997 188.697 -12.1332 197.399 -7.22213 205.726H-7.21756ZM23.9746 246.508L177.848 142.547L6.22505 225.781C11.7174 233.065 17.6217 240.009 23.9746 246.508ZM362.676 181.034L177.848 142.547L350.437 205.343C355.01 197.553 359.092 189.431 362.676 181.034ZM229.541 300.57L177.848 142.547L207.173 305.83C214.78 304.488 222.24 302.73 229.545 300.57H229.541ZM337.997 224.191L177.844 142.543L321.529 243.82C327.388 237.62 332.903 231.078 337.992 224.191H337.997ZM306.132 258.576L177.844 142.543L286.854 273.413C293.568 268.849 299.994 263.883 306.132 258.576ZM-28.7294 155.378L177.844 142.547L-35.0227 125.037C-33.6359 135.407 -31.5213 145.535 -28.7294 155.378ZM269.443 284.045L177.844 142.552L248.242 294.042C255.515 291.096 262.6 287.777 269.443 284.05V284.045ZM287.156 -81.221L177.844 142.547L314.146 -59.273C305.761 -67.3153 296.749 -74.6749 287.156 -81.2257V-81.221ZM364.823 16.222L177.848 142.547L374.439 47.2037C371.99 36.5476 368.773 26.1954 364.823 16.222ZM333.905 -37.5166L177.848 142.547L352.648 -9.41055C347.119 -19.2998 340.858 -28.6981 333.905 -37.5166ZM228.039 -109.009L177.848 142.547L261.131 -96.3471C250.567 -101.495 239.491 -105.717 228.035 -109.009H228.039ZM377.295 130.161L177.844 142.547L370.878 158.426C373.629 149.252 375.771 139.812 377.295 130.161ZM380 96C380 88.5421 379.616 81.1731 378.883 73.9117L177.844 142.547L379.78 104.702C379.895 101.812 379.995 98.9177 379.995 96H380ZM97.4764 -103.136L177.844 142.547L131.932 -113.119C120.055 -110.786 108.544 -107.429 97.4764 -103.136ZM-28.8759 37.1554L177.844 142.543L-17.0993 5.14044C-21.8364 15.3897 -25.7681 26.0926 -28.8804 37.1554H-28.8759ZM-2.80076 -20.8475L177.844 142.543L18.5463 -48.6964C10.7013 -40.0462 3.56582 -30.7321 -2.80076 -20.8475ZM40.4746 -69.6485L177.844 142.543L69.804 -89.9366C59.4508 -84.0124 49.6423 -77.2232 40.4746 -69.6485ZM-37 96C-37 96.6078 -36.9588 97.211 -36.9542 97.8189L177.844 142.547L-34.7985 65.1773C-36.2265 75.2442 -37 85.5263 -37 96ZM171.5 -117C168.452 -117 165.431 -116.897 162.415 -116.766L177.844 142.547L198.161 -115.205C189.423 -116.345 180.54 -117 171.495 -117H171.5Z" fill="url(#paint0_radial_407_19872)" fill-opacity="0.1"/>
<path d="M306.667 12.3333C300.239 12.8364 299.836 13.2389 299.333 19.6667C298.83 13.2389 298.428 12.8364 292 12.3333C298.428 11.8302 298.83 11.4278 299.333 5C299.836 11.4278 300.239 11.8302 306.667 12.3333Z" fill="#FEFEFE"/>
<path d="M350 27C340.358 27.7546 339.755 28.3584 339 38C338.245 28.3584 337.642 27.7546 328 27C337.642 26.2454 338.245 25.6416 339 16C339.755 25.6416 340.358 26.2454 350 27Z" fill="#FEFEFE"/>
<path d="M330.333 58.6668C323.906 59.1699 323.503 59.5724 323 66.0002C322.497 59.5724 322.094 59.1699 315.667 58.6668C322.094 58.1637 322.497 57.7613 323 51.3335C323.503 57.7613 323.906 58.1637 330.333 58.6668Z" fill="#FEFEFE"/>
<defs>
<radialGradient id="paint0_radial_407_19872" cx="0" cy="0" r="1" gradientUnits="userSpaceOnUse" gradientTransform="translate(171.5 96) rotate(90) scale(213 208.5)">
<stop stop-color="white"/>
<stop offset="1" stop-color="white" stop-opacity="0"/>
</radialGradient>
</defs>
</svg>
