<svg width="70" height="70" viewBox="0 0 70 70" fill="none" xmlns="http://www.w3.org/2000/svg">
<g clip-path="url(#clip0_293_37010)">
<path d="M35 44.2719C29.8789 44.2719 25.7127 40.1056 25.7127 34.9846C26.2229 22.6638 43.7789 22.6674 44.2872 34.9848C44.2873 40.1057 40.1211 44.2719 35 44.2719ZM35 28.7053C31.5375 28.7053 28.7205 31.5222 28.7205 34.9848C29.0655 43.3153 40.9358 43.3128 41.2794 34.9848C41.2795 31.5221 38.4625 28.7053 35 28.7053Z" fill="#121620"/>
<path d="M35 11.8876C31.7184 11.8876 29.0485 9.2178 29.0485 5.93614C29.3754 -1.95937 40.6259 -1.95704 40.9517 5.93614C40.9515 9.2178 38.2817 11.8876 35 11.8876ZM35 2.99245C33.3768 2.99245 32.0563 4.31302 32.0563 5.93614C32.2181 9.84137 37.7827 9.84028 37.9439 5.93614C37.9437 4.31302 36.6233 2.99245 35 2.99245Z" fill="#121620"/>
<path d="M35 69.9847C31.7184 69.9847 29.0485 67.3148 29.0485 64.0332C29.3281 56.1563 40.6732 56.1582 40.9517 64.0333C40.9515 67.3147 38.2817 69.9847 35 69.9847ZM35 61.0893C33.3768 61.0893 32.0563 62.4099 32.0563 64.033C32.1947 67.9291 37.806 67.9282 37.9439 64.033C37.9437 62.4099 36.6233 61.0893 35 61.0893Z" fill="#121620"/>
<path d="M5.9515 40.9363C2.66984 40.9363 0 38.2663 0 34.9848C0.326894 27.0893 11.5772 27.0915 11.903 34.9848C11.903 38.2663 9.23316 40.9363 5.9515 40.9363ZM5.9515 32.0409C4.32824 32.0409 3.00781 33.3615 3.00781 34.9846C3.16955 38.8899 8.734 38.8888 8.89519 34.9846C8.89519 33.3615 7.57463 32.0409 5.9515 32.0409Z" fill="#121620"/>
<path d="M64.0485 40.9362C60.7668 40.9362 58.097 38.2664 58.097 34.9847C58.4239 27.0892 69.6743 27.0915 70 34.9847C70 38.2662 67.3301 40.9362 64.0485 40.9362ZM64.0485 32.0409C62.4254 32.0409 61.1048 33.3615 61.1048 34.9846C61.2665 38.8898 66.8311 38.8887 66.9922 34.9846C66.9922 33.3615 65.6716 32.0409 64.0485 32.0409Z" fill="#121620"/>
<path d="M19.5959 17.4535C20.9599 15.2032 20.5706 12.0738 18.668 10.2357C12.8528 4.88436 4.90054 12.841 10.2513 18.6525C12.19 20.5892 15.1569 20.9273 17.4681 19.5794L22.9292 25.0405C23.5166 25.6277 24.4687 25.6277 25.0562 25.0405C25.6434 24.4532 25.6434 23.5009 25.0562 22.9136L19.5959 17.4535ZM16.541 16.5255C13.665 19.1726 9.73149 15.237 12.3781 12.3626C13.5257 11.215 15.3934 11.215 16.541 12.3626C17.6831 13.4583 17.6831 15.4299 16.541 16.5255Z" fill="#121620"/>
<path d="M52.5319 50.3895L47.0708 44.9284C46.4834 44.3412 45.5312 44.3412 44.9438 44.9284C44.3566 45.5158 44.3566 46.468 44.9438 47.0554L50.4041 52.5156C46.9956 58.5518 54.7475 64.564 59.7488 59.7333C64.5731 54.6552 58.5825 47.0187 52.5319 50.3895ZM57.6219 57.6064C56.4741 58.7541 54.6066 58.7541 53.4589 57.6064C51.6064 55.7382 52.9379 52.5865 55.5405 52.5826C58.1257 52.5651 59.4751 55.7619 57.6219 57.6064Z" fill="#121620"/>
<path d="M22.9292 44.9284L17.4681 50.3895C11.416 47.0191 5.42733 54.6558 10.2513 59.7334C15.2552 64.5651 23.0043 58.5486 19.5959 52.5156L25.056 47.0554C25.6432 46.468 25.6432 45.5158 25.056 44.9284C24.4688 44.3412 23.5166 44.3412 22.9292 44.9284ZM16.5411 57.6064C13.6657 60.2532 9.73124 56.3182 12.3781 53.4434C15.2465 50.7855 19.1937 54.7559 16.5411 57.6064Z" fill="#121620"/>
<path d="M46.0072 25.4811C46.3921 25.4811 46.7769 25.3343 47.0706 25.0406L52.5317 19.5795C54.8428 20.9276 57.81 20.5889 59.7485 18.6524C65.1001 12.8389 57.1438 4.8843 51.3319 10.2357C49.4287 12.0745 49.04 15.2034 50.4039 17.4535L44.9437 22.9138C43.9955 23.8562 44.6871 25.4895 46.0072 25.4811ZM53.4589 12.3627C54.6067 11.2149 56.4743 11.2149 57.6219 12.3627C60.2688 15.2379 56.3341 19.172 53.4592 16.526C52.3169 15.4304 52.3168 13.4583 53.4589 12.3627Z" fill="#121620"/>
<path d="M33.4961 11.6948V19.4179C33.4961 20.2485 34.1694 20.9218 35 20.9218C35.8306 20.9218 36.5039 20.2485 36.5039 19.4179V11.6948C35.5502 11.9506 34.4498 11.9506 33.4961 11.6948Z" fill="#60CC80"/>
<path d="M36.5039 58.2744V50.5513C36.5039 49.7207 35.8306 49.0474 35 49.0474C34.1694 49.0474 33.4961 49.7207 33.4961 50.5513V58.2744C34.4498 58.0186 35.5502 58.0186 36.5039 58.2744Z" fill="#60CC80"/>
<path d="M19.4333 33.4807H11.7101C11.9659 34.4345 11.9659 35.5348 11.7101 36.4885H19.4333C20.2639 36.4885 20.9372 35.8152 20.9372 34.9846C20.9372 34.1541 20.2639 33.4807 19.4333 33.4807Z" fill="#60CC80"/>
<path d="M58.2899 33.4807H50.5667C49.7361 33.4807 49.0627 34.1541 49.0627 34.9846C49.0627 35.8152 49.7361 36.4885 50.5667 36.4885H58.2899C58.0341 35.5346 58.0341 34.4345 58.2899 33.4807Z" fill="#60CC80"/>
</g>
<defs>
<clipPath id="clip0_293_37010">
<rect width="70" height="70" fill="white"/>
</clipPath>
</defs>
</svg>
