<svg width="94" height="60" viewBox="0 0 94 60" fill="none" xmlns="http://www.w3.org/2000/svg">
<path d="M93.1745 57.3068C93.1745 58.7943 72.5017 60 47 60C21.4986 60 0.825562 58.7943 0.825562 57.3068C0.825562 55.8192 21.4986 54.6135 47 54.6135C72.5017 54.6135 93.1745 55.8192 93.1745 57.3068Z" fill="#EEF0F3"/>
<path d="M24.9043 14.4321C24.4423 13.4181 23.5833 12.7788 22.4204 12.583L22.4599 12.3483C23.7045 12.5578 24.6247 13.2445 25.121 14.3336L24.9043 14.4321ZM24.9979 17.1567L24.7786 17.0637C24.9755 16.599 25.0889 16.2134 25.1248 15.8852L25.3615 15.9113C25.323 16.2629 25.2039 16.6701 24.9979 17.1567Z" fill="#60CC80"/>
<path d="M21.5179 21.273L24.0273 20.132L25.0349 22.3427L22.5255 23.4839L21.5179 21.273ZM23.6574 19.5493L21.3143 20.6144L21.2078 20.3806C21.0261 19.9822 20.9239 19.6385 20.9013 19.349C20.8785 19.0593 20.9097 18.7715 20.9949 18.4846C21.0802 18.1983 21.3171 17.6543 21.7063 16.853C21.9158 16.4303 21.9689 16.1066 21.8661 15.8808C21.7632 15.6551 21.6165 15.5098 21.4257 15.4453C21.235 15.3806 21.0042 15.4101 20.7327 15.5336C20.441 15.6661 20.2433 15.8728 20.1402 16.1522C20.0371 16.4322 20.068 16.8247 20.2338 17.3294L17.7065 18.1214C17.3884 17.2055 17.3855 16.353 17.6985 15.564C18.0111 14.7748 18.743 14.1188 19.8939 13.5953C20.7901 13.1881 21.5986 13.0458 22.3197 13.1688C23.298 13.3337 23.9789 13.837 24.3626 14.6785C24.5217 15.0277 24.5786 15.4082 24.5331 15.8204C24.4878 16.2324 24.2737 16.808 23.891 17.547C23.6257 18.0644 23.4838 18.4473 23.4657 18.6959C23.4476 18.9447 23.5114 19.2289 23.6574 19.5493Z" fill="#60CC80"/>
<path d="M17.0578 26.8256L18.3343 25.0947L19.863 26.2196L18.5862 27.9504L17.0578 26.8256ZM17.8604 24.8379L16.6682 26.4541L16.5065 26.3349C16.2312 26.1323 16.0307 25.9368 15.9049 25.7479C15.7792 25.5593 15.6908 25.3509 15.6399 25.1231C15.5889 24.8954 15.5434 24.4347 15.5036 23.7404C15.4855 23.3729 15.3986 23.1317 15.2424 23.0168C15.0864 22.902 14.9311 22.8589 14.7766 22.8872C14.622 22.9155 14.4756 23.0233 14.3377 23.2105C14.1891 23.4119 14.1331 23.6274 14.1691 23.8574C14.2053 24.0877 14.3758 24.3431 14.6808 24.6245L13.2593 26.1239C12.6937 25.6204 12.3672 25.0403 12.2803 24.3836C12.1931 23.7266 12.4425 23.0014 13.0279 22.2074C13.4839 21.5895 13.9812 21.1856 14.5196 20.9958C15.2493 20.7365 15.9052 20.821 16.4872 21.2491C16.7284 21.4268 16.9121 21.6646 17.038 21.9629C17.164 22.2612 17.2371 22.735 17.2576 23.3841C17.2736 23.8377 17.3224 24.1526 17.4048 24.3289C17.4869 24.5056 17.6389 24.6749 17.8604 24.8379Z" fill="#60CC80"/>
<path d="M43.2106 56.4497C42.8241 56.4497 42.4509 56.2397 42.2611 55.8732C41.3043 54.0267 40.1018 51.8599 37.9378 49.5147C37.6846 49.2406 37.5934 48.8543 37.6968 48.4962C38.5005 45.7105 39.7618 41.903 39.7744 41.8649C39.9599 41.305 40.5643 41.0025 41.1242 41.1876C41.6843 41.3729 41.988 41.9765 41.8025 42.5358C41.7908 42.5711 40.7044 45.851 39.9156 48.5194C41.9046 50.7724 43.1309 52.9098 44.1585 54.8923C44.4297 55.4156 44.2249 56.0595 43.701 56.3301C43.5438 56.4114 43.3761 56.4497 43.2106 56.4497Z" fill="#60CC80"/>
<path d="M44.9903 57.3068H36.7053L41.0958 54.8193L44.7764 54.9616L44.9903 57.3068Z" fill="#121620"/>
<path d="M49.4803 40.9411C49.5087 44.2556 46.3734 47.2514 42.4778 47.6327C38.5819 48.0139 35.401 45.636 35.3724 42.3217C35.344 39.0071 38.4793 36.0116 42.3752 35.6303C46.2708 35.249 49.452 37.6271 49.4803 40.9411Z" fill="#121620"/>
<path d="M23.5788 37.7415C23.1596 37.7417 22.7619 37.4937 22.5914 37.0829C22.3656 36.5381 22.6245 35.914 23.1696 35.6886C23.79 35.4319 23.8762 34.7983 23.8769 34.7921C23.9217 34.3152 24.2789 33.9265 24.7509 33.8418C25.0055 33.7957 25.2513 33.7239 25.5361 33.6409C26.9836 33.2184 28.7761 32.6949 34.4215 34.274C39.9896 31.1638 40.053 25.3314 40.053 25.0797C40.0527 24.4918 40.5288 24.0127 41.1175 24.0108H41.1211C41.7081 24.0108 42.1856 24.4822 42.1892 25.069C42.1913 25.3787 42.1568 32.7001 35.0347 36.3669C34.792 36.4918 34.5112 36.5197 34.2488 36.4435C28.8678 34.8915 27.3527 35.3337 26.1355 35.689C26.0277 35.7204 25.9186 35.7525 25.8069 35.7835C25.5433 36.4604 24.9946 37.2432 23.9872 37.6602C23.8536 37.7155 23.715 37.7415 23.5788 37.7415Z" fill="#121620"/>
<path d="M36.0645 30.1087C34.0388 22.0633 28.6381 1.31374 45.9398 0.0452576C61.4619 -1.09288 65.7221 19.5422 66.7576 26.691C67.3611 30.8575 67.5637 34.6363 67.5992 37.5893C67.6447 41.3985 64.9653 44.6833 61.2273 45.4416C52.7704 47.157 44.7674 47.4008 39.3776 45.2763C37.9202 44.7016 37.0385 43.2184 37.1788 41.6597C37.3865 39.3487 37.3903 35.3741 36.0645 30.1087Z" fill="#60CC80"/>
<path d="M63.4961 44.6102C65.6992 43.3974 67.2291 41.1925 67.5408 38.6496H67.5415C67.2296 41.1929 65.6997 43.3981 63.4961 44.6102ZM67.5487 38.5901H67.548C67.5856 38.2616 67.6032 37.9277 67.5992 37.5892C67.5699 35.1407 67.4253 32.1243 67.0328 28.79C67.426 32.125 67.5703 35.1412 67.5999 37.5888C67.6039 37.9273 67.5863 38.2614 67.5487 38.5901Z" fill="#E0E1DE"/>
<path d="M67.5416 38.6497H67.5408C67.5432 38.6299 67.5456 38.61 67.548 38.5899H67.5487C67.5463 38.61 67.5439 38.6299 67.5416 38.6497Z" fill="#CCCDCB"/>
<path d="M53.1443 46.6204C50.9959 42.2003 53.4646 39.0611 53.9504 35.1296C55.0173 26.4883 47.9526 10.6305 44.9901 6.04232C44.092 4.65181 44.0725 3.24514 44.6724 2.08512C45.338 0.797852 46.7059 0.0436096 48.1439 0.0436096C48.2622 0.0436096 48.3813 0.0488396 48.5004 0.0590668C61.9413 1.22979 65.7812 19.9533 66.7569 26.6903C66.8602 27.4022 66.9519 28.1029 67.0329 28.7901C67.4254 32.1243 67.5699 35.1408 67.5992 37.5893C67.6033 37.9278 67.5856 38.2617 67.548 38.5902C67.5456 38.6101 67.5432 38.6299 67.5409 38.6496C67.2291 41.1925 65.6993 43.3974 63.4961 44.6103C62.8012 44.9927 62.0391 45.276 61.2271 45.4404C58.4574 46.0042 55.7377 46.4063 53.1443 46.6204Z" fill="#4DBA6E"/>
<path d="M64.4418 37.696C64.3835 37.696 64.3356 37.6489 64.3352 37.5905C64.2911 33.9151 64.0082 30.2531 63.4945 26.7064C60.9227 8.94984 53.9983 -0.0306168 43.4669 0.744316C43.4095 0.751213 43.3569 0.704597 43.3526 0.645847C43.3483 0.587097 43.3926 0.535717 43.4514 0.531673C54.109 -0.253487 61.1154 8.79048 63.706 26.6758C64.2211 30.2317 64.5045 33.9032 64.5488 37.5884C64.5495 37.6471 64.5021 37.6954 64.4433 37.696H64.4418Z" fill="#121620"/>
<path d="M69.5632 41.5102C69.5916 44.8245 66.4563 47.8204 62.5607 48.2016C58.6648 48.5826 55.4839 46.2048 55.4555 42.8904C55.4269 39.5763 58.5622 36.5802 62.458 36.1992C66.3537 35.8179 69.5349 38.1958 69.5632 41.5102Z" fill="#121620"/>
<path d="M64.9315 56.4497C64.5449 56.4497 64.1718 56.2397 63.982 55.8732C63.0251 54.0267 61.8227 51.8601 59.6586 49.5147C59.4057 49.2404 59.3142 48.8543 59.4178 48.4962C60.2213 45.7105 61.4826 41.903 61.4952 41.8649C61.6807 41.3053 62.2842 41.001 62.8453 41.1876C63.4054 41.3728 63.709 41.9765 63.5235 42.5357C63.5116 42.5711 62.4252 45.8509 61.6364 48.5194C63.6257 50.7724 64.8517 52.9098 65.8793 54.8923C66.1505 55.4156 65.9457 56.0595 65.4218 56.3301C65.2646 56.4114 65.097 56.4497 64.9315 56.4497Z" fill="#60CC80"/>
<path d="M62.6883 23.9281C62.3039 23.9281 61.9327 23.7205 61.7414 23.3568C61.4678 22.8361 61.6679 22.1925 62.188 21.9178C62.394 21.8083 67.045 19.2692 68.3508 13.1718C65.2499 11.8767 59.6767 8.95274 58.4581 7.48303C58.3402 7.3408 58.2611 7.17025 58.229 6.98806C58.2004 6.82751 57.9999 5.56616 58.4674 4.37117L57.9049 3.28632C57.6336 2.7628 57.8384 2.11916 58.3623 1.84824C58.8863 1.57804 59.5309 1.78165 59.8022 2.30517L60.6114 3.86597C60.7843 4.19968 60.7688 4.59975 60.5702 4.91919C60.3147 5.33044 60.283 5.93293 60.3037 6.32539C61.6762 7.56366 67.2198 10.4981 69.9314 11.5035C70.4072 11.68 70.693 12.1664 70.6153 12.6671C69.4075 20.4609 63.4373 23.6729 63.1839 23.8056C63.0255 23.8889 62.8557 23.9281 62.6883 23.9281Z" fill="#121620"/>
<path d="M59.2804 7.33606C59.1802 7.33606 59.079 7.30799 58.9887 7.24924C58.7418 7.08798 58.6725 6.75736 58.8337 6.5107C58.8706 6.45433 59.7537 5.12401 61.0968 4.76461C61.3814 4.68778 61.6748 4.85737 61.751 5.14185C61.8275 5.42656 61.6584 5.71889 61.3733 5.795C60.4355 6.04618 59.7348 7.0837 59.7279 7.09416C59.6255 7.25091 59.4548 7.33606 59.2804 7.33606Z" fill="#121620"/>
<path d="M66.7111 57.3068H58.4261L62.8167 54.8193L66.4975 54.9616L66.7111 57.3068Z" fill="#121620"/>
<path d="M54.5822 19.8386C54.8318 22.656 52.4934 25.1646 49.3591 25.4417C46.2249 25.7186 43.4816 23.6595 43.232 20.8421C42.9822 18.0247 45.3206 15.5163 48.4549 15.2392C51.5894 14.9621 54.3324 17.0214 54.5822 19.8386Z" fill="white"/>
<path d="M49.024 20.4099C49.4548 21.9203 49.1302 23.3368 48.2986 23.5737C47.4672 23.8103 46.4437 22.7776 46.0126 21.2667C45.5818 19.7563 45.9064 18.3397 46.738 18.1032C47.5694 17.8663 48.593 18.8991 49.024 20.4099Z" fill="#121620"/>
<path d="M42.4264 21.3007C46.0229 20.8383 53.1445 18.811 54.3195 17.9933C53.3936 15.2903 49.09 12.9788 45.2394 14.2806C41.7684 15.4544 42.4264 21.3007 42.4264 21.3007Z" fill="#121620"/>
<path d="M43.1263 23.0371C47.5897 22.1899 53.3936 20.7672 55.0537 19.8558C54.9513 22.7643 54.1059 25.7106 49.548 26.7065C45.824 27.52 43.1263 23.0371 43.1263 23.0371Z" fill="#121620"/>
<path d="M40.8055 22.7621C40.9398 25.0386 39.3452 26.602 37.2438 26.2545C35.1423 25.907 33.33 23.7801 33.1957 21.5036C33.0614 19.2276 34.656 17.6641 36.7575 18.0116C38.8589 18.3592 40.6712 20.4861 40.8055 22.7621Z" fill="white"/>
<path d="M37.078 22.2091C37.349 23.4835 37.1149 24.5462 36.5558 24.5834C35.9963 24.6205 35.3231 23.6174 35.0523 22.3432C34.7813 21.0688 35.0154 20.0061 35.5746 19.9687C36.134 19.9319 36.807 20.9349 37.078 22.2091Z" fill="#121620"/>
<path d="M32.6511 21.7212C35.064 22.0057 39.8551 21.6884 40.6512 21.2533C40.063 18.9454 37.209 16.3362 34.6161 16.6708C32.2789 16.9727 32.6511 21.7212 32.6511 21.7212Z" fill="#121620"/>
<path d="M33.0992 23.2228C36.0971 23.3591 39.9991 23.2825 41.121 22.861C41.0186 25.1458 40.4183 27.326 37.3554 27.2903C34.853 27.2611 33.0992 23.2228 33.0992 23.2228Z" fill="#121620"/>
<path d="M50.3551 12.8423C45.8576 12.8423 42.8672 10.6231 42.7205 10.512C42.2504 10.1557 42.1582 9.48662 42.5147 9.01686C42.8708 8.54876 43.539 8.45624 44.0086 8.80969C44.0603 8.84751 47.6128 11.4347 52.5436 10.5013C53.1235 10.3926 53.6825 10.772 53.7923 11.3507C53.902 11.9296 53.5213 12.4879 52.9418 12.5978C52.0357 12.7695 51.1702 12.8423 50.3551 12.8423Z" fill="#121620"/>
<path d="M31.2532 11.003C31.1331 11.0033 31.0112 10.9828 30.8919 10.94C30.3368 10.7407 30.0484 10.1296 30.2479 9.5752C30.8143 8.00084 31.7533 6.97854 33.0391 6.53708C35.3698 5.73527 37.8799 7.29393 37.9854 7.36077C38.4843 7.67569 38.6332 8.33455 38.3181 8.83262C38.0037 9.3295 37.3457 9.47911 36.8475 9.16657C36.3612 8.86449 34.8533 8.16639 33.7278 8.55695C33.0791 8.78196 32.5985 9.35138 32.2584 10.2966C32.1019 10.7319 31.6911 11.003 31.2532 11.003Z" fill="#121620"/>
<path d="M39.6724 29.0039C39.6429 29.0039 39.6131 28.9999 39.5834 28.9911C39.4152 28.9421 39.3171 28.7691 39.364 28.6003C39.3721 28.5712 39.5729 27.8803 40.4504 27.4281C41.676 26.7968 43.5435 26.9274 46.0015 27.8163C46.1677 27.8762 46.2539 28.0601 46.1936 28.2261C46.1334 28.3926 45.9495 28.4792 45.7833 28.4183C42.9648 27.3986 41.5019 27.6189 40.7705 27.9837C40.1323 28.302 39.9863 28.7565 39.9803 28.7758C39.938 28.9138 39.8103 29.0039 39.6724 29.0039Z" fill="#121620"/>
<path d="M29.5871 27.832C23.3711 28.3895 18.9213 30.96 18.9213 30.96C20.762 30.6128 27.3411 38.7443 29.0327 45.0159C32.1531 43.8603 35.7918 43.0735 39.6727 42.4587C37.3221 35.9947 33.0238 28.6723 29.5871 27.832Z" fill="#60CC80"/>
<path d="M29.0326 45.0159C28.3265 42.398 26.7693 39.4569 25.0601 36.9428C24.6319 36.3127 24.1932 35.7086 23.7569 35.1441C22.8472 33.9675 21.9446 32.9594 21.148 32.2264C23.54 31.2821 27.0303 30.2393 28.7049 30.0393C28.3061 29.6706 28.1477 29.3338 28.1479 29.0393C28.1489 28.3917 28.9186 27.9502 29.5871 27.832C33.0238 28.6723 37.3221 35.9947 39.6727 42.4587C38.862 42.5872 38.0616 42.7232 37.2745 42.8682C36.6615 42.9815 36.0568 43.1001 35.4612 43.2253C33.1593 43.7091 30.9936 44.2897 29.0326 45.0159Z" fill="#7FE49D"/>
<path d="M29.5871 27.832C25.5195 27.3734 18.9151 30.7747 18.9151 30.7747C17.7451 31.5199 18.0628 32.918 18.7013 33.5077C19.3138 32.63 26.1394 30.3456 28.705 30.0393C27.4282 28.8598 28.6145 28.0042 29.5871 27.832Z" fill="#60CC80"/>
<path d="M18.7013 33.5077C18.3726 33.2042 18.129 32.6866 18.1295 32.1541C18.1299 31.6519 18.3474 31.1365 18.9151 30.7747C18.9151 30.7747 24.7117 27.7894 28.7885 27.7894C29.0631 27.7894 29.3303 27.803 29.587 27.832C28.9186 27.9502 28.1489 28.3917 28.1479 29.0393C28.1477 29.3338 28.306 29.6706 28.7049 30.0393C27.0303 30.2393 23.54 31.2821 21.148 32.2264C19.8756 32.7287 18.9139 33.203 18.7013 33.5077Z" fill="#60CC80"/>
<path d="M23.5795 37.7415C23.2304 37.7415 22.8886 37.571 22.6838 37.2575C21.9091 36.072 22.3931 34.2628 22.4978 33.9122C22.6667 33.3476 23.2616 33.027 23.8272 33.1956C24.3918 33.364 24.7131 33.9572 24.5454 34.5212C24.3709 35.1182 24.3356 35.881 24.473 36.0915C24.7955 36.5848 24.6562 37.2458 24.1623 37.5681C23.982 37.6853 23.7796 37.7415 23.5795 37.7415Z" fill="#121620"/>
</svg>
