<svg width="101" height="76" viewBox="0 0 101 76" fill="none" xmlns="http://www.w3.org/2000/svg">
<path d="M18.56 75.16C13.1467 75.16 8.85333 73.2 5.68 69.28C2.50667 65.36 0.92 60.04 0.92 53.32C0.92 46.6 2.22667 40.16 4.84 34C7.64 27.6533 10.9067 22.52 14.64 18.6C18.56 14.68 22.6667 11.2267 26.96 8.23999C34.8 3.01333 40.3067 0.399995 43.48 0.399995C44.2267 0.399995 45.16 1.51999 46.28 3.75999C47.4 5.81333 47.96 7.58666 47.96 9.07998C34.7067 15.24 27.6133 24.6667 26.68 37.36L38.72 54.72C38.72 61.0667 36.6667 66.1067 32.56 69.84C28.64 73.3867 23.9733 75.16 18.56 75.16ZM71.2 75.16C65.7867 75.16 61.4933 73.2 58.32 69.28C55.1467 65.36 53.56 60.04 53.56 53.32C53.56 46.6 54.8667 40.16 57.48 34C60.28 27.6533 63.5467 22.52 67.28 18.6C71.2 14.68 75.3067 11.2267 79.6 8.23999C87.44 3.01333 92.9467 0.399995 96.12 0.399995C96.8667 0.399995 97.8 1.51999 98.92 3.75999C100.04 5.81333 100.6 7.58666 100.6 9.07998C87.3467 15.24 80.2533 24.6667 79.32 37.36L91.36 54.72C91.36 61.0667 89.3067 66.1067 85.2 69.84C81.28 73.3867 76.6133 75.16 71.2 75.16Z" fill="#EAEDEF"/>
</svg>
