<svg width="150" height="36" viewBox="0 0 150 36" fill="none" xmlns="http://www.w3.org/2000/svg">
<path fill-rule="evenodd" clip-rule="evenodd" d="M27.4217 29.9355H102.599V4.57562H20.8068C21.1533 4.98225 21.4683 5.41465 21.7575 5.88141C24.4292 10.194 23.7735 15.7293 20.4746 19.2572C20.2169 19.5378 19.9391 19.8013 19.647 20.0533L20.0222 20.6603L20.3486 21.1844L20.6063 21.6025L21.2907 22.7021C21.5427 22.6734 21.7976 22.7049 22.0381 22.788C22.419 22.8052 22.7912 22.9398 23.1005 23.186C23.2723 23.3177 23.427 23.4867 23.553 23.6843L27.0952 29.4029L27.4217 29.9355Z" fill="#2A609F"/>
<path fill-rule="evenodd" clip-rule="evenodd" d="M91.1821 9.67836H97.8886V12.5076H94.0428V15.732H97.4047V18.5612H94.0428V22.0032H97.8886V24.8353H91.1821V9.67836ZM26.0414 9.67836H32.7451V12.5076H28.9021V15.732H32.2611V18.5612H28.9021V22.0032H32.7451V24.8353H26.0414V9.67836ZM33.5211 9.67836H36.8657L37.9367 13.4239H38.0627L39.0707 9.67836H42.4325L39.5346 16.9289L42.6444 24.8353H39.2797L37.9969 20.391H37.9138L36.6309 24.8353H33.312L36.3388 16.9289L33.5211 9.67836ZM43.6496 13.5299C43.6496 12.3243 43.9617 11.3593 44.5859 10.6348C45.2102 9.90744 46.1666 9.54663 47.4553 9.54663C48.7295 9.54663 49.6717 9.87022 50.2816 10.5145C50.8916 11.1617 51.1951 12.0007 51.1951 13.0287C51.1951 13.1032 51.1951 13.1719 51.1951 13.2378C51.1951 13.3036 51.1865 13.3695 51.1722 13.444L48.4203 13.9451C48.406 13.4955 48.3143 13.1204 48.1397 12.8226C47.9678 12.5276 47.7359 12.3787 47.4467 12.3787C47.2519 12.3787 47.0944 12.4159 46.977 12.4961C46.8596 12.5763 46.7651 12.6737 46.6964 12.7911C46.6277 12.9056 46.5761 13.0345 46.5504 13.1719C46.5246 13.3094 46.5103 13.4296 46.5103 13.5299V21.2644C46.5103 21.4677 46.559 21.6624 46.6563 21.8514C46.7537 22.0404 46.9856 22.1349 47.3464 22.1349C47.6242 22.1349 47.8533 22.0032 48.028 21.7426C48.1998 21.482 48.2943 21.0869 48.3086 20.5657L51.1321 20.958C51.1206 22.1636 50.7971 23.1314 50.1642 23.8645C49.5371 24.5976 48.6236 24.9641 47.4352 24.9641C46.1151 24.9641 45.1558 24.6463 44.5545 24.0077C43.9531 23.3691 43.6496 22.4098 43.6496 21.1327V13.5299ZM52.75 9.67836H55.6079V15.6861H57.4377V9.67836H60.2955V24.8353H57.4377V18.5612H55.6079V24.8353H52.75V9.67836ZM64.2874 9.67836H67.7752L70.5701 24.8353H67.5662L67.1252 21.8743H64.9804L64.5394 24.8353H61.5126L64.2874 9.67836ZM66.4293 16.6684L66.1143 13.5957H65.9883L65.6733 16.6684L65.3813 19.0852H66.7042L66.4293 16.6684ZM71.767 9.67836H74.2669L75.9937 14.0768L76.9788 16.843H77.0847V9.67836H79.8796V24.8353H77.4512L75.736 20.4139L74.7308 17.5389H74.6278V24.8353H71.767V9.67836ZM81.9585 13.5299C81.9585 12.3243 82.285 11.3593 82.9379 10.6348C83.5879 9.90744 84.53 9.54663 85.7614 9.54663C86.42 9.54663 86.9927 9.64399 87.4766 9.83872C87.9577 10.0334 88.3586 10.3083 88.6736 10.6577C88.9886 11.0042 89.2148 11.4194 89.3466 11.8976C89.4783 12.3787 89.5241 12.8942 89.484 13.444L86.7092 13.9451C86.6949 13.4955 86.6032 13.1204 86.4314 12.8226C86.2596 12.5276 86.0277 12.3787 85.7413 12.3787C85.5523 12.3787 85.3948 12.4159 85.2803 12.4961C85.1657 12.5763 85.0684 12.6737 85.0025 12.7911C84.9338 12.9056 84.8851 13.0345 84.8593 13.1719C84.8307 13.3094 84.8164 13.4296 84.8164 13.5299V21.2644C84.8164 21.4677 84.8651 21.6624 84.9624 21.8514C85.0569 22.0404 85.2831 22.1349 85.6382 22.1349C85.9103 22.1349 86.1365 22.0576 86.3169 21.9058C86.4916 21.7541 86.5832 21.5536 86.5832 21.3073V18.9764H85.6153V16.3849H89.4382V21.1527C89.4382 22.4041 89.1175 23.3491 88.4732 23.9963C87.8289 24.6434 86.9211 24.9641 85.7413 24.9641C84.4241 24.9641 83.4648 24.6463 82.8634 24.0077C82.2592 23.3691 81.9585 22.4098 81.9585 21.1327V13.5299Z" fill="white"/>
<path fill-rule="evenodd" clip-rule="evenodd" d="M16.2423 6.31972C14.7332 5.36615 13.2183 4.42976 11.7035 3.48192C11.6033 3.41605 11.4973 3.39028 11.3999 3.45328C11.2883 3.52487 11.2711 3.65087 11.2969 3.77686C11.3914 4.2379 11.4973 4.69607 11.5947 5.15711C11.6147 5.25447 11.6004 5.30888 11.4859 5.31461C6.39155 5.5981 2.27086 10.1111 3.6511 15.4517C3.68547 15.592 3.72556 15.738 3.88592 15.7924C3.9976 15.8297 4.11214 15.7953 4.18946 15.718C4.25246 15.6607 4.29255 15.5777 4.29827 15.4803C4.58463 11.3367 8.71678 9.3093 12.2877 9.10598C12.3793 9.10026 12.4423 9.14321 12.4537 9.24916C12.5397 9.85338 12.7229 10.532 12.8518 11.1363C12.8804 11.2852 12.9463 11.3653 13.0694 11.3883C13.2011 11.4112 13.287 11.3281 13.3558 11.2279C14.3638 9.73597 15.3631 8.20109 16.3282 6.67767C16.4169 6.54022 16.3797 6.40563 16.2423 6.31972ZM5.08003 17.8284C6.58914 18.7849 8.10683 19.7213 9.61594 20.6691C9.72189 20.7321 9.82498 20.7579 9.92521 20.6949C10.034 20.6233 10.0483 20.4944 10.0226 20.3713C9.92807 19.9131 9.82212 19.4521 9.72762 18.9939C9.70757 18.8966 9.72189 18.8422 9.8393 18.8364C14.9307 18.5501 19.0543 14.0371 17.6712 8.69649C17.6368 8.55904 17.5939 8.40727 17.4392 8.35859C17.3247 8.32136 17.213 8.35286 17.1328 8.43018C17.0727 8.48745 17.0297 8.57049 17.0212 8.67072C16.7405 12.8143 12.6055 14.8417 9.03463 15.0422C8.94013 15.0479 8.88286 15.005 8.86568 14.899C8.7855 14.2948 8.59937 13.6161 8.47337 13.0119C8.43901 12.863 8.37601 12.7857 8.25574 12.7628C8.11829 12.737 8.03524 12.82 7.96652 12.9231C6.95854 14.4151 5.95629 15.9499 4.99412 17.4705C4.90822 17.6108 4.94258 17.7425 5.08003 17.8284Z" fill="white"/>
<path fill-rule="evenodd" clip-rule="evenodd" d="M25.2281 30.1158L21.5914 24.2455C21.4654 24.0393 21.305 23.8675 21.1304 23.73C20.635 23.3406 19.9792 23.2203 19.3807 23.415L18.5703 22.1064L18.304 21.6769L17.969 21.1385L17.5824 20.5171C17.8831 20.2565 18.1694 19.9845 18.4357 19.6981C21.8205 16.0757 22.4963 10.3915 19.753 5.9644C19.3635 5.34014 18.9254 4.76742 18.4414 4.25198C17.6368 3.38145 16.7118 2.67415 15.7153 2.13293C14.5212 1.48576 13.2269 1.07627 11.8953 0.9245C11.4915 0.878683 11.0849 0.855774 10.6754 0.855774C8.70528 0.861501 6.71223 1.43135 4.93108 2.61687C1.73819 4.74451 0 8.32971 0 11.9922C0 14.0454 0.552671 16.1215 1.70097 17.9771C3.97751 21.6511 7.98939 23.4666 11.9096 23.0199C13.0035 22.8967 14.0917 22.5932 15.1312 22.1093L15.5521 22.7879L16.9438 25.0387C16.3739 25.6945 16.2709 26.6853 16.7519 27.467L20.9385 34.2222C21.3108 34.8207 21.935 35.1443 22.5736 35.1443C22.9315 35.1443 23.2952 35.0412 23.6188 34.8264L23.7534 34.7348L25.1938 33.7783C26.0929 33.177 26.3564 31.9342 25.7779 31.0007L25.2281 30.1158ZM3.00389 17.1123C0.349357 12.8313 1.42606 7.17569 5.37207 4.24339C5.50094 4.14889 5.63266 4.05726 5.76725 3.96562C7.65721 2.70851 9.8278 2.26179 11.8953 2.53669C11.9583 2.54529 12.0184 2.55388 12.0786 2.56247C14.3952 2.92328 16.5658 4.19471 18.0606 6.25362C18.1866 6.43116 18.3126 6.61157 18.43 6.80056C18.4386 6.81202 18.4443 6.82061 18.45 6.83206C18.7908 7.38187 19.0686 7.95459 19.2891 8.54162C19.8045 9.91327 19.9906 11.3651 19.8704 12.7826C19.6356 15.6204 18.178 18.3179 15.6867 19.9788C14.504 20.7634 13.2183 21.2301 11.9125 21.4077C11.8151 21.422 11.7206 21.4306 11.6233 21.4392C9.41258 21.6597 7.17899 21.044 5.36348 19.6924C4.45287 19.0137 3.6482 18.1489 3.00389 17.1123Z" fill="white"/>
<path fill-rule="evenodd" clip-rule="evenodd" d="M145.518 4.57562H102.422V29.9355H145.518C147.993 29.9355 150 27.8565 150 25.2908V9.22321C150 6.65458 147.993 4.57562 145.518 4.57562Z" fill="white"/>
<path fill-rule="evenodd" clip-rule="evenodd" d="M109.483 14.3804C109.512 14.5407 109.581 14.6925 109.692 14.8385C109.804 14.9846 109.967 15.1249 110.182 15.2652C110.4 15.4026 110.703 15.5487 111.095 15.7091C111.765 15.984 112.292 16.276 112.685 16.5796C113.074 16.886 113.369 17.221 113.572 17.5818C113.776 17.9455 113.907 18.355 113.97 18.8132C114.036 19.2685 114.068 19.7897 114.068 20.371C114.068 21.0668 114.005 21.6997 113.885 22.2666C113.767 22.8308 113.564 23.3147 113.277 23.7128C112.991 24.1137 112.602 24.4229 112.109 24.6406C111.619 24.8553 111.004 24.9641 110.259 24.9641C109.589 24.9641 109.011 24.8639 108.527 24.6606C108.046 24.4544 107.653 24.1709 107.35 23.813C107.049 23.455 106.829 23.037 106.688 22.5616C106.548 22.0891 106.479 21.5823 106.479 21.0439L109.357 20.4798C109.386 21.0324 109.463 21.4448 109.598 21.7226C109.729 21.9975 109.976 22.1349 110.334 22.1349C110.543 22.1349 110.706 22.0834 110.823 21.9832C110.941 21.8829 111.032 21.7512 111.093 21.5908C111.156 21.4305 111.196 21.2444 111.219 21.0239C111.236 20.8062 111.247 20.5915 111.247 20.3738C111.247 20.0703 111.227 19.8154 111.187 19.6121C111.141 19.4088 111.072 19.237 110.967 19.0909C110.861 18.9449 110.717 18.8189 110.534 18.7101C110.354 18.6013 110.128 18.4896 109.861 18.375C109.148 18.0686 108.573 17.7536 108.137 17.4272C107.705 17.1008 107.373 16.7543 107.141 16.382C106.909 16.0155 106.76 15.6231 106.688 15.2108C106.62 14.7984 106.585 14.3431 106.585 13.8506C106.585 13.2292 106.654 12.6508 106.794 12.121C106.935 11.5941 107.155 11.1416 107.456 10.7637C107.759 10.3885 108.149 10.0907 108.633 9.87022C109.117 9.65545 109.701 9.54663 110.385 9.54663C111.115 9.54663 111.72 9.6669 112.195 9.90458C112.67 10.1451 113.045 10.4515 113.318 10.8181C113.592 11.1903 113.784 11.5998 113.896 12.0494C114.011 12.499 114.068 12.9371 114.068 13.3581L111.247 13.988C111.247 13.7704 111.236 13.5671 111.219 13.381C111.196 13.1891 111.15 13.0202 111.084 12.8655C111.012 12.7137 110.921 12.5935 110.803 12.5076C110.686 12.4217 110.523 12.3787 110.314 12.3787C110.119 12.3787 109.967 12.4245 109.858 12.519C109.747 12.6135 109.661 12.7281 109.598 12.8655C109.535 13.003 109.492 13.1605 109.472 13.3351C109.452 13.5098 109.44 13.6759 109.44 13.8363C109.44 14.0396 109.455 14.22 109.483 14.3804ZM144.679 21.1327C144.679 22.4385 144.367 23.4035 143.734 24.0306C143.107 24.6549 142.174 24.9641 140.942 24.9641C138.46 24.9641 137.22 23.6898 137.22 21.1327V13.3581C137.22 12.0494 137.549 11.0872 138.211 10.4716C138.869 9.85303 139.78 9.54663 140.942 9.54663C142.217 9.54663 143.159 9.85303 143.766 10.4716C144.379 11.0872 144.679 12.0494 144.679 13.3581V21.1327ZM140.942 12.3128C140.702 12.3128 140.499 12.3844 140.333 12.5305C140.164 12.6737 140.081 12.9142 140.081 13.2492V21.2644C140.081 21.6138 140.164 21.8543 140.333 21.9917C140.499 22.1321 140.702 22.2008 140.942 22.2008C141.18 22.2008 141.378 22.1321 141.538 21.9917C141.698 21.8543 141.782 21.6138 141.782 21.2644V13.2492C141.782 12.9142 141.698 12.6737 141.538 12.5305C141.378 12.3844 141.18 12.3128 140.942 12.3128ZM135.33 24.8353H132.475V17.7565H132.389L131.699 20.1075L131.135 21.8743H129.23L128.623 19.9357L127.953 17.6906H127.85V24.8353H124.992V9.67836H127.661L129.11 13.7275L130.098 16.7342H130.224L131.232 13.6616L132.664 9.67836H135.33V24.8353ZM123.12 21.1327C123.12 22.4385 122.807 23.4035 122.175 24.0306C121.547 24.6549 120.614 24.9641 119.383 24.9641C116.9 24.9641 115.66 23.6898 115.66 21.1327V9.6984H118.521V21.1985C118.521 21.5479 118.604 21.7884 118.773 21.9259C118.939 22.0662 119.142 22.1349 119.383 22.1349C119.62 22.1349 119.818 22.0662 119.978 21.9259C120.141 21.7884 120.222 21.5479 120.222 21.1985V9.6984H123.12V21.1327Z" fill="#2A609F"/>
</svg>
