<svg width="130" height="26" viewBox="0 0 130 26" fill="none" xmlns="http://www.w3.org/2000/svg">
<path d="M0.00274563 2.88327C-0.00908566 2.70024 0.0495879 2.51962 0.166724 2.37849C0.228589 2.31324 0.303851 2.26216 0.387336 2.22876C0.470822 2.19537 0.560549 2.18045 0.650348 2.18504H15.2913C15.3849 2.17965 15.4786 2.1941 15.5663 2.22744C15.6539 2.26077 15.7335 2.31225 15.7999 2.37849C15.92 2.52735 15.9812 2.71627 15.9729 2.90821V6.651C15.9689 6.83058 15.9083 7.0043 15.7999 7.14747C15.7396 7.22461 15.6624 7.28677 15.5742 7.32911C15.486 7.37145 15.3892 7.39282 15.2913 7.39155H5.71555V11.1502H13.1006C13.2669 11.1427 13.4309 11.1895 13.5692 11.2847C13.6334 11.3405 13.6833 11.4108 13.7147 11.4898C13.7461 11.5689 13.7581 11.6543 13.7498 11.7389V14.9603C13.749 15.0797 13.7134 15.1962 13.6474 15.2957C13.5813 15.3951 13.4877 15.4732 13.378 15.5202C13.2957 15.555 13.2065 15.5705 13.1173 15.5656H5.73067V19.4436H15.6601C15.7515 19.4303 15.8448 19.4392 15.9321 19.4694C16.0194 19.4996 16.0982 19.5504 16.1618 19.6174C16.227 19.685 16.2756 19.7668 16.3039 19.8563C16.3322 19.9459 16.3395 20.0407 16.3251 20.1335V23.9345C16.324 23.9866 16.3126 24.038 16.2916 24.0858C16.2706 24.1335 16.2403 24.1766 16.2026 24.2126C16.2026 24.4899 15.9646 24.6327 15.6034 24.6327H0.651104C0.477751 24.6433 0.307076 24.5861 0.175037 24.4733C0.11261 24.4093 0.0648628 24.3325 0.0351103 24.2482C0.00535786 24.1639 -0.00568609 24.0741 0.00274563 23.9851V2.88327ZM17.8024 24.2715L18.0404 23.8091C18.1228 23.6579 18.2218 23.4977 18.3276 23.3383L24.9751 13.161L21.6185 7.98022L18.2535 2.8077C18.202 2.73543 18.1555 2.65968 18.1145 2.58101C18.0804 2.50607 18.0582 2.42627 18.0487 2.34448C18.0487 2.26136 18.1228 2.22736 18.221 2.22736C18.3212 2.23226 18.4208 2.20868 18.5082 2.15935H23.6459C23.8288 2.1601 24.0079 2.21527 24.1605 2.31804C24.3139 2.42156 24.4341 2.56816 24.5074 2.74045L28.1262 8.30817L31.7867 2.74876C31.8569 2.58252 31.971 2.44045 32.1154 2.33844C32.2596 2.23621 32.43 2.17722 32.6066 2.16841H37.8259C37.9098 2.17522 37.9922 2.19184 38.0723 2.21829C38.1012 2.22955 38.126 2.24928 38.1436 2.27489C38.1611 2.30051 38.1705 2.33082 38.1705 2.36186C38.1639 2.50629 38.1057 2.64355 38.0065 2.74876L31.2532 13.1618L38.1871 23.7592C38.274 23.8801 38.3481 24.0086 38.4093 24.1461C38.4605 24.2357 38.4859 24.3377 38.4826 24.4408C38.4826 24.5919 38.3919 24.6675 38.2121 24.6675H32.927C32.7614 24.6686 32.6001 24.6155 32.4675 24.5164C32.324 24.4099 32.2109 24.2677 32.1396 24.1038L28.1262 18.0056L24.1545 24.1038C24.0828 24.2675 23.9695 24.4095 23.8258 24.5156C23.6928 24.6154 23.531 24.6683 23.3663 24.6668H18.0653C17.9913 24.6682 17.919 24.6448 17.8598 24.6003C17.8299 24.578 17.8059 24.5487 17.7901 24.515C17.7742 24.4812 17.767 24.444 17.7691 24.4068C17.7672 24.3597 17.7787 24.3123 17.8024 24.2715ZM41.478 2.85002C41.4729 2.67804 41.5313 2.51019 41.642 2.37849C41.7036 2.31268 41.7789 2.26124 41.8627 2.22781C41.9464 2.19438 42.0364 2.17977 42.1264 2.18504H46.9604C47.1085 2.18731 47.2551 2.22509 47.3866 2.29461C47.5468 2.37471 47.6813 2.50015 47.7719 2.65657C49.0195 4.72558 50.2588 6.7636 51.4898 8.77139L55.2326 14.8855V2.75708C55.2691 2.59121 55.3654 2.44459 55.5031 2.34524C55.6164 2.24562 55.7626 2.19174 55.9134 2.19411H60.1232C60.3099 2.19033 60.4928 2.25305 60.6401 2.37018C60.7102 2.42975 60.7654 2.50497 60.8011 2.58976C60.8368 2.67456 60.852 2.76655 60.8457 2.85833V24.0788C60.8532 24.1622 60.8407 24.2462 60.8091 24.3238C60.7776 24.4014 60.7279 24.4703 60.6643 24.5247C60.5242 24.6264 60.3536 24.677 60.1807 24.6683H55.4381C55.3099 24.6705 55.186 24.6219 55.0936 24.533C54.9803 24.4229 54.8786 24.3016 54.7898 24.171L50.8996 17.5854C49.6035 15.3884 48.3043 13.1932 47.0019 10.9998V24.004C47.0151 24.1821 46.9624 24.3588 46.8538 24.5005C46.781 24.5631 46.6962 24.6102 46.6047 24.6391C46.5131 24.6679 46.4166 24.6778 46.3211 24.6683H42.1271C42.0356 24.6789 41.9428 24.6668 41.857 24.6331C41.7712 24.5993 41.695 24.545 41.6352 24.4748C41.5285 24.3484 41.4728 24.1867 41.4788 24.0214L41.478 2.85002ZM109.813 13.4474C109.816 14.4784 109.68 15.5051 109.411 16.5003C109.152 17.4364 108.768 18.3333 108.27 19.167C107.292 20.8245 105.901 22.2005 104.233 23.1615C102.494 24.139 100.532 24.6493 98.5374 24.6426H91.2588C91.0926 24.6441 90.9293 24.604 90.7827 24.5247C90.6429 24.4401 90.5772 24.2723 90.5772 24.0033V2.88327C90.5749 2.78382 90.5926 2.68493 90.6294 2.59249C90.6661 2.50005 90.7211 2.41596 90.791 2.34524C90.8543 2.27437 90.9332 2.21923 91.0215 2.18421C91.1098 2.14918 91.205 2.13524 91.2996 2.14348H98.5789C99.59 2.14121 100.597 2.27421 101.574 2.53869C102.511 2.79259 103.414 3.16816 104.258 3.65707C105.087 4.14135 105.853 4.72612 106.539 5.39812C107.223 6.07141 107.816 6.83539 108.304 7.66888C108.799 8.51867 109.182 9.429 109.444 10.3772C109.707 11.3777 109.831 12.4114 109.813 13.4474ZM96.2976 7.60163V19.2509H98.2011L98.8494 19.2003C99.5669 19.1432 100.268 18.9552 100.918 18.6456C101.532 18.3413 102.087 17.9313 102.559 17.4343C103.043 16.9226 103.425 16.3229 103.683 15.6676C103.961 14.9648 104.1 14.2137 104.094 13.4557C104.102 12.6768 103.952 11.9042 103.654 11.1846C103.355 10.4651 102.914 9.81354 102.356 9.26938C101.821 8.74711 101.187 8.33729 100.491 8.06409C99.7667 7.76878 98.9913 7.62031 98.2094 7.62732L96.2976 7.60163ZM113.67 2.88327C113.659 2.70053 113.717 2.5203 113.834 2.37924C113.896 2.31405 113.972 2.26303 114.055 2.22964C114.139 2.19625 114.229 2.1813 114.319 2.18579H128.967C129.06 2.1793 129.153 2.19327 129.239 2.2267C129.326 2.26014 129.404 2.31221 129.468 2.37924C129.594 2.52592 129.658 2.71526 129.649 2.90821V6.65176C129.647 6.83312 129.583 7.00919 129.468 7.14823C129.406 7.22505 129.326 7.28593 129.236 7.32581C129.147 7.36513 129.049 7.38199 128.951 7.37493H119.382V11.1344H126.768C126.934 11.1268 127.098 11.1736 127.236 11.2696C127.301 11.3248 127.351 11.3949 127.382 11.474C127.414 11.553 127.426 11.6384 127.416 11.723V14.9618C127.416 15.1124 127.357 15.2571 127.253 15.3653C127.196 15.4339 127.124 15.488 127.043 15.5232C126.961 15.5583 126.873 15.5733 126.784 15.5671H119.399V19.4444H129.328C129.42 19.4314 129.513 19.4404 129.6 19.4708C129.687 19.5012 129.766 19.552 129.829 19.6189C129.894 19.6866 129.943 19.7683 129.971 19.8576C129.999 19.9469 130.007 20.0416 129.993 20.1343V23.9353C129.99 24.0405 129.946 24.1403 129.87 24.2134C129.87 24.4907 129.632 24.6343 129.263 24.6343H114.319C114.233 24.6402 114.146 24.6291 114.065 24.6017C113.983 24.5742 113.907 24.5308 113.843 24.4741C113.781 24.4098 113.733 24.3329 113.703 24.2487C113.674 24.1645 113.662 24.0749 113.67 23.9859V2.88327Z" fill="#FEFEFE"/>
<path d="M85.4977 15.7522L80.2126 21.4711C80.0684 21.6251 79.8943 21.748 79.701 21.8325C79.5076 21.9169 79.2991 21.9611 79.0882 21.9623C78.8773 21.961 78.6689 21.9168 78.4758 21.8323C78.2826 21.7479 78.1086 21.625 77.9645 21.4711L72.6794 15.7522C72.5628 15.6224 72.4854 15.4622 72.4564 15.2901C72.4273 15.1181 72.4478 14.9413 72.5154 14.7804C72.5834 14.6195 72.696 14.4827 72.8388 14.386C72.9817 14.29 73.1487 14.2386 73.3194 14.2379H75.9129V0.948792C78.1951 1.02207 80.4047 1.76817 82.2642 3.09336V14.2379H84.866C85.036 14.2401 85.2022 14.2923 85.3435 14.389C85.4848 14.4865 85.5959 14.6233 85.6632 14.7842C85.7293 14.9447 85.7488 15.1206 85.7196 15.2916C85.6903 15.4627 85.6134 15.6221 85.4977 15.7515V15.7522Z" fill="#F2F5F9"/>
<path d="M76.84 8.67011H74.2549V25.0544C71.899 24.7876 69.6818 23.804 67.9028 22.2365V8.67011H65.3509C65.1779 8.67349 65.0079 8.62421 64.8635 8.5288C64.7175 8.43211 64.6034 8.29433 64.5356 8.13284C64.4674 7.97042 64.4477 7.79176 64.4788 7.61839C64.5099 7.44502 64.5905 7.28435 64.7109 7.15576L69.996 1.43691C70.1411 1.28124 70.3157 1.15732 70.5091 1.07419C70.8001 0.946555 71.1236 0.9129 71.4346 0.977921C71.7457 1.04294 72.0286 1.2034 72.2441 1.43691L77.5292 7.15576C77.6502 7.28808 77.7295 7.45318 77.757 7.63036C77.7846 7.80754 77.7592 7.98891 77.6841 8.15173C77.6108 8.31363 77.4908 8.44994 77.3395 8.54316C77.1892 8.63611 77.0154 8.67918 76.84 8.67011Z" fill="#5493E3"/>
</svg>
