<svg width="132" height="44" viewBox="0 0 132 44" fill="none" xmlns="http://www.w3.org/2000/svg">
<path d="M11 21C11 22.3807 9.88071 23.5 8.5 23.5C7.11929 23.5 6 22.3807 6 21C6 19.6193 7.11929 18.5 8.5 18.5C9.88071 18.5 11 19.6193 11 21Z" fill="#91D155"/>
<path d="M5 26C5 27.3807 3.88071 28.5 2.5 28.5C1.11929 28.5 0 27.3807 0 26C0 24.6193 1.11929 23.5 2.5 23.5C3.88071 23.5 5 24.6193 5 26Z" fill="#89CC50"/>
<path d="M28.3334 11.8851L23.1636 8.58449C22.7074 8.31203 22.6573 7.66803 23.0659 7.32772L27.2715 3.82441C27.7635 3.41452 27.566 2.6336 26.9299 2.57028C26.4592 2.52343 25.9791 2.5 25.4896 2.5C23.6372 2.5 21.9482 2.78988 20.4227 3.36964C18.8971 3.9494 17.5714 4.78281 16.4454 5.86987C15.3557 6.95692 14.5021 8.24327 13.8846 9.72891C13.3035 11.2146 13.0129 12.8632 13.0129 14.675C13.0129 16.4505 13.3035 18.0811 13.8846 19.5667C14.4714 20.9784 14.398 22.6517 13.2889 23.7037L0.262001 36.0595C-0.286704 36.5799 0.0843468 37.5062 0.839013 37.5L6 37.4199C7.13821 37.3699 7.5 37.1442 8 36.6442L13.1805 31.9255C14.7379 30.5069 17.0406 30.2754 18.8493 31.3556C19.3055 31.6281 19.3556 32.2721 18.947 32.6124L15.083 36.302C14.4646 36.8172 15.5443 37.4299 16.3492 37.4391C16.4071 37.4398 16.4651 37.4401 16.5233 37.4401C18.3757 37.4401 20.0647 37.1502 21.5902 36.5705C23.1158 35.9907 24.4415 35.1573 25.5675 34.0703C26.6572 32.9832 27.5108 31.6969 28.1283 30.2112C28.7094 28.7256 29 27.0769 29 25.2651C29 23.4896 28.7094 21.859 28.1283 20.3734C27.6104 19.1275 26.5712 17.6852 25.6066 16.5897C25.3172 16.261 25.3336 15.7557 25.659 15.463L28.4088 13.2386C28.8515 12.8804 28.8132 12.1914 28.3334 11.8851Z" fill="url(#paint0_linear_5_3964)"/>
<path opacity="0.2" d="M23.9767 9.10355L28.3334 11.885C28.8132 12.1913 28.8515 12.8804 28.4088 13.2386L25.659 15.463L25.5114 15.6427L24.8664 16.4277C23.7997 17.7258 22.1649 18.419 20.4903 18.2831C18.3854 18.1124 16.6006 16.6686 15.9938 14.6459L15.9649 14.5497C15.6628 13.5426 15.6884 12.4657 16.038 11.4741C16.8724 9.10754 19.3424 7.73653 21.7922 8.28014L22.2219 8.37549C22.8449 8.51373 23.4388 8.76015 23.9767 9.10355Z" fill="#FEFEFE"/>
<path d="M24 13C24 14.3807 22.8807 15.5 21.5 15.5C20.1193 15.5 19 14.3807 19 13C19 11.6193 20.1193 10.5 21.5 10.5C22.8807 10.5 24 11.6193 24 13Z" fill="#FEFEFE"/>
<path d="M23 13C23 13.8284 22.3284 14.5 21.5 14.5C20.6716 14.5 20 13.8284 20 13C20 12.1716 20.6716 11.5 21.5 11.5C22.3284 11.5 23 12.1716 23 13Z" fill="#121620"/>
<path d="M21.5 12.25C21.5 12.6642 21.1642 13 20.75 13C20.3358 13 20 12.6642 20 12.25C20 11.8358 20.3358 11.5 20.75 11.5C21.1642 11.5 21.5 11.8358 21.5 12.25Z" fill="#FEFEFE"/>
<path d="M23 14C23 14.2761 22.7761 14.5 22.5 14.5C22.2239 14.5 22 14.2761 22 14C22 13.7239 22.2239 13.5 22.5 13.5C22.7761 13.5 23 13.7239 23 14Z" fill="#FEFEFE"/>
<circle cx="16.5" cy="31" r="6.5" fill="url(#paint1_linear_5_3964)"/>
<path d="M44.8 23.848C43.584 23.848 42.408 23.696 41.272 23.392C40.152 23.104 39.216 22.664 38.464 22.072L39.952 19.384C40.496 19.832 41.184 20.184 42.016 20.44C42.864 20.712 43.696 20.848 44.512 20.848C45.84 20.848 46.8 20.552 47.392 19.96C48 19.368 48.304 18.488 48.304 17.32V15.376L48.544 12.136L48.496 8.872V6.088H52.048V16.84C52.048 19.24 51.424 21.008 50.176 22.144C48.928 23.28 47.136 23.848 44.8 23.848ZM44.224 18.376C43.024 18.376 41.936 18.12 40.96 17.608C40 17.08 39.224 16.352 38.632 15.424C38.056 14.48 37.768 13.384 37.768 12.136C37.768 10.872 38.056 9.776 38.632 8.848C39.224 7.904 40 7.176 40.96 6.664C41.936 6.152 43.024 5.896 44.224 5.896C45.312 5.896 46.272 6.12 47.104 6.568C47.936 7 48.584 7.68 49.048 8.608C49.512 9.52 49.744 10.696 49.744 12.136C49.744 13.56 49.512 14.736 49.048 15.664C48.584 16.576 47.936 17.256 47.104 17.704C46.272 18.152 45.312 18.376 44.224 18.376ZM44.968 15.304C45.624 15.304 46.208 15.176 46.72 14.92C47.232 14.648 47.632 14.272 47.92 13.792C48.208 13.312 48.352 12.76 48.352 12.136C48.352 11.496 48.208 10.944 47.92 10.48C47.632 10 47.232 9.632 46.72 9.376C46.208 9.104 45.624 8.968 44.968 8.968C44.312 8.968 43.728 9.104 43.216 9.376C42.704 9.632 42.296 10 41.992 10.48C41.704 10.944 41.56 11.496 41.56 12.136C41.56 12.76 41.704 13.312 41.992 13.792C42.296 14.272 42.704 14.648 43.216 14.92C43.728 15.176 44.312 15.304 44.968 15.304ZM61.9407 19.192C60.4687 19.192 59.1727 18.904 58.0527 18.328C56.9487 17.752 56.0927 16.968 55.4847 15.976C54.8767 14.968 54.5727 13.824 54.5727 12.544C54.5727 11.248 54.8687 10.104 55.4607 9.112C56.0687 8.104 56.8927 7.32 57.9327 6.76C58.9727 6.184 60.1487 5.896 61.4607 5.896C62.7247 5.896 63.8607 6.168 64.8687 6.712C65.8927 7.24 66.7007 8.008 67.2927 9.016C67.8847 10.008 68.1807 11.2 68.1807 12.592C68.1807 12.736 68.1727 12.904 68.1567 13.096C68.1407 13.272 68.1247 13.44 68.1087 13.6H57.6207V11.416H66.1407L64.7007 12.064C64.7007 11.392 64.5647 10.808 64.2927 10.312C64.0207 9.816 63.6447 9.432 63.1647 9.16C62.6847 8.872 62.1247 8.728 61.4847 8.728C60.8447 8.728 60.2767 8.872 59.7807 9.16C59.3007 9.432 58.9247 9.824 58.6527 10.336C58.3807 10.832 58.2447 11.424 58.2447 12.112V12.688C58.2447 13.392 58.3967 14.016 58.7007 14.56C59.0207 15.088 59.4607 15.496 60.0207 15.784C60.5967 16.056 61.2687 16.192 62.0367 16.192C62.7247 16.192 63.3247 16.088 63.8367 15.88C64.3647 15.672 64.8447 15.36 65.2767 14.944L67.2687 17.104C66.6767 17.776 65.9327 18.296 65.0367 18.664C64.1407 19.016 63.1087 19.192 61.9407 19.192ZM77.0813 19.192C75.6093 19.192 74.3133 18.904 73.1933 18.328C72.0893 17.752 71.2333 16.968 70.6253 15.976C70.0173 14.968 69.7133 13.824 69.7133 12.544C69.7133 11.248 70.0093 10.104 70.6013 9.112C71.2093 8.104 72.0333 7.32 73.0733 6.76C74.1133 6.184 75.2893 5.896 76.6013 5.896C77.8653 5.896 79.0013 6.168 80.0093 6.712C81.0333 7.24 81.8413 8.008 82.4333 9.016C83.0253 10.008 83.3213 11.2 83.3213 12.592C83.3213 12.736 83.3133 12.904 83.2973 13.096C83.2813 13.272 83.2653 13.44 83.2493 13.6H72.7613V11.416H81.2813L79.8413 12.064C79.8413 11.392 79.7053 10.808 79.4333 10.312C79.1613 9.816 78.7853 9.432 78.3053 9.16C77.8253 8.872 77.2653 8.728 76.6253 8.728C75.9853 8.728 75.4173 8.872 74.9213 9.16C74.4413 9.432 74.0653 9.824 73.7933 10.336C73.5213 10.832 73.3853 11.424 73.3853 12.112V12.688C73.3853 13.392 73.5373 14.016 73.8413 14.56C74.1613 15.088 74.6013 15.496 75.1613 15.784C75.7373 16.056 76.4093 16.192 77.1773 16.192C77.8653 16.192 78.4653 16.088 78.9773 15.88C79.5053 15.672 79.9853 15.36 80.4173 14.944L82.4093 17.104C81.8173 17.776 81.0733 18.296 80.1773 18.664C79.2813 19.016 78.2493 19.192 77.0813 19.192ZM88.9099 16.36L89.0059 11.8L95.0299 6.088H99.4939L93.7099 11.968L91.7659 13.552L88.9099 16.36ZM85.8139 19V1.192H89.5579V19H85.8139ZM95.4379 19L91.0699 13.576L93.4219 10.672L99.9739 19H95.4379ZM44.968 39.192C43.576 39.192 42.336 38.912 41.248 38.352C40.16 37.776 39.304 36.984 38.68 35.976C38.072 34.968 37.768 33.824 37.768 32.544C37.768 31.248 38.072 30.104 38.68 29.112C39.304 28.104 40.16 27.32 41.248 26.76C42.336 26.184 43.576 25.896 44.968 25.896C46.328 25.896 47.512 26.184 48.52 26.76C49.528 27.32 50.272 28.128 50.752 29.184L47.848 30.744C47.512 30.136 47.088 29.688 46.576 29.4C46.08 29.112 45.536 28.968 44.944 28.968C44.304 28.968 43.728 29.112 43.216 29.4C42.704 29.688 42.296 30.096 41.992 30.624C41.704 31.152 41.56 31.792 41.56 32.544C41.56 33.296 41.704 33.936 41.992 34.464C42.296 34.992 42.704 35.4 43.216 35.688C43.728 35.976 44.304 36.12 44.944 36.12C45.536 36.12 46.08 35.984 46.576 35.712C47.088 35.424 47.512 34.968 47.848 34.344L50.752 35.928C50.272 36.968 49.528 37.776 48.52 38.352C47.512 38.912 46.328 39.192 44.968 39.192ZM60.6854 25.896C61.7094 25.896 62.6214 26.104 63.4214 26.52C64.2374 26.92 64.8774 27.544 65.3414 28.392C65.8054 29.224 66.0374 30.296 66.0374 31.608V39H62.2934V32.184C62.2934 31.144 62.0614 30.376 61.5974 29.88C61.1494 29.384 60.5094 29.136 59.6774 29.136C59.0854 29.136 58.5494 29.264 58.0694 29.52C57.6054 29.76 57.2374 30.136 56.9654 30.648C56.7094 31.16 56.5814 31.816 56.5814 32.616V39H52.8374V21.192H56.5814V29.664L55.7414 28.584C56.2054 27.72 56.8694 27.056 57.7334 26.592C58.5974 26.128 59.5814 25.896 60.6854 25.896ZM77.3511 39V36.48L77.1111 35.928V31.416C77.1111 30.616 76.8631 29.992 76.3671 29.544C75.8871 29.096 75.1431 28.872 74.1351 28.872C73.4471 28.872 72.7671 28.984 72.0951 29.208C71.4391 29.416 70.8791 29.704 70.4151 30.072L69.0711 27.456C69.7751 26.96 70.6231 26.576 71.6151 26.304C72.6071 26.032 73.6151 25.896 74.6391 25.896C76.6071 25.896 78.1351 26.36 79.2231 27.288C80.3111 28.216 80.8551 29.664 80.8551 31.632V39H77.3511ZM73.4151 39.192C72.4071 39.192 71.5431 39.024 70.8231 38.688C70.1031 38.336 69.5511 37.864 69.1671 37.272C68.7831 36.68 68.5911 36.016 68.5911 35.28C68.5911 34.512 68.7751 33.84 69.1431 33.264C69.5271 32.688 70.1271 32.24 70.9431 31.92C71.7591 31.584 72.8231 31.416 74.1351 31.416H77.5671V33.6H74.5431C73.6631 33.6 73.0551 33.744 72.7191 34.032C72.3991 34.32 72.2391 34.68 72.2391 35.112C72.2391 35.592 72.4231 35.976 72.7911 36.264C73.1751 36.536 73.6951 36.672 74.3511 36.672C74.9751 36.672 75.5351 36.528 76.0311 36.24C76.5271 35.936 76.8871 35.496 77.1111 34.92L77.6871 36.648C77.4151 37.48 76.9191 38.112 76.1991 38.544C75.4791 38.976 74.5511 39.192 73.4151 39.192ZM92.0916 25.896C93.1156 25.896 94.0276 26.104 94.8276 26.52C95.6436 26.92 96.2836 27.544 96.7476 28.392C97.2116 29.224 97.4436 30.296 97.4436 31.608V39H93.6996V32.184C93.6996 31.144 93.4676 30.376 93.0036 29.88C92.5556 29.384 91.9156 29.136 91.0836 29.136C90.4916 29.136 89.9556 29.264 89.4756 29.52C89.0116 29.76 88.6436 30.136 88.3716 30.648C88.1156 31.16 87.9876 31.816 87.9876 32.616V39H84.2436V26.088H87.8196V29.664L87.1476 28.584C87.6116 27.72 88.2756 27.056 89.1396 26.592C90.0036 26.128 90.9876 25.896 92.0916 25.896ZM107.003 43.848C105.787 43.848 104.611 43.696 103.475 43.392C102.355 43.104 101.419 42.664 100.667 42.072L102.155 39.384C102.699 39.832 103.387 40.184 104.219 40.44C105.067 40.712 105.899 40.848 106.715 40.848C108.043 40.848 109.003 40.552 109.595 39.96C110.203 39.368 110.507 38.488 110.507 37.32V35.376L110.747 32.136L110.699 28.872V26.088H114.251V36.84C114.251 39.24 113.627 41.008 112.379 42.144C111.131 43.28 109.339 43.848 107.003 43.848ZM106.427 38.376C105.227 38.376 104.139 38.12 103.163 37.608C102.203 37.08 101.427 36.352 100.835 35.424C100.259 34.48 99.9711 33.384 99.9711 32.136C99.9711 30.872 100.259 29.776 100.835 28.848C101.427 27.904 102.203 27.176 103.163 26.664C104.139 26.152 105.227 25.896 106.427 25.896C107.515 25.896 108.475 26.12 109.307 26.568C110.139 27 110.787 27.68 111.251 28.608C111.715 29.52 111.947 30.696 111.947 32.136C111.947 33.56 111.715 34.736 111.251 35.664C110.787 36.576 110.139 37.256 109.307 37.704C108.475 38.152 107.515 38.376 106.427 38.376ZM107.171 35.304C107.827 35.304 108.411 35.176 108.923 34.92C109.435 34.648 109.835 34.272 110.123 33.792C110.411 33.312 110.555 32.76 110.555 32.136C110.555 31.496 110.411 30.944 110.123 30.48C109.835 30 109.435 29.632 108.923 29.376C108.411 29.104 107.827 28.968 107.171 28.968C106.515 28.968 105.931 29.104 105.419 29.376C104.907 29.632 104.499 30 104.195 30.48C103.907 30.944 103.763 31.496 103.763 32.136C103.763 32.76 103.907 33.312 104.195 33.792C104.499 34.272 104.907 34.648 105.419 34.92C105.931 35.176 106.515 35.304 107.171 35.304ZM124.144 39.192C122.672 39.192 121.376 38.904 120.256 38.328C119.152 37.752 118.296 36.968 117.688 35.976C117.08 34.968 116.776 33.824 116.776 32.544C116.776 31.248 117.072 30.104 117.664 29.112C118.272 28.104 119.096 27.32 120.136 26.76C121.176 26.184 122.352 25.896 123.664 25.896C124.928 25.896 126.064 26.168 127.072 26.712C128.096 27.24 128.904 28.008 129.496 29.016C130.088 30.008 130.384 31.2 130.384 32.592C130.384 32.736 130.376 32.904 130.36 33.096C130.344 33.272 130.328 33.44 130.312 33.6H119.824V31.416H128.344L126.904 32.064C126.904 31.392 126.768 30.808 126.496 30.312C126.224 29.816 125.848 29.432 125.368 29.16C124.888 28.872 124.328 28.728 123.688 28.728C123.048 28.728 122.48 28.872 121.984 29.16C121.504 29.432 121.128 29.824 120.856 30.336C120.584 30.832 120.448 31.424 120.448 32.112V32.688C120.448 33.392 120.6 34.016 120.904 34.56C121.224 35.088 121.664 35.496 122.224 35.784C122.8 36.056 123.472 36.192 124.24 36.192C124.928 36.192 125.528 36.088 126.04 35.88C126.568 35.672 127.048 35.36 127.48 34.944L129.472 37.104C128.88 37.776 128.136 38.296 127.24 38.664C126.344 39.016 125.312 39.192 124.144 39.192Z" fill="#121620"/>
<defs>
<linearGradient id="paint0_linear_5_3964" x1="21" y1="12.5" x2="4" y2="37.5" gradientUnits="userSpaceOnUse">
<stop stop-color="#9DD95D"/>
<stop offset="1" stop-color="#58AC30"/>
</linearGradient>
<linearGradient id="paint1_linear_5_3964" x1="16.5" y1="24.5" x2="16.5" y2="37.5" gradientUnits="userSpaceOnUse">
<stop stop-color="#FEFEFE" stop-opacity="0"/>
<stop offset="1" stop-color="#FEFEFE" stop-opacity="0.3"/>
</linearGradient>
</defs>
</svg>
