<svg width="70" height="70" viewBox="0 0 70 70" fill="none" xmlns="http://www.w3.org/2000/svg">
<g clip-path="url(#clip0_293_37518)">
<path d="M1.64008 11.3471H1.50391C0.67334 11.3471 0 10.6738 0 9.8432V1.50391C0 0.67334 0.67334 0 1.50391 0H9.8432C10.6738 0 11.3471 0.67334 11.3471 1.50391V1.64008C11.3471 6.99262 6.99262 11.3471 1.64008 11.3471ZM3.00781 3.00781V8.19902C5.60656 7.65789 7.65789 5.60656 8.19902 3.00781H3.00781Z" fill="#60CC80"/>
<path d="M9.8432 32.1951H1.50391C0.67334 32.1951 0 31.5218 0 30.6912V22.3521C0 21.5215 0.67334 20.8481 1.50391 20.8481H1.64008C6.99248 20.8481 11.3471 25.2028 11.3471 30.5552V30.6913C11.3471 31.5219 10.6738 32.1951 9.8432 32.1951ZM3.00781 29.1873H8.19902C7.65789 26.5886 5.60656 24.5374 3.00781 23.9962V29.1873Z" fill="#60CC80"/>
<path d="M51.5397 11.3471H51.4035C46.0511 11.3471 41.6965 6.99248 41.6965 1.64008V1.50391C41.6965 0.67334 42.3698 0 43.2004 0H51.5397C52.3702 0 53.0436 0.67334 53.0436 1.50391V9.8432C53.0436 10.6738 52.3702 11.3471 51.5397 11.3471ZM44.8446 3.00781C45.3857 5.60656 47.437 7.65789 50.0358 8.19902V3.00781H44.8446Z" fill="#60CC80"/>
<path d="M51.5397 32.1953H43.2004C42.3698 32.1953 41.6965 31.5219 41.6965 30.6913V30.5552C41.6965 25.2028 46.0511 20.8481 51.4035 20.8481H51.5397C52.3702 20.8481 53.0436 21.5215 53.0436 22.3521V30.6913C53.0436 31.522 52.3702 32.1953 51.5397 32.1953ZM44.8446 29.1874H50.0358V23.9964C47.437 24.5375 45.3857 26.5888 44.8446 29.1874Z" fill="#60CC80"/>
<path d="M26.5217 23.8561C22.2438 23.8561 18.7633 20.3757 18.7633 16.0977C18.7633 11.8198 22.2438 8.33936 26.5217 8.33936C30.7996 8.33936 34.2801 11.8198 34.2801 16.0977C34.2801 20.3757 30.7996 23.8561 26.5217 23.8561ZM26.5217 11.3472C23.9023 11.3472 21.7711 13.4782 21.7711 16.0977C21.7711 18.7173 23.9023 20.8483 26.5217 20.8483C29.1411 20.8483 31.2722 18.7173 31.2722 16.0977C31.2722 13.4783 29.1411 11.3472 26.5217 11.3472Z" fill="#60CC80"/>
<path d="M61.5467 56.1013H54.5973C53.7667 56.1013 53.0934 55.4279 53.0934 54.5974V47.6479C53.0934 46.8174 53.7667 46.144 54.5973 46.144C55.4279 46.144 56.1012 46.8174 56.1012 47.6479V53.0935H61.5467C62.3773 53.0935 63.0506 53.7668 63.0506 54.5974C63.0506 55.4279 62.3773 56.1013 61.5467 56.1013Z" fill="#60CC80"/>
<path d="M54.5973 39.1947C54.0729 39.1947 53.5547 39.2212 53.0436 39.2726V39.0306V30.6913V1.50391C53.0436 0.67334 52.3703 0 51.5397 0H1.50391C0.67334 0 0 0.67334 0 1.50391V30.6913V39.0306V47.3699C0 48.2005 0.67334 48.8738 1.50391 48.8738H40.298C39.5868 50.6442 39.1947 52.5756 39.1947 54.5973C39.1947 63.0904 46.1043 70 54.5973 70C63.0904 70 70 63.0904 70 54.5973C70 46.1042 63.0904 39.1947 54.5973 39.1947ZM3.00781 32.1952H50.0358V37.5267H3.00781V32.1952ZM3.00781 3.00781H50.0358V29.1874H3.00781V3.00781ZM3.00781 45.866V40.5345H48.3164C45.7261 41.6959 43.5133 43.5529 41.9159 45.866H3.00781ZM54.5973 66.9922C47.7628 66.9922 42.2025 61.4318 42.2025 54.5973C42.2025 47.7627 47.7628 42.2023 54.5973 42.2023C61.4318 42.2023 66.9922 47.7627 66.9922 54.5973C66.9922 61.4318 61.4318 66.9922 54.5973 66.9922Z" fill="#121620"/>
</g>
<defs>
<clipPath id="clip0_293_37518">
<rect width="70" height="70" fill="white"/>
</clipPath>
</defs>
</svg>
