<svg width="144" height="30" viewBox="0 0 144 30" fill="none" xmlns="http://www.w3.org/2000/svg">
<path fill-rule="evenodd" clip-rule="evenodd" d="M3.49425 30H58.6207V0H3.49425C1.56322 0 0 1.56322 0 3.49425V26.5057C0 28.4368 1.56322 30 3.49425 30ZM17.4368 20.9195C17.7471 20.2414 17.908 19.3333 17.908 18.1954C17.908 17.1264 17.7586 16.2874 17.4598 15.6782C17.1494 15.0805 16.7586 14.6667 16.2759 14.4368C17.0115 13.8966 17.3908 12.8736 17.4138 11.3678C17.4253 10.8506 17.3793 10.3103 17.2644 9.77011C17.1494 9.22989 16.9425 8.73563 16.6322 8.28736C16.3218 7.83908 15.908 7.48276 15.3793 7.2069C14.8506 6.93103 14.1839 6.7931 13.3563 6.7931H6.94253V23.3333H12.7701C13.3563 23.3333 13.954 23.2759 14.5632 23.1609C15.1724 23.046 15.7241 22.8161 16.2184 22.4598C16.7126 22.1149 17.1264 21.5977 17.4368 20.9195ZM14.1379 10.2644C14.2644 10.5172 14.3218 10.908 14.3218 11.4253C14.3218 11.954 14.2299 12.3908 14.0575 12.7126C13.8851 13.023 13.5747 13.1839 13.1034 13.1839H10.0805V9.88506H13.4023C13.7701 9.88506 14.0115 10.0115 14.1379 10.2644ZM14.6437 17.1264C14.7241 17.3908 14.7586 17.7586 14.7586 18.2184C14.7586 18.8851 14.6552 19.3563 14.4368 19.6552C14.2299 19.9425 13.8391 20.092 13.2874 20.092H10.0805V16.1264H13.5517C13.6897 16.1264 13.8276 16.1494 13.9655 16.1954C14.1149 16.2414 14.2414 16.3448 14.3563 16.4943C14.4713 16.6437 14.5747 16.8621 14.6437 17.1264ZM19.977 23.3333H30.4828V20.1034H23.1034V16.2529H29.7241V13.046H23.1034V10H30.2989V6.7931H19.977V23.3333ZM37.023 23.6782C40.7701 23.6782 42.6437 21.931 42.6437 18.4483C42.6437 17.5747 42.5632 16.8391 42.3678 16.2529C42.1954 15.6667 41.9425 15.1839 41.6322 14.8046C41.3218 14.4253 40.954 14.1379 40.5402 13.9195C40.1264 13.7011 39.6782 13.5287 39.1954 13.4023C38.7126 13.2759 38.2184 13.1609 37.7011 13.069C37.1839 12.977 36.6782 12.8621 36.1724 12.7241C35.6897 12.5977 35.3563 12.4483 35.1839 12.2759C35.0115 12.1034 34.9195 11.8161 34.9195 11.4138C34.9195 11.0805 34.954 10.7816 35.0115 10.5402C35.069 10.2989 35.1839 10.092 35.3448 9.94253C35.5057 9.7931 35.7241 9.67816 36.0115 9.5977C36.2989 9.51724 36.6667 9.48276 37.1034 9.48276C37.6667 9.48276 38.0805 9.57471 38.3448 9.74713C38.6092 9.91954 38.7816 10.1149 38.8851 10.3333C39 10.5747 39.0805 10.8736 39.1035 11.2069C39.1379 11.5402 39.1724 11.8506 39.2184 12.1264H42.2069C42.2069 11.4713 42.1379 10.8046 42.0115 10.1264C41.8851 9.45977 41.6322 8.85057 41.2529 8.31034C40.8736 7.78161 40.3563 7.33333 39.6782 7C39.0115 6.66667 38.1264 6.49425 37.046 6.49425C36.7356 6.49425 36.3793 6.51724 36 6.55172C35.6207 6.58621 35.2414 6.66667 34.8621 6.78161C34.4828 6.89655 34.1149 7.05747 33.7471 7.27586C33.3908 7.49425 33.069 7.77011 32.7931 8.11494C32.5172 8.45977 32.2874 8.88506 32.1264 9.37931C31.954 9.87356 31.8736 10.4598 31.8736 11.1379C31.8736 12.0575 31.9655 12.8046 32.1494 13.3678C32.3333 13.931 32.5862 14.3908 32.9195 14.7471C33.2529 15.1034 33.6437 15.3678 34.0805 15.5632C34.5172 15.7586 35 15.931 35.5172 16.0805C36.1839 16.2644 36.7816 16.3908 37.2989 16.4713C37.8161 16.5517 38.2644 16.6552 38.6322 16.7931C38.954 16.9195 39.1954 17.0805 39.3448 17.2874C39.4943 17.4943 39.5747 17.8391 39.5747 18.3103C39.5747 19.2069 39.3793 19.8276 39 20.1379C38.6207 20.4483 38.0115 20.6092 37.1609 20.6092C36.6437 20.6092 36.2184 20.5287 35.8851 20.3678C35.5517 20.2069 35.2874 19.9885 35.0805 19.7011C34.8736 19.4138 34.7241 19.0805 34.6437 18.6782C34.5632 18.2874 34.5057 17.8391 34.4828 17.3678H31.4368C31.4368 19.5172 31.908 21.1034 32.8621 22.1379C33.8161 23.1609 35.2069 23.6782 37.023 23.6782ZM50.2759 9.98851H54.046V6.7931H43.3563V9.98851H47.1379V23.3333H50.2759V9.98851Z" fill="#AEB6C9"/>
<path fill-rule="evenodd" clip-rule="evenodd" d="M58.6207 30H140.184C142.115 30 143.678 28.4368 143.678 26.5172V3.49425C143.678 1.56322 142.115 0 140.184 0H58.6207V30ZM73.885 19.7126C74.1149 18.931 74.2643 18.1149 74.3333 17.2529V17.2414H71.2988C71.1954 17.7356 71.1034 18.1724 71 18.5632C70.908 18.954 70.7701 19.2873 70.5977 19.5747C70.4253 19.8621 70.1954 20.0805 69.8965 20.2299C69.5977 20.3793 69.2069 20.4598 68.7011 20.4598C68.2069 20.4598 67.7701 20.3908 67.3678 20.2529C66.9655 20.1149 66.6322 19.8621 66.3563 19.4828C66.0804 19.1149 65.862 18.5862 65.7126 17.9195C65.5632 17.2414 65.4827 16.3793 65.4827 15.2988C65.4827 14.2299 65.5287 13.3333 65.6436 12.6092C65.7586 11.8851 65.9425 11.2988 66.1954 10.8506C66.4482 10.4023 66.7931 10.0805 67.2069 9.88505C67.6207 9.68965 68.1379 9.5862 68.7471 9.5862C69.2528 9.5862 69.6551 9.65517 69.954 9.80459C70.2528 9.95402 70.4942 10.1494 70.6666 10.3908C70.839 10.6322 70.977 10.931 71.0574 11.2644C71.1494 11.5977 71.2299 11.954 71.2988 12.3218H74.2643C74.1839 11.6207 74.0574 10.908 73.8735 10.2069C73.6896 9.50574 73.3908 8.87356 72.977 8.32183C72.5517 7.77011 72 7.32183 71.2988 6.97701C70.5977 6.63218 69.7011 6.45976 68.5977 6.45976C67.5057 6.45976 66.5632 6.65517 65.7701 7.04597C64.9885 7.43678 64.3333 7.99999 63.8161 8.72413C63.2988 9.45976 62.9195 10.3448 62.6781 11.3793C62.4367 12.4138 62.3103 13.5862 62.3103 14.8736C62.3103 16.2759 62.4253 17.5172 62.6551 18.6092C62.8735 19.7011 63.2413 20.6207 63.7356 21.3678C64.2413 22.1034 64.885 22.6782 65.6896 23.069C66.4942 23.4598 67.4712 23.6552 68.6207 23.6552C69.6207 23.6552 70.4712 23.4828 71.1724 23.1379C71.8735 22.7931 72.4482 22.3333 72.885 21.7471C73.3218 21.1724 73.6551 20.4942 73.885 19.7126ZM83.7931 23.3333H86.9195V6.7931H83.7931V12.9655H79.0804V6.7931H75.954V23.3333H79.0804V16.1954H83.7931V23.3333ZM96.8276 23.3333H100.103L95.4253 6.7931H92.3218L87.7931 23.3333H90.954L91.8046 19.9195H95.9655L96.8276 23.3333ZM93.8965 11.5172L95.1839 16.8391H92.5747L93.8965 11.5172ZM104.506 13.2644L109.287 23.3333H112.368V6.7931H109.264V16.7931L104.448 6.7931H101.379V23.3333H104.506V13.2644ZM123.931 23.3333H126.471H126.494V14.2759H120.402V17.3218H123.345C123.356 17.8621 123.299 18.3218 123.161 18.7011C123.023 19.0805 122.828 19.4023 122.586 19.6437C122.345 19.885 122.057 20.069 121.724 20.1839C121.391 20.2988 121.046 20.3563 120.678 20.3563C120.034 20.3563 119.506 20.2529 119.092 20.046C118.678 19.8391 118.345 19.5172 118.092 19.069C117.839 18.6322 117.667 18.046 117.563 17.3218C117.46 16.5977 117.414 15.7241 117.414 14.7126C117.414 13.7931 117.471 13 117.586 12.3448C117.701 11.6896 117.885 11.1494 118.138 10.7356C118.391 10.3218 118.713 10.023 119.115 9.82758C119.506 9.63218 120 9.54022 120.575 9.54022C121.149 9.54022 121.598 9.63218 121.931 9.80459C122.264 9.97701 122.517 10.2069 122.678 10.4828C122.839 10.7586 122.942 11.069 122.988 11.4253C123.034 11.7816 123.057 12.1264 123.057 12.4598H126.253C126.253 11.7011 126.149 10.954 125.954 10.2299C125.759 9.51724 125.437 8.87356 124.988 8.31034C124.54 7.75862 123.954 7.29884 123.23 6.96551C122.506 6.63218 121.632 6.45976 120.586 6.45976C116.368 6.45976 114.264 9.26436 114.264 14.8736C114.264 16.1034 114.368 17.2529 114.563 18.3218C114.759 19.3908 115.092 20.3218 115.563 21.1034C116.034 21.8851 116.655 22.4942 117.425 22.9425C118.195 23.3908 119.161 23.6092 120.31 23.6092C120.644 23.6092 120.988 23.5862 121.333 23.5287C121.678 23.4713 122.023 23.3793 122.345 23.2299C122.667 23.0805 122.965 22.885 123.241 22.6322C123.517 22.3793 123.747 22.0575 123.931 21.6552V23.3333ZM128.437 23.3333H138.92V20.1034H131.563V16.2529H138.161V13.046H131.563V9.99999H138.736V6.7931H128.437V23.3333Z" fill="#CED3DE"/>
</svg>
