<svg width="1036" height="523" viewBox="0 0 1036 523" fill="none" xmlns="http://www.w3.org/2000/svg">
<g clip-path="url(#clip0_167_37617)">
<path d="M273.04 634.512L527.4 341.622L227.69 601.633C242.11 613.5 257.25 624.48 273.04 634.512ZM362.58 678.33L527.4 341.632L313.63 657.502C329.45 665.393 345.8 672.325 362.58 678.33ZM513.53 704.551C525.46 704.551 537.24 703.94 548.94 703.022L527.39 341.632L498.75 704.174C503.67 704.337 508.57 704.551 513.52 704.551H513.53ZM455.6 700.687L527.39 341.632L405.25 691.247C421.7 695.335 438.5 698.475 455.6 700.687ZM123.07 479.376L527.41 341.622L94.54 422.58C102.79 442.246 112.33 461.219 123.06 479.376H123.07ZM191.22 568.296L527.41 341.622L152.44 523.102C164.44 538.986 177.34 554.125 191.22 568.296ZM931.23 425.536L527.41 341.622L904.49 478.54C914.48 461.555 923.4 443.847 931.23 425.536ZM640.35 686.17L527.41 341.622L591.48 697.639C608.1 694.713 624.4 690.88 640.36 686.17H640.35ZM877.31 519.636L527.4 341.612L841.33 562.434C854.13 548.915 866.18 534.653 877.3 519.636H877.31ZM807.69 594.609L527.4 341.612L765.57 626.958C780.24 617.007 794.28 606.18 807.69 594.609ZM76.07 369.597L527.4 341.622L62.32 303.442C65.35 326.054 69.97 348.136 76.07 369.597ZM727.53 650.141L527.4 341.632L681.21 671.938C697.1 665.515 712.58 658.276 727.53 650.151V650.141ZM766.23 -146.277L527.4 341.622L825.2 -98.4219C806.88 -115.957 787.19 -132.004 766.23 -146.287V-146.277ZM935.92 66.1855L527.41 341.622L956.93 133.737C951.58 110.503 944.55 87.9313 935.92 66.1855ZM868.37 -50.9849L527.41 341.622L909.32 10.2969C897.24 -11.2654 883.56 -31.7572 868.37 -50.9849ZM637.07 -206.865L527.41 341.622L709.37 -179.257C686.29 -190.482 662.09 -199.688 637.06 -206.865H637.07ZM963.17 314.616L527.4 341.622L949.15 376.244C955.16 356.241 959.84 335.658 963.17 314.616ZM969.08 240.131C969.08 223.87 968.24 207.803 966.64 191.971L527.4 341.622L968.6 259.104C968.85 252.804 969.07 246.493 969.07 240.131H969.08ZM351.81 -194.061L527.4 341.622L427.09 -215.827C401.14 -210.739 375.99 -203.419 351.81 -194.061ZM75.75 111.828L527.4 341.612L101.48 42.0235C91.13 64.3708 82.54 87.707 75.74 111.828H75.75ZM132.72 -14.6399L527.4 341.612L179.36 -75.3609C162.22 -56.5003 146.63 -36.192 132.72 -14.6399ZM227.27 -121.044L527.4 341.612L291.35 -165.28C268.73 -152.363 247.3 -137.56 227.27 -121.044ZM58 240.131C58 241.457 58.09 242.772 58.1 244.097L527.4 341.622L62.81 172.926C59.69 194.876 58 217.295 58 240.131ZM513.54 -224.288C506.88 -224.288 500.28 -224.064 493.69 -223.779L527.4 341.622L571.79 -220.374C552.7 -222.861 533.29 -224.288 513.53 -224.288H513.54Z" fill="url(#paint0_radial_167_37617)" fill-opacity="0.2"/>
<path d="M266 99C257.235 99.686 256.686 100.235 256 109C255.314 100.235 254.765 99.686 246 99C254.765 98.314 255.314 97.7651 256 89C256.686 97.7651 257.235 98.314 266 99Z" fill="#EBEBEB"/>
<path d="M375 44C361.852 45.0291 361.029 45.8523 360 59C358.971 45.8523 358.148 45.0291 345 44C358.148 42.9709 358.971 42.1477 360 29C361.029 42.1477 361.852 42.9709 375 44Z" fill="#EBEBEB"/>
<path d="M808 109C799.235 109.686 798.686 110.235 798 119C797.314 110.235 796.765 109.686 788 109C796.765 108.314 797.314 107.765 798 99C798.686 107.765 799.235 108.314 808 109Z" fill="#EBEBEB"/>
<path d="M238 39C229.235 39.686 228.686 40.2349 228 49C227.314 40.2349 226.765 39.686 218 39C226.765 38.314 227.314 37.7651 228 29C228.686 37.7651 229.235 38.314 238 39Z" fill="#EBEBEB"/>
<path d="M843 389C829.852 390.029 829.029 390.852 828 404C826.971 390.852 826.148 390.029 813 389C826.148 387.971 826.971 387.148 828 374C829.029 387.148 829.852 387.971 843 389Z" fill="#EBEBEB"/>
</g>
<defs>
<radialGradient id="paint0_radial_167_37617" cx="0" cy="0" r="1" gradientUnits="userSpaceOnUse" gradientTransform="translate(513.54 240.131) rotate(90) scale(464.42 455.54)">
<stop stop-color="white"/>
<stop offset="1" stop-color="white" stop-opacity="0"/>
</radialGradient>
<clipPath id="clip0_167_37617">
<rect width="1036" height="523" fill="white"/>
</clipPath>
</defs>
</svg>
