<svg width="331" height="420" viewBox="0 0 331 420" fill="none" xmlns="http://www.w3.org/2000/svg">
<path opacity="0.6" d="M331 273C331 354.186 265.186 420 184 420C102.814 420 37 354.186 37 273C37 191.814 102.814 126 184 126C265.186 126 331 191.814 331 273ZM79.3782 273C79.3782 330.781 126.219 377.622 184 377.622C241.781 377.622 288.622 330.781 288.622 273C288.622 215.219 241.781 168.378 184 168.378C126.219 168.378 79.3782 215.219 79.3782 273Z" fill="#CED3DE"/>
<path opacity="0.2" d="M245 122.5C245 190.155 190.155 245 122.5 245C54.8451 245 0 190.155 0 122.5C0 54.8451 54.8451 0 122.5 0C190.155 0 245 54.8451 245 122.5ZM9.71532 122.5C9.71532 184.789 60.2107 235.285 122.5 235.285C184.789 235.285 235.285 184.789 235.285 122.5C235.285 60.2107 184.789 9.71532 122.5 9.71532C60.2107 9.71532 9.71532 60.2107 9.71532 122.5Z" fill="#CED3DE"/>
</svg>
