<svg width="70" height="17" viewBox="0 0 70 17" fill="none" xmlns="http://www.w3.org/2000/svg">
<path fill-rule="evenodd" clip-rule="evenodd" d="M12.9666 14.0695H47.9453V2.23584H9.88885C10.0501 2.42558 10.1966 2.62735 10.3312 2.84516C11.5743 4.85752 11.2692 7.44045 9.7343 9.08668C9.61438 9.21763 9.48514 9.34057 9.34924 9.45815L9.52378 9.74144L9.67567 9.98596L9.79559 10.1811L10.114 10.6942C10.2313 10.6808 10.3499 10.6955 10.4618 10.7343C10.639 10.7423 10.8122 10.8051 10.9561 10.92C11.036 10.9815 11.108 11.0603 11.1666 11.1525L12.8147 13.8209L12.9666 14.0695Z" fill="#2A609F"/>
<path fill-rule="evenodd" clip-rule="evenodd" d="M42.6332 4.61689H45.7536V5.93708H43.9642V7.44167H45.5284V8.76187H43.9642V10.368H45.7536V11.6895H42.6332V4.61689ZM12.3245 4.61689H15.4435V5.93708H13.6555V7.44167H15.2184V8.76187H13.6555V10.368H15.4435V11.6895H12.3245V4.61689ZM15.8046 4.61689H17.3608L17.8591 6.36467H17.9177L18.3867 4.61689H19.9509L18.6026 8.00022L20.0495 11.6895H18.484L17.8871 9.61572H17.8485L17.2516 11.6895H15.7073L17.1157 8.00022L15.8046 4.61689ZM20.5172 6.41411C20.5172 5.85156 20.6624 5.40125 20.9529 5.06319C21.2433 4.72378 21.6883 4.55542 22.2879 4.55542C22.8808 4.55542 23.3192 4.70641 23.603 5.00707C23.8868 5.30905 24.028 5.70057 24.028 6.18027C24.028 6.21502 24.028 6.24709 24.028 6.27782C24.028 6.30855 24.024 6.33929 24.0173 6.37403L22.7369 6.60787C22.7303 6.39808 22.6876 6.22303 22.6063 6.08407C22.5264 5.94643 22.4185 5.87695 22.2839 5.87695C22.1933 5.87695 22.12 5.89432 22.0654 5.93174C22.0108 5.96915 21.9668 6.01458 21.9348 6.06937C21.9029 6.12282 21.8789 6.18295 21.8669 6.24709C21.8549 6.31122 21.8482 6.36735 21.8482 6.41411V10.0233C21.8482 10.1181 21.8709 10.209 21.9162 10.2972C21.9615 10.3854 22.0694 10.4295 22.2373 10.4295C22.3665 10.4295 22.4731 10.368 22.5544 10.2464C22.6343 10.1248 22.6783 9.94042 22.685 9.69723L23.9987 9.88029C23.9933 10.4428 23.8428 10.8945 23.5483 11.2366C23.2565 11.5786 22.8315 11.7497 22.2786 11.7497C21.6644 11.7497 21.218 11.6014 20.9382 11.3034C20.6584 11.0054 20.5172 10.5578 20.5172 9.9618V6.41411ZM24.7515 4.61689H26.0812V7.42029H26.9325V4.61689H28.2622V11.6895H26.9325V8.76187H26.0812V11.6895H24.7515V4.61689ZM30.1196 4.61689H31.7424L33.0428 11.6895H31.6451L31.4399 10.3079H30.442L30.2368 11.6895H28.8285L30.1196 4.61689ZM31.1162 7.87862L30.9696 6.44485H30.911L30.7644 7.87862L30.6285 9.0064H31.2441L31.1162 7.87862ZM33.5997 4.61689H34.7629L35.5663 6.66933L36.0246 7.96013H36.0739V4.61689H37.3743V11.6895H36.2445L35.4464 9.62641L34.9787 8.28483H34.9308V11.6895H33.5997V4.61689ZM38.3416 6.41411C38.3416 5.85156 38.4935 5.40125 38.7973 5.06319C39.0997 4.72378 39.5381 4.55542 40.111 4.55542C40.4174 4.55542 40.6839 4.60085 40.9091 4.69172C41.1329 4.78258 41.3195 4.91086 41.466 5.07388C41.6126 5.23556 41.7178 5.42931 41.7791 5.65246C41.8404 5.87695 41.8617 6.11747 41.8431 6.37403L40.552 6.60787C40.5454 6.39808 40.5027 6.22303 40.4228 6.08407C40.3428 5.94643 40.2349 5.87695 40.1017 5.87695C40.0137 5.87695 39.9405 5.89432 39.8872 5.93174C39.8339 5.96915 39.7886 6.01458 39.7579 6.06937C39.7259 6.12282 39.7033 6.18295 39.6913 6.24709C39.678 6.31122 39.6713 6.36735 39.6713 6.41411V10.0233C39.6713 10.1181 39.694 10.209 39.7393 10.2972C39.7832 10.3854 39.8885 10.4295 40.0537 10.4295C40.1803 10.4295 40.2855 10.3934 40.3695 10.3226C40.4508 10.2518 40.4934 10.1582 40.4934 10.0433V8.95562H40.043V7.74633H41.8218V9.97115C41.8218 10.5551 41.6725 10.996 41.3728 11.298C41.073 11.6 40.6506 11.7497 40.1017 11.7497C39.4888 11.7497 39.0424 11.6014 38.7626 11.3034C38.4815 11.0054 38.3416 10.5578 38.3416 9.9618V6.41411Z" fill="white"/>
<path fill-rule="evenodd" clip-rule="evenodd" d="M7.76504 3.04948C7.06289 2.60452 6.35806 2.16757 5.65324 1.72528C5.60661 1.69454 5.55731 1.68252 5.51201 1.71192C5.46005 1.74532 5.45205 1.80412 5.46404 1.86291C5.50801 2.07804 5.55731 2.29184 5.60261 2.50697C5.61194 2.5524 5.60527 2.57779 5.55198 2.58046C3.1817 2.71275 1.26442 4.81865 1.90662 7.31071C1.92261 7.37619 1.94126 7.44434 2.01588 7.46973C2.06784 7.4871 2.12113 7.47106 2.15711 7.43498C2.18642 7.40826 2.20507 7.36951 2.20774 7.32408C2.34097 5.39055 4.26358 4.4445 5.92504 4.34963C5.96768 4.34696 5.99699 4.367 6.00232 4.41644C6.04229 4.69839 6.12756 5.01507 6.18752 5.29702C6.20084 5.3665 6.23149 5.40392 6.28878 5.41461C6.35007 5.42529 6.39004 5.38654 6.42202 5.33978C6.89101 4.6436 7.35601 3.92738 7.80501 3.21651C7.84632 3.15237 7.829 3.08957 7.76504 3.04948ZM2.57147 8.41978C3.27363 8.86608 3.97979 9.30303 4.68194 9.74532C4.73124 9.77472 4.77921 9.78675 4.82584 9.75735C4.87647 9.72394 4.88313 9.66381 4.87114 9.60635C4.82717 9.39256 4.77787 9.17742 4.73391 8.96363C4.72458 8.9182 4.73124 8.89281 4.78587 8.89014C7.15482 8.75651 9.07343 6.65062 8.42989 4.15855C8.41391 4.09441 8.39392 4.02359 8.32197 4.00088C8.26868 3.9835 8.21672 3.9982 8.17941 4.03428C8.15143 4.06101 8.13144 4.09976 8.12745 4.14652C7.99688 6.08005 6.07294 7.0261 4.41147 7.11963C4.3675 7.12231 4.34086 7.10226 4.33286 7.05282C4.29556 6.77088 4.20895 6.45419 4.15033 6.17225C4.13434 6.10276 4.10503 6.06668 4.04907 6.05599C3.98512 6.04397 3.94648 6.08272 3.9145 6.13082C3.44551 6.827 2.97918 7.54322 2.5315 8.25275C2.49153 8.31823 2.50752 8.3797 2.57147 8.41978Z" fill="#2A609F"/>
<path fill-rule="evenodd" clip-rule="evenodd" d="M11.946 14.1536L10.2539 11.4143C10.1953 11.3181 10.1207 11.2379 10.0394 11.1738C9.80893 10.9921 9.50382 10.9359 9.22535 11.0268L8.84829 10.4162L8.72438 10.2157L8.5685 9.96451L8.38863 9.67454C8.52853 9.55295 8.66176 9.42601 8.78567 9.29238C10.3605 7.60205 10.675 4.94964 9.39856 2.88383C9.21736 2.59253 9.01351 2.32529 8.78834 2.08477C8.41394 1.67855 7.98359 1.34851 7.51992 1.09596C6.96432 0.79397 6.36209 0.60289 5.74254 0.532069C5.55468 0.51069 5.36548 0.5 5.17495 0.5C4.25829 0.502672 3.33096 0.768582 2.50222 1.32178C1.01663 2.3146 0.207886 3.98756 0.207886 5.69659C0.207886 6.65467 0.465033 7.62343 0.999312 8.48931C2.05855 10.2037 3.92519 11.0509 5.74921 10.8424C6.25817 10.785 6.76447 10.6433 7.24812 10.4175L7.44398 10.7342L8.09151 11.7844C7.82637 12.0904 7.7784 12.5528 8.00224 12.9176L9.95016 16.0697C10.1234 16.349 10.4138 16.5 10.7109 16.5C10.8775 16.5 11.0467 16.4519 11.1973 16.3517L11.2599 16.3089L11.9301 15.8626C12.3484 15.582 12.471 15.0021 12.2019 14.5665L11.946 14.1536ZM1.60554 8.08577C0.370435 6.08811 0.871405 3.44906 2.70741 2.08076C2.76736 2.03666 2.82865 1.9939 2.89128 1.95114C3.77064 1.36454 4.78057 1.15609 5.74254 1.28437C5.77186 1.28837 5.79983 1.29238 5.82781 1.29639C6.9057 1.46476 7.91564 2.05804 8.61113 3.01879C8.66976 3.10164 8.72838 3.18582 8.78301 3.27401C8.787 3.27936 8.78967 3.28336 8.79233 3.28871C8.95089 3.54526 9.08013 3.81251 9.18272 4.08644C9.42254 4.72649 9.50915 5.40396 9.45319 6.06539C9.34393 7.38959 8.66576 8.64832 7.5066 9.42333C6.95633 9.78946 6.3581 10.0073 5.75054 10.0901C5.70524 10.0968 5.66127 10.1008 5.61597 10.1048C4.58738 10.2077 3.54813 9.92041 2.70341 9.28971C2.27972 8.97302 1.90532 8.56948 1.60554 8.08577Z" fill="#2A609F"/>
<path fill-rule="evenodd" clip-rule="evenodd" d="M67.9148 2.23584H47.8627V14.0695H67.9148C69.066 14.0695 70 13.0994 70 11.9021V4.40454C70 3.20594 69.066 2.23584 67.9148 2.23584Z" fill="white"/>
<path fill-rule="evenodd" clip-rule="evenodd" d="M51.1483 6.81097C51.1616 6.8858 51.1936 6.95662 51.2455 7.02477C51.2975 7.09292 51.3734 7.15839 51.4734 7.22387C51.5746 7.28801 51.7159 7.35615 51.8984 7.43098C52.2102 7.55926 52.4553 7.69556 52.6379 7.8372C52.8191 7.98017 52.9563 8.13651 53.0509 8.30488C53.1455 8.47458 53.2068 8.66566 53.2361 8.87946C53.2667 9.09192 53.2814 9.33511 53.2814 9.60636C53.2814 9.93107 53.2521 10.2264 53.1961 10.4909C53.1415 10.7542 53.0469 10.98 52.9137 11.1657C52.7804 11.3528 52.5992 11.4971 52.37 11.5987C52.1422 11.6989 51.8558 11.7497 51.5093 11.7497C51.1976 11.7497 50.9284 11.7029 50.7033 11.608C50.4794 11.5118 50.2969 11.3795 50.1557 11.2125C50.0158 11.0455 49.9132 10.8504 49.8479 10.6286C49.7826 10.4081 49.7506 10.1716 49.7506 9.92038L51.0896 9.65714C51.103 9.91503 51.1389 10.1074 51.2016 10.2371C51.2628 10.3653 51.3774 10.4295 51.544 10.4295C51.6412 10.4295 51.7172 10.4054 51.7718 10.3587C51.8264 10.3119 51.8691 10.2504 51.8971 10.1756C51.9264 10.1008 51.945 10.0139 51.9557 9.91102C51.9637 9.80947 51.969 9.70925 51.969 9.6077C51.969 9.46606 51.9597 9.34714 51.941 9.25226C51.9197 9.15739 51.8877 9.07722 51.8384 9.00907C51.7891 8.94092 51.7225 8.88213 51.6372 8.83135C51.5533 8.78057 51.448 8.72846 51.3241 8.67501C50.9924 8.53204 50.7246 8.38505 50.5221 8.23272C50.3209 8.08039 50.1663 7.91871 50.0584 7.745C49.9505 7.57396 49.8812 7.3909 49.8479 7.19848C49.8159 7.00606 49.7999 6.7936 49.7999 6.56377C49.7999 6.27381 49.8319 6.00389 49.8972 5.75669C49.9625 5.51082 50.065 5.2997 50.2049 5.12332C50.3462 4.94827 50.5274 4.8093 50.7526 4.70641C50.9777 4.6062 51.2495 4.55542 51.568 4.55542C51.9077 4.55542 52.1888 4.61154 52.41 4.72245C52.6312 4.83469 52.8057 4.97767 52.9323 5.14871C53.0602 5.32242 53.1495 5.5135 53.2014 5.72328C53.2547 5.93307 53.2814 6.13751 53.2814 6.33394L51.969 6.62791C51.969 6.52636 51.9637 6.43148 51.9557 6.34463C51.945 6.2551 51.9237 6.17627 51.8931 6.10411C51.8597 6.03329 51.8171 5.97717 51.7625 5.93708C51.7079 5.89699 51.6319 5.87695 51.5347 5.87695C51.4441 5.87695 51.3734 5.89833 51.3228 5.94243C51.2708 5.98652 51.2309 6.03997 51.2016 6.10411C51.1722 6.16825 51.1523 6.24174 51.1429 6.32325C51.1336 6.40476 51.1283 6.48226 51.1283 6.55709C51.1283 6.65196 51.1349 6.73615 51.1483 6.81097ZM67.5244 9.9618C67.5244 10.5711 67.3792 11.0214 67.0847 11.3141C66.7929 11.6054 66.3586 11.7497 65.7857 11.7497C64.6305 11.7497 64.0536 11.1551 64.0536 9.9618V6.33394C64.0536 5.72328 64.2068 5.27431 64.5146 4.98702C64.821 4.6984 65.2447 4.55542 65.7857 4.55542C66.3786 4.55542 66.8169 4.6984 67.0994 4.98702C67.3845 5.27431 67.5244 5.72328 67.5244 6.33394V9.9618ZM65.7857 5.84622C65.6737 5.84622 65.5791 5.87962 65.5019 5.94777C65.4233 6.01458 65.3846 6.12682 65.3846 6.28316V10.0233C65.3846 10.1863 65.4233 10.2985 65.5019 10.3627C65.5791 10.4281 65.6737 10.4602 65.7857 10.4602C65.8962 10.4602 65.9882 10.4281 66.0628 10.3627C66.1374 10.2985 66.176 10.1863 66.176 10.0233V6.28316C66.176 6.12682 66.1374 6.01458 66.0628 5.94777C65.9882 5.87962 65.8962 5.84622 65.7857 5.84622ZM63.1742 11.6895H61.8458V8.38639H61.8059L61.4848 9.48343L61.2223 10.3079H60.3363L60.0538 9.40326L59.742 8.35565H59.6941V11.6895H58.3644V4.61689H59.6061L60.2803 6.50631L60.74 7.90935H60.7986L61.2676 6.47558L61.9338 4.61689H63.1742V11.6895ZM57.493 9.9618C57.493 10.5711 57.3478 11.0214 57.0533 11.3141C56.7615 11.6054 56.3272 11.7497 55.7543 11.7497C54.5991 11.7497 54.0222 11.1551 54.0222 9.9618V4.62624H55.3532V9.99253C55.3532 10.1556 55.3919 10.2678 55.4705 10.3319C55.5477 10.3974 55.6423 10.4295 55.7543 10.4295C55.8648 10.4295 55.9568 10.3974 56.0314 10.3319C56.1073 10.2678 56.1446 10.1556 56.1446 9.99253V4.62624H57.493V9.9618Z" fill="#2A609F"/>
</svg>
