<svg width="500" height="405" viewBox="0 0 500 405" fill="none" xmlns="http://www.w3.org/2000/svg">
<path d="M500 360.142H0V359.893H500V360.142Z" fill="#EEF0F3"/>
<path d="M416.779 375.969H449.901V376.219H416.779V375.969Z" fill="#EEF0F3"/>
<path d="M260.335 372.838H273.222V373.088H260.335V372.838Z" fill="#E7E8E5"/>
<path d="M322.527 373.894H349.667V374.144H322.527V373.894Z" fill="#EEF0F3"/>
<path d="M359.667 366.694H415.778V366.944H359.667V366.694Z" fill="#EEF0F3"/>
<path d="M52.459 378.249H78.9855V378.499H52.459V378.249Z" fill="#EEF0F3"/>
<path d="M87.8892 378.249H110.889V378.499H87.8892V378.249Z" fill="#EEF0F3"/>
<path d="M191.814 372.963H131V372.713H191.814V372.963Z" fill="#EEF0F3"/>
<path d="M260.212 33.1001C257.203 33.1001 254.755 35.5461 254.755 38.5514V309.648C254.755 312.654 257.203 315.099 260.212 315.099H453.311C456.32 315.099 458.769 312.654 458.769 309.648V38.5514C458.769 35.5461 456.32 33.1001 453.311 33.1001H260.212ZM453.311 315.349H260.212C257.065 315.349 254.505 312.792 254.505 309.648V38.5514C254.505 35.4083 257.065 32.8504 260.212 32.8504H453.311C456.458 32.8504 459.019 35.4083 459.019 38.5514V309.648C459.019 312.792 456.458 315.349 453.311 315.349Z" fill="#EEF0F3"/>
<path d="M467.063 171.898C470.318 160.628 469.721 149.167 466.072 138.895C468.924 134.817 471.175 130.217 472.633 125.169C479.329 101.981 467.118 77.8259 445.094 69.1327C440.845 38.7552 419.257 12.203 387.843 3.15314C363.006 -4.00101 337.536 1.37833 318.172 15.5279C313.326 10.4621 307.124 6.56293 299.898 4.48151C278.117 -1.79276 255.367 10.7567 249.085 32.5109C248.035 36.1484 247.523 39.8129 247.481 43.4244C225.563 47.834 206.792 63.97 200.168 86.9107C194.217 107.519 199.484 128.698 212.36 143.949C210.696 146.953 209.33 150.179 208.337 153.617C201.206 178.312 215.469 204.107 240.195 211.228C248.348 213.577 256.616 213.59 264.299 211.683C273.389 224.201 286.555 233.907 302.584 238.525C323.209 244.466 344.321 240.77 361.125 230.12C368.645 247.593 374.828 273.799 361.522 299.496C409.866 294.761 444.778 248.447 437.663 206.016C451.458 199.675 462.525 187.616 467.063 171.898Z" fill="#EEF0F3"/>
<path d="M364.766 217.351C364.865 217.351 364.964 217.366 365.061 217.396C365.341 217.482 365.568 217.686 365.684 217.956L369.392 226.57C375.769 241.382 381.945 263.817 375.762 287.428C390.768 282.645 404.36 273.034 414.188 260.218C426.41 244.277 431.731 225.062 428.786 207.5L427.776 201.475C427.701 201.03 427.934 200.591 428.344 200.404L433.9 197.85C445.846 192.359 454.782 181.992 458.417 169.407C461.041 160.319 460.755 150.808 457.59 141.901L456.213 138.024C456.105 137.721 456.151 137.383 456.336 137.119L458.694 133.747C461.061 130.363 462.841 126.639 463.985 122.679C469.368 104.039 459.825 84.6125 441.787 77.4923L437.449 75.7795C437.114 75.6476 436.876 75.346 436.827 74.9895L436.182 70.3771C432.29 42.5615 412.337 19.5649 385.349 11.7905C378.887 9.92877 372.239 8.98593 365.588 8.98593C350.613 8.98593 335.661 13.8869 323.486 22.7829L317.824 26.9188C317.418 27.2154 316.857 27.1645 316.51 26.8029L311.664 21.7372C307.769 17.6642 302.837 14.6839 297.403 13.1188C294.493 12.2799 291.499 11.8544 288.504 11.8544C274.322 11.8544 261.668 21.3736 257.733 35.0028C256.935 37.7654 256.514 40.6329 256.481 43.5263L256.408 49.9923C256.403 50.4627 256.068 50.8662 255.605 50.9601L249.259 52.2365C229.803 56.1497 214.306 70.3911 208.815 89.4017C203.911 106.388 207.808 124.613 219.241 138.154L222.792 142.36C223.06 142.677 223.103 143.125 222.903 143.488L220.235 148.303C218.855 150.792 217.762 153.419 216.984 156.108C214.202 165.743 215.343 175.887 220.198 184.667C225.053 193.447 233.041 199.813 242.689 202.592C249.038 204.42 255.752 204.543 262.129 202.959L267.366 201.659C267.76 201.559 268.177 201.711 268.417 202.043L271.585 206.405C279.895 217.849 291.477 225.97 305.078 229.888C310.79 231.533 316.666 232.367 322.545 232.367C334.476 232.367 346.148 228.965 356.302 222.53L364.23 217.505C364.392 217.404 364.578 217.351 364.766 217.351ZM374.317 289.913C374.057 289.913 373.802 289.811 373.612 289.622C373.353 289.366 373.256 288.988 373.356 288.638C380.166 264.95 373.96 242.239 367.556 227.358L364.31 219.821L357.374 224.217C346.899 230.856 334.855 234.365 322.545 234.365C316.479 234.365 310.415 233.505 304.524 231.808C290.49 227.765 278.541 219.386 269.966 207.578L267.193 203.76L262.611 204.898C255.894 206.566 248.82 206.435 242.135 204.512C231.974 201.584 223.561 194.879 218.447 185.632C213.333 176.385 212.132 165.703 215.062 155.554C215.881 152.72 217.033 149.955 218.485 147.335L220.819 143.122L217.712 139.442C205.848 125.39 201.803 106.476 206.894 88.8473C212.591 69.1177 228.673 54.3389 248.864 50.2779L254.417 49.1613L254.481 43.5033C254.516 40.4301 254.963 37.3839 255.811 34.4485C259.992 19.9694 273.436 9.85684 288.504 9.85684C291.686 9.85684 294.868 10.3083 297.958 11.1992C303.731 12.8622 308.971 16.0292 313.11 20.3579L317.351 24.7894L322.305 21.1709C334.82 12.0252 350.192 6.9884 365.588 6.9884C372.426 6.9884 379.261 7.95822 385.903 9.87085C413.648 17.864 434.162 41.5058 438.162 70.1005L438.727 74.1365L442.522 75.6357C461.523 83.1354 471.577 103.598 465.907 123.233C464.702 127.405 462.827 131.326 460.334 134.891L458.271 137.841L459.475 141.234C462.78 150.536 463.079 160.469 460.338 169.961C456.542 183.104 447.211 193.931 434.736 199.664L429.875 201.899L430.759 207.17C433.795 225.277 428.334 245.054 415.775 261.433C405.315 275.073 390.692 285.174 374.598 289.873C374.505 289.9 374.411 289.913 374.317 289.913Z" fill="white"/>
<path d="M275.36 126.781L304.068 131.244L300.126 156.536L271.418 152.071L275.36 126.781ZM304.191 123.974L277.386 119.806L277.803 117.13C278.514 112.574 279.607 108.957 281.085 106.275C282.562 103.594 284.507 101.24 286.918 99.2085C289.33 97.1791 294.571 93.7603 302.641 88.9542C306.934 86.4463 309.281 83.9014 309.683 81.3186C310.086 78.7358 309.635 76.6094 308.33 74.9385C307.025 73.2686 304.821 72.1919 301.717 71.7095C298.378 71.1891 295.443 71.8643 292.913 73.73C290.382 75.5997 288.382 79.2312 286.915 84.6325L260.074 76.9959C262.581 67.0912 267.497 59.5695 274.826 54.4318C282.153 49.2932 292.4 47.7481 305.567 49.7955C315.818 51.3886 323.761 54.8143 329.396 60.0668C337.054 67.1731 340.132 75.5438 338.632 85.1699C338.009 89.1629 336.303 92.8414 333.515 96.2082C330.726 99.5751 325.506 103.405 317.853 107.699C312.517 110.719 309.049 113.269 307.448 115.354C305.847 117.437 304.761 120.311 304.191 123.974Z" fill="white"/>
<path d="M353.998 154.661L369.936 167.556L358.548 181.597L342.61 168.702L353.998 154.661ZM372.593 163.162L357.711 151.122L358.916 149.635C360.968 147.106 362.92 145.286 364.774 144.173C366.628 143.058 368.651 142.31 370.845 141.926C373.037 141.54 377.45 141.31 384.083 141.236C387.595 141.226 389.93 140.504 391.094 139.069C392.257 137.636 392.736 136.178 392.533 134.696C392.33 133.214 391.367 131.776 389.644 130.382C387.79 128.882 385.759 128.254 383.552 128.496C381.343 128.741 378.833 130.249 376.019 133.028L362.347 118.856C367.394 113.699 373.067 110.848 379.365 110.309C385.662 109.767 392.466 112.454 399.776 118.369C405.468 122.973 409.099 127.877 410.674 133.081C412.825 140.132 411.731 146.331 407.397 151.675C405.599 153.892 403.251 155.534 400.353 156.602C397.455 157.668 392.908 158.158 386.712 158.067C382.383 158.02 379.36 158.348 377.643 159.054C375.925 159.758 374.242 161.127 372.593 163.162Z" fill="white"/>
<path d="M367.754 69.2734L374.652 78.6818L366.344 84.7583L359.445 75.3499L367.754 69.2734ZM376.753 76.6473L370.312 67.8632L371.191 67.221C372.688 66.1253 374.027 65.4062 375.209 65.0626C376.392 64.719 377.614 64.6002 378.877 64.7051C380.14 64.8119 382.603 65.3243 386.264 66.2452C388.198 66.7486 389.589 66.6906 390.438 66.0704C391.286 65.4482 391.762 64.7161 391.866 63.8711C391.969 63.0261 391.648 62.0943 390.902 61.0786C390.1 59.9839 389.073 59.3427 387.823 59.1569C386.572 58.9712 384.971 59.4376 383.018 60.5582L377.553 50.7763C381.081 48.6699 384.617 47.9228 388.162 48.539C391.707 49.1543 395.061 51.6192 398.225 55.9339C400.689 59.2938 401.975 62.5198 402.085 65.6119C402.244 69.8048 400.742 73.0577 397.579 75.3719C396.267 76.3317 394.737 76.894 392.986 77.0618C391.236 77.2286 388.662 76.8391 385.265 75.8903C382.889 75.2371 381.177 74.9794 380.13 75.1192C379.082 75.2581 377.957 75.7674 376.753 76.6473Z" fill="white"/>
<path d="M95.7266 51.856C86.6949 51.856 77.8844 54.8303 70.5512 60.5223C57.7273 70.475 51.948 87.0945 55.8281 102.862C55.8953 103.137 55.8102 103.426 55.6047 103.62C46.7445 111.966 45.7055 125.512 53.1879 135.129C54.7781 137.173 56.6836 138.93 58.8516 140.353C59.0637 140.492 59.1953 140.724 59.2051 140.977C59.4293 146.741 61.4219 152.196 64.968 156.753C69.877 163.064 77.2871 166.919 85.298 167.332C85.6516 167.35 85.9492 167.603 86.0238 167.948C88.2336 178.108 95.2152 187.337 105.179 193.268C115.455 199.386 127.631 201.227 138.808 198.405C128.077 188.379 126.083 174.774 126.34 164.98C126.346 164.751 126.453 164.535 126.631 164.391C126.811 164.247 127.042 164.19 127.27 164.23C137.656 166.179 148.389 163.588 156.717 157.125C163.262 152.046 167.795 145.12 169.827 137.095C169.905 136.784 170.164 136.553 170.481 136.51C174.573 135.949 178.462 134.314 181.729 131.779C192 123.806 193.863 108.974 185.881 98.7161C184.804 97.3308 183.556 96.0544 182.172 94.9238C181.92 94.7181 181.822 94.3785 181.924 94.0709C185.263 84.0323 183.384 73.0618 176.896 64.7241C169.636 55.3926 157.885 50.9231 146.226 53.0505C145.86 53.1184 145.5 52.9207 145.359 52.5791C144.647 50.8542 143.708 49.2362 142.566 47.769C139.176 43.4114 134.289 40.6328 128.806 39.9457C123.323 39.2545 117.9 40.7457 113.537 44.1315C110.654 46.3698 108.411 49.3371 107.05 52.7119C106.903 53.0775 106.505 53.2762 106.127 53.1783C102.675 52.2924 99.184 51.856 95.7266 51.856ZM128.335 201.265C120.066 201.265 111.748 199.002 104.376 194.615C94.2289 188.575 87.0582 179.214 84.6215 168.861C76.3844 168.269 68.7961 164.229 63.7285 157.715C60.0625 153.003 57.9672 147.384 57.6555 141.438C55.4809 139.963 53.5625 138.164 51.9488 136.091C44.0613 125.954 45.0523 111.721 54.1977 102.796C50.3848 86.5591 56.3953 69.5232 69.5883 59.2858C79.9371 51.2527 93.1195 48.4302 105.86 51.4974C107.342 48.1256 109.653 45.1612 112.574 42.894C117.269 39.2515 123.102 37.6525 129.001 38.3896C134.9 39.1297 140.158 42.119 143.806 46.8072C144.905 48.2205 145.83 49.7635 146.561 51.4025C158.595 49.435 170.644 54.1312 178.136 63.7623C184.835 72.3727 186.853 83.6597 183.579 94.0549C184.89 95.1735 186.08 96.415 187.121 97.7543C195.633 108.695 193.646 124.513 182.691 133.016C179.347 135.612 175.389 137.324 171.216 137.986C169.037 146.137 164.365 153.174 157.68 158.362C149.241 164.912 138.434 167.647 127.892 165.931C127.786 175.634 130.044 188.788 140.917 198.192C141.134 198.379 141.231 198.671 141.17 198.951C141.108 199.233 140.898 199.457 140.622 199.537C136.624 200.694 132.485 201.264 128.335 201.265Z" fill="#EEF0F3"/>
<path d="M87.1734 124.777L101.968 121.297L105.04 134.331L90.2457 137.811L87.1734 124.777ZM100.595 117.751L86.7813 120.999L86.4563 119.619C85.9027 117.271 85.7199 115.302 85.9078 113.713C86.0957 112.123 86.5746 110.599 87.3434 109.141C88.1121 107.683 89.9789 104.995 92.9438 101.08C94.5301 99.0208 95.1664 97.3259 94.8523 95.9945C94.5387 94.6642 93.9008 93.7223 92.9398 93.168C91.9777 92.6157 90.6977 92.5268 89.098 92.9033C87.377 93.3078 86.0875 94.2107 85.2289 95.614C84.3699 97.0163 84.1164 99.1696 84.4695 102.076L69.9547 103.65C69.2184 98.3576 70.1195 93.7453 72.6594 89.8142C75.198 85.882 79.8605 83.1204 86.6457 81.5244C91.9289 80.2819 96.4535 80.3808 100.22 81.82C105.332 83.7586 108.473 87.2104 109.643 92.1713C110.128 94.2297 110.026 96.3481 109.338 98.5284C108.649 100.709 106.874 103.591 104.01 107.177C102.019 109.689 100.84 111.606 100.475 112.931C100.11 114.256 100.15 115.862 100.595 117.751Z" fill="#EEF0F3"/>
<path d="M125.065 88.1522L135.332 91.2693L132.578 100.314L122.312 97.196L125.065 88.1522ZM135.753 88.6176L126.168 85.7062L126.459 84.7494C126.955 83.1204 127.543 81.853 128.222 80.9501C128.902 80.0462 129.735 79.2851 130.722 78.6679C131.709 78.0496 133.803 77.0709 137.003 75.7305C138.703 75.0364 139.693 74.2264 139.974 73.3035C140.255 72.3796 140.201 71.5787 139.81 70.8995C139.42 70.2223 138.67 69.7139 137.56 69.3773C136.365 69.0148 135.257 69.1097 134.235 69.661C133.213 70.2133 132.293 71.4388 131.477 73.3375L122.058 69.1556C123.488 65.6639 125.676 63.167 128.622 61.6679C131.568 60.1677 135.395 60.1328 140.104 61.563C143.77 62.6756 146.497 64.3396 148.285 66.5519C150.717 69.5472 151.408 72.7672 150.36 76.2089C149.925 77.6362 149.111 78.8936 147.917 79.9813C146.722 81.0679 144.615 82.1985 141.594 83.3731C139.486 84.2011 138.085 84.9541 137.392 85.6333C136.698 86.3124 136.152 87.3072 135.753 88.6176Z" fill="#EEF0F3"/>
<path d="M443.889 393.691C443.889 399.937 357.083 405 250 405C142.918 405 56.1108 399.937 56.1108 393.691C56.1108 387.445 142.918 382.382 250 382.382C357.083 382.382 443.889 387.445 443.889 393.691Z" fill="#EEF0F3"/>
<path d="M157.219 213.658C155.279 209.4 151.672 206.716 146.789 205.894L146.955 204.908C152.181 205.788 156.045 208.671 158.129 213.245L157.219 213.658ZM157.612 225.099L156.691 224.709C157.518 222.757 157.994 221.138 158.145 219.76L159.139 219.87C158.977 221.346 158.477 223.056 157.612 225.099Z" fill="#60CC80"/>
<path d="M142.999 242.384L153.536 237.593L157.767 246.875L147.23 251.667L142.999 242.384ZM151.983 235.146L142.144 239.618L141.697 238.636C140.934 236.963 140.505 235.52 140.41 234.305C140.314 233.088 140.445 231.88 140.803 230.675C141.161 229.473 142.156 227.189 143.79 223.824C144.67 222.049 144.893 220.69 144.461 219.742C144.029 218.794 143.413 218.184 142.612 217.913C141.811 217.641 140.842 217.765 139.702 218.284C138.477 218.84 137.647 219.708 137.214 220.881C136.781 222.057 136.911 223.705 137.607 225.824L126.995 229.15C125.659 225.304 125.647 221.724 126.961 218.411C128.274 215.097 131.347 212.343 136.18 210.145C139.943 208.435 143.338 207.837 146.366 208.354C150.474 209.046 153.333 211.159 154.944 214.693C155.612 216.159 155.851 217.757 155.66 219.488C155.47 221.218 154.571 223.635 152.964 226.738C151.85 228.91 151.254 230.518 151.178 231.562C151.102 232.607 151.37 233.8 151.983 235.146Z" fill="#60CC80"/>
<path d="M124.271 265.699L129.631 258.431L136.05 263.154L130.689 270.422L124.271 265.699ZM127.641 257.352L122.635 264.139L121.956 263.638C120.8 262.788 119.958 261.967 119.43 261.174C118.902 260.382 118.531 259.507 118.317 258.55C118.103 257.594 117.912 255.659 117.745 252.744C117.669 251.201 117.304 250.188 116.648 249.706C115.993 249.223 115.341 249.043 114.692 249.161C114.043 249.28 113.428 249.733 112.849 250.519C112.225 251.365 111.99 252.27 112.141 253.235C112.293 254.202 113.009 255.275 114.29 256.456L108.321 262.753C105.946 260.638 104.575 258.202 104.21 255.445C103.844 252.686 104.891 249.641 107.349 246.307C109.264 243.712 111.352 242.016 113.613 241.219C116.677 240.131 119.431 240.485 121.875 242.283C122.888 243.029 123.659 244.028 124.188 245.28C124.717 246.533 125.024 248.522 125.11 251.248C125.177 253.152 125.382 254.475 125.728 255.215C126.073 255.957 126.711 256.668 127.641 257.352Z" fill="#60CC80"/>
<path d="M234.088 390.092C232.465 390.092 230.898 389.21 230.101 387.671C226.083 379.918 221.034 370.819 211.947 360.972C210.884 359.821 210.501 358.199 210.935 356.695C214.31 344.998 219.606 329.01 219.659 328.85C220.438 326.499 222.976 325.229 225.327 326.006C227.679 326.784 228.954 329.318 228.175 331.667C228.126 331.815 223.564 345.587 220.252 356.792C228.604 366.253 233.753 375.228 238.068 383.553C239.207 385.75 238.347 388.454 236.147 389.59C235.487 389.931 234.783 390.092 234.088 390.092Z" fill="#60CC80"/>
<path d="M241.561 393.691H206.772L225.208 383.246L240.663 383.843L241.561 393.691Z" fill="#121620"/>
<path d="M260.415 324.971C260.534 338.889 247.369 351.468 231.011 353.069C214.652 354.67 201.295 344.685 201.175 330.768C201.056 316.85 214.221 304.271 230.58 302.67C246.938 301.069 260.296 311.055 260.415 324.971Z" fill="#121620"/>
<path d="M151.653 311.535C149.893 311.536 148.223 310.495 147.507 308.77C146.559 306.483 147.646 303.862 149.935 302.915C152.54 301.837 152.902 299.177 152.905 299.151C153.093 297.148 154.593 295.516 156.575 295.161C157.644 294.967 158.676 294.665 159.872 294.317C165.95 292.543 173.477 290.345 197.182 296.975C220.563 283.915 220.829 259.425 220.829 258.368C220.828 255.899 222.827 253.888 225.299 253.88H225.314C227.779 253.88 229.784 255.859 229.799 258.323C229.808 259.623 229.663 290.367 199.757 305.764C198.738 306.288 197.559 306.405 196.457 306.085C173.862 299.568 167.5 301.425 162.389 302.917C161.936 303.049 161.478 303.184 161.009 303.314C159.902 306.156 157.598 309.443 153.368 311.194C152.807 311.426 152.225 311.535 151.653 311.535Z" fill="#121620"/>
<path d="M204.081 279.485C195.575 245.702 172.897 158.573 245.548 153.247C310.726 148.468 328.615 235.116 332.963 265.134C335.497 282.629 336.348 298.496 336.497 310.896C336.688 326.891 325.437 340.684 309.741 343.868C274.23 351.072 240.625 352.095 217.993 343.174C211.873 340.761 208.171 334.533 208.76 327.988C209.632 318.284 209.648 301.595 204.081 279.485Z" fill="#60CC80"/>
<path d="M319.268 340.378C328.519 335.285 334.943 326.026 336.252 315.349H336.255C334.945 326.028 328.521 335.288 319.268 340.378ZM336.285 315.099H336.282C336.44 313.72 336.514 312.317 336.497 310.896C336.374 300.615 335.767 287.948 334.119 273.948C335.77 287.951 336.376 300.617 336.5 310.894C336.517 312.316 336.443 313.719 336.285 315.099Z" fill="#E0E1DE"/>
<path d="M336.255 315.349H336.252C336.262 315.265 336.272 315.182 336.282 315.098H336.285C336.275 315.182 336.265 315.265 336.255 315.349Z" fill="#CCCDCB"/>
<path d="M275.8 348.818C266.779 330.258 277.145 317.077 279.185 300.568C283.665 264.283 254 197.695 241.56 178.429C237.789 172.59 237.707 166.683 240.226 161.812C243.021 156.407 248.765 153.24 254.803 153.24C255.3 153.24 255.8 153.262 256.3 153.305C312.739 158.221 328.863 236.842 332.96 265.131C333.394 268.12 333.779 271.062 334.119 273.948C335.767 287.948 336.374 300.615 336.497 310.896C336.514 312.317 336.44 313.72 336.282 315.099C336.272 315.183 336.262 315.266 336.252 315.349C334.943 326.026 328.519 335.285 319.268 340.378C316.35 341.984 313.15 343.173 309.74 343.863C298.11 346.231 286.69 347.919 275.8 348.818Z" fill="#4DBA6E"/>
<path d="M323.239 311.345C322.994 311.345 322.793 311.147 322.791 310.901C322.606 295.468 321.418 280.091 319.261 265.199C308.462 190.638 279.386 152.928 235.164 156.182C234.923 156.211 234.702 156.015 234.684 155.769C234.666 155.522 234.852 155.306 235.099 155.289C279.851 151.992 309.271 189.968 320.149 265.07C322.312 280.001 323.502 295.418 323.688 310.892C323.691 311.139 323.492 311.342 323.245 311.345H323.239Z" fill="#121620"/>
<path d="M344.744 327.361C344.863 341.277 331.698 353.857 315.34 355.458C298.981 357.058 285.624 347.074 285.505 333.156C285.385 319.24 298.55 306.659 314.909 305.059C331.267 303.458 344.625 313.443 344.744 327.361Z" fill="#121620"/>
<path d="M325.295 390.092C323.672 390.092 322.105 389.21 321.308 387.671C317.29 379.918 312.241 370.82 303.154 360.972C302.092 359.82 301.708 358.199 302.143 356.695C305.517 344.998 310.813 329.01 310.866 328.85C311.645 326.5 314.179 325.222 316.535 326.006C318.887 326.784 320.162 329.318 319.383 331.667C319.333 331.815 314.771 345.587 311.459 356.792C319.812 366.253 324.96 375.228 329.275 383.553C330.414 385.75 329.554 388.454 327.354 389.59C326.694 389.931 325.99 390.092 325.295 390.092Z" fill="#60CC80"/>
<path d="M315.876 253.532C314.262 253.532 312.703 252.66 311.9 251.133C310.751 248.947 311.591 246.244 313.775 245.09C314.64 244.631 334.17 233.969 339.653 208.366C326.632 202.927 303.23 190.65 298.113 184.478C297.618 183.881 297.286 183.165 297.151 182.4C297.031 181.726 296.189 176.429 298.152 171.411L295.79 166.856C294.651 164.658 295.511 161.955 297.711 160.817C299.911 159.683 302.618 160.538 303.757 162.736L307.155 169.29C307.881 170.691 307.816 172.371 306.982 173.713C305.909 175.439 305.776 177.969 305.863 179.617C311.626 184.817 334.904 197.139 346.29 201.36C348.288 202.101 349.488 204.144 349.162 206.246C344.09 238.973 319.021 252.46 317.957 253.018C317.292 253.367 316.579 253.532 315.876 253.532Z" fill="#121620"/>
<path d="M301.566 183.861C301.145 183.861 300.72 183.743 300.341 183.496C299.304 182.819 299.013 181.431 299.69 180.395C299.845 180.159 303.553 174.573 309.193 173.063C310.388 172.741 311.62 173.453 311.94 174.647C312.261 175.843 311.551 177.07 310.354 177.39C306.416 178.445 303.474 182.801 303.445 182.845C303.015 183.503 302.298 183.861 301.566 183.861Z" fill="#121620"/>
<path d="M332.768 393.691H297.979L316.415 383.246L331.871 383.843L332.768 393.691Z" fill="#121620"/>
<path d="M281.838 236.36C282.886 248.191 273.067 258.725 259.906 259.888C246.745 261.051 235.226 252.404 234.178 240.574C233.129 228.744 242.948 218.211 256.109 217.047C269.271 215.883 280.789 224.531 281.838 236.36Z" fill="white"/>
<path d="M258.499 238.759C260.308 245.101 258.945 251.049 255.453 252.044C251.962 253.038 247.664 248.701 245.854 242.357C244.045 236.015 245.408 230.066 248.9 229.073C252.391 228.078 256.689 232.415 258.499 238.759Z" fill="#121620"/>
<path d="M230.795 242.5C245.897 240.558 275.801 232.046 280.735 228.612C276.847 217.262 258.776 207.556 242.607 213.022C228.032 217.951 230.795 242.5 230.795 242.5Z" fill="#121620"/>
<path d="M233.734 249.791C252.476 246.233 276.847 240.259 283.818 236.432C283.388 248.645 279.838 261.017 260.699 265.199C245.062 268.614 233.734 249.791 233.734 249.791Z" fill="#121620"/>
<path d="M223.989 248.636C224.553 258.195 217.857 264.76 209.033 263.301C200.209 261.842 192.599 252.911 192.035 243.352C191.471 233.794 198.167 227.229 206.991 228.689C215.815 230.148 223.425 239.079 223.989 248.636Z" fill="white"/>
<path d="M208.337 246.314C209.475 251.665 208.492 256.128 206.144 256.284C203.795 256.439 200.968 252.228 199.831 246.877C198.693 241.526 199.676 237.063 202.024 236.907C204.373 236.752 207.199 240.964 208.337 246.314Z" fill="#121620"/>
<path d="M189.748 244.265C199.88 245.46 219.998 244.128 223.341 242.301C220.871 232.61 208.887 221.653 197.999 223.059C188.185 224.326 189.748 244.265 189.748 244.265Z" fill="#121620"/>
<path d="M191.63 250.571C204.218 251.143 220.603 250.821 225.314 249.052C224.884 258.646 222.363 267.8 209.502 267.651C198.994 267.528 191.63 250.571 191.63 250.571Z" fill="#121620"/>
<path d="M264.088 206.982C245.203 206.982 232.646 197.664 232.03 197.198C230.056 195.701 229.669 192.892 231.166 190.919C232.661 188.954 235.467 188.565 237.439 190.049C237.656 190.208 252.573 201.072 273.278 197.153C275.713 196.696 278.06 198.289 278.521 200.719C278.982 203.15 277.383 205.494 274.95 205.956C271.145 206.677 267.511 206.982 264.088 206.982Z" fill="#121620"/>
<path d="M183.878 199.259C183.374 199.26 182.862 199.174 182.361 198.994C180.03 198.157 178.819 195.591 179.657 193.263C182.035 186.653 185.978 182.36 191.377 180.506C201.164 177.139 211.704 183.684 212.147 183.965C214.242 185.287 214.867 188.054 213.544 190.145C212.224 192.232 209.461 192.86 207.369 191.547C205.327 190.279 198.995 187.348 194.269 188.988C191.545 189.932 189.527 192.324 188.099 196.293C187.442 198.12 185.717 199.259 183.878 199.259Z" fill="#121620"/>
<path d="M219.231 274.846C219.107 274.846 218.982 274.829 218.857 274.792C218.151 274.586 217.739 273.86 217.936 273.151C217.97 273.029 218.813 270.128 222.498 268.229C227.644 265.578 235.486 266.126 245.807 269.859C246.505 270.111 246.867 270.883 246.614 271.58C246.361 272.279 245.589 272.642 244.891 272.387C233.056 268.105 226.913 269.03 223.842 270.562C221.162 271.898 220.549 273.807 220.524 273.888C220.346 274.467 219.81 274.846 219.231 274.846Z" fill="#121620"/>
<path d="M176.882 269.925C150.781 272.266 132.096 283.06 132.096 283.06C139.825 281.601 167.451 315.746 174.554 342.081C187.657 337.229 202.936 333.925 219.232 331.343C209.362 304.2 191.313 273.453 176.882 269.925Z" fill="#60CC80"/>
<path d="M174.554 342.081C171.589 331.088 165.05 318.738 157.873 308.182C156.075 305.536 154.233 302.999 152.401 300.629C148.581 295.688 144.791 291.455 141.446 288.377C151.49 284.412 166.146 280.033 173.178 279.193C171.503 277.645 170.838 276.231 170.839 274.994C170.843 272.275 174.075 270.421 176.882 269.925C191.313 273.453 209.362 304.2 219.232 331.343C215.828 331.882 212.467 332.454 209.162 333.063C206.588 333.538 204.049 334.036 201.548 334.562C191.882 336.593 182.788 339.031 174.554 342.081Z" fill="#7FE49D"/>
<path d="M176.882 269.925C159.802 267.999 132.07 282.282 132.07 282.282C127.157 285.411 128.491 291.281 131.172 293.757C133.744 290.072 162.405 280.48 173.178 279.193C167.817 274.24 172.798 270.648 176.882 269.925Z" fill="#60CC80"/>
<path d="M131.172 293.757C129.792 292.483 128.769 290.31 128.771 288.073C128.773 285.965 129.686 283.801 132.07 282.282C132.07 282.282 156.41 269.746 173.529 269.746C174.682 269.746 175.804 269.803 176.882 269.925C174.075 270.421 170.843 272.275 170.839 274.994C170.838 276.231 171.503 277.645 173.178 279.193C166.146 280.033 151.49 284.412 141.446 288.377C136.103 290.486 132.065 292.478 131.172 293.757Z" fill="#60CC80"/>
<path d="M151.656 311.535C150.19 311.535 148.755 310.819 147.895 309.503C144.642 304.525 146.674 296.928 147.114 295.456C147.823 293.085 150.321 291.739 152.696 292.447C155.067 293.154 156.416 295.645 155.712 298.013C154.979 300.52 154.831 303.723 155.408 304.607C156.762 306.678 156.177 309.454 154.103 310.807C153.346 311.3 152.496 311.535 151.656 311.535Z" fill="#121620"/>
</svg>
