<svg width="32" height="30" viewBox="0 0 32 30" fill="none" xmlns="http://www.w3.org/2000/svg">
<path d="M7.58923 16.5992L8.40969 10.2179L1.11673 5.11282L7.77155 7.39187L9.32131 4.9305L15.0645 1.37518L27.8272 8.39465L28.4653 19.0606L22.8133 26.9005L18.3463 27.6298L20.6254 23.3452V19.2429L18.9845 16.0523L17.2524 14.9583L14.6087 17.6932V20.6104L12.512 22.5248L10.0506 22.7982L8.8655 23.4364L6.9511 22.7982L6.2218 20.0634L7.68039 18.0578V16.5992H7.58923Z" fill="white"/>
<path d="M19.3491 5.02162C17.9817 4.74813 16.4319 4.83929 16.4319 4.83929C16.4319 4.83929 15.885 7.11834 12.7855 7.75648C12.7855 7.75648 16.8878 9.21507 19.3491 5.02162Z" fill="#94A6C3"/>
<path d="M20.5342 26.0801C22.1752 24.8038 23.4514 22.9806 24.0896 20.8838C24.0896 20.7927 24.363 20.7015 24.5454 20.6103C24.8189 20.428 25.0923 20.3369 25.0923 20.0634C25.1835 19.4252 25.2747 18.7871 25.2747 18.149C25.2747 17.8755 25.0012 17.6932 24.8189 17.4197C24.6365 17.2374 24.4542 17.055 24.4542 16.9639C24.1807 14.5937 23.0868 12.3146 21.3547 10.6737L21.0812 10.9472C22.8133 12.5881 23.9072 14.776 24.1807 17.055C24.1807 17.2374 24.4542 17.5108 24.6365 17.6932C24.8189 17.8755 25.0012 18.0578 25.0012 18.2401C25.0012 18.8783 24.91 19.4252 24.8189 20.0634C24.8189 20.1545 24.5454 20.2457 24.363 20.3369C24.0896 20.428 23.8161 20.6103 23.8161 20.7927C23.1779 23.0717 21.7193 24.9861 19.8049 26.2624C20.1696 25.5331 21.2635 23.1629 21.8105 21.8866L21.7193 17.9666L18.3464 14.6848L16.432 14.9583L14.3352 18.3313C14.3352 18.3313 15.338 19.6076 13.9706 20.975C12.6031 22.4336 11.6004 22.7071 11.6004 22.7071L10.5976 22.1601C10.8711 21.7954 11.5092 21.2485 11.8739 20.8838C12.6031 20.2457 13.4236 20.1545 13.4236 19.5164C13.4236 18.0578 11.965 18.5136 11.965 18.5136L11.418 19.1518L11.1446 21.0662L9.95945 22.5247H9.86829L7.95389 22.0689C7.95389 22.0689 9.13899 21.4308 9.32132 20.7927C9.50364 20.1545 8.95667 17.9666 8.95667 17.7843C8.95667 17.7843 9.50364 18.2401 9.77713 18.9694C10.2329 17.7843 10.7799 16.6904 10.8711 16.5992C11.0534 16.5081 13.1501 15.3229 13.1501 15.3229L12.4208 17.3285L12.9678 17.055L14.2441 13.9555C14.2441 13.9555 15.5203 13.3174 16.432 13.3174C18.0729 13.3174 20.5342 11.2207 19.4403 7.66534C19.7138 7.75651 25.2747 10.5825 26.1863 15.9611C26.9156 19.9722 24.5454 23.8922 20.5342 26.0801Z" fill="#94A6C3"/>
<path d="M14.3352 5.65975C14.9734 4.93045 14.6999 3.92767 14.6999 3.92767L12.9678 6.57137C12.8766 6.48021 13.5148 6.48021 14.3352 5.65975Z" fill="#1B314F"/>
<path d="M8.40969 19.881L8.59201 18.787C8.59201 18.787 7.68039 20.3368 7.68039 20.5191C7.58923 20.7926 7.77155 21.1573 8.04504 21.1573C8.40969 21.1573 8.77434 20.6103 8.77434 20.2456C8.77434 19.881 8.40969 19.881 8.40969 19.881Z" fill="#1B314F"/>
<path d="M23.9984 3.10722C23.9984 3.10722 25.2747 3.19838 26.6421 3.28955C23.5426 0.828172 20.6254 0.190039 18.2552 0.190039C14.9734 0.190039 12.7855 1.55747 12.6031 1.64863L13.7882 0.00771484C13.7882 0.00771484 9.68596 -0.356933 8.22737 3.92768C7.86272 3.01606 7.49807 1.64863 7.49807 1.64863C7.49807 1.64863 5.31018 3.56303 6.31297 6.66254C3.85159 5.75092 0.387438 4.56581 0.296276 4.47465C0.113952 4.47465 0.0227905 4.56581 0.0227905 4.56581C0.0227905 4.56581 -0.0683715 4.65697 0.113952 4.74814C0.387438 5.02162 5.94832 9.12391 7.13342 9.85321C6.85994 10.7648 6.85994 11.2206 7.13342 11.6764C7.49807 12.3146 7.49807 12.5881 7.49807 13.0439C7.40691 13.4997 6.9511 17.3285 6.85994 17.8755C6.76878 18.4224 5.67483 20.0633 5.67483 20.5192C5.76599 21.0661 6.40413 23.1629 7.04226 23.4363C7.49807 23.6187 8.59201 23.9833 9.32131 23.9833C9.5948 23.9833 9.86828 23.8921 9.95944 23.801C10.4153 23.4363 10.5064 23.3452 10.8711 23.3452H10.9622C11.0534 23.3452 11.2357 23.3452 11.418 23.3452C11.8738 23.3452 12.4208 23.254 12.7855 22.8894C13.3324 22.3424 14.3352 21.5219 14.6999 21.1573C15.0645 20.6103 15.338 19.9722 15.2468 19.2429C15.1557 18.6048 15.5203 18.0578 15.885 17.5108C16.4319 16.8727 17.3436 15.6876 17.3436 15.6876C19.1668 17.055 20.2607 19.1517 20.2607 21.4308C20.2607 25.5331 16.7054 28.9061 12.2385 28.9061C11.5092 28.9061 10.8711 28.8149 10.2329 28.6326C12.2385 29.3619 13.9706 29.5442 15.338 29.5442C18.3463 29.5442 19.8961 28.4502 19.8961 28.4502C19.8961 28.4502 19.3491 29.1795 18.4375 30C23.3603 29.2707 25.7305 25.2596 25.7305 25.2596C25.7305 25.2596 25.5481 26.5358 25.2747 27.4475C31.8383 22.5247 30.7444 16.3257 30.6532 16.1434C30.7444 16.2345 31.3825 17.055 31.7472 17.4196C32.9323 6.66254 23.9984 3.10722 23.9984 3.10722ZM13.9706 20.5192C13.8794 20.6103 13.4236 21.0661 13.059 21.3396C12.6943 21.6131 12.4208 21.8866 12.1473 22.1601C12.0562 22.2512 11.8738 22.3424 11.5092 22.3424C11.418 22.3424 11.3269 22.3424 11.2357 22.3424C11.1445 22.3424 11.1445 22.3424 11.0534 22.3424C10.9622 22.3424 10.9622 22.3424 10.9622 22.3424C10.8711 22.3424 10.7799 22.3424 10.6887 22.3424C11.0534 21.7954 12.2385 20.6103 12.6031 20.3368C13.059 20.0633 13.3324 19.6987 13.059 19.1517C12.7855 18.6048 11.965 18.6959 11.965 18.6959C11.965 18.6959 12.4208 18.5136 12.7855 18.5136C12.2385 18.4224 11.6915 18.5136 11.3269 18.7871C11.0534 19.0606 11.0534 20.0633 10.9622 20.7926C10.8711 21.5219 10.4153 21.7954 9.68596 22.4336C9.32131 22.7982 9.04782 22.8894 8.8655 22.8894C8.40969 22.7982 7.86272 22.707 7.49807 22.5247C7.22459 22.1601 6.85994 21.0661 6.76878 20.6103C6.85994 20.3368 7.13342 19.7899 7.31575 19.5164C7.58923 18.8782 7.86272 18.6048 7.86272 18.2401C7.95388 17.7843 8.31853 15.0494 8.40969 13.8643C8.77434 14.3201 9.23015 15.0494 9.13899 15.5052C9.86828 14.4113 9.32131 13.4085 9.04782 12.9527C8.77434 12.4969 8.50085 11.6764 8.77434 10.7648C9.04782 9.85321 9.95944 7.39183 9.95944 7.39183C9.95944 7.39183 10.2329 7.93881 10.6887 7.84764C11.1445 7.75648 14.791 2.28676 14.791 2.28676C14.791 2.28676 15.7938 4.38349 14.6999 5.93324C13.6059 7.483 12.6031 7.75648 12.6031 7.75648C12.6031 7.75648 14.0617 8.02997 15.4292 7.02719C15.9761 8.30345 16.5231 9.67088 16.5231 9.85321C16.4319 10.0355 15.4292 12.5881 15.2468 12.7704C15.1557 12.8616 14.791 12.9527 14.5175 12.9527C14.0617 13.0439 13.7882 13.135 13.6971 13.2262C13.5148 13.4085 12.6943 15.6876 12.2385 16.8727C11.7827 16.9638 11.3269 17.2373 10.9622 17.7843C11.1445 17.6931 11.6915 17.602 12.1473 17.5108C12.512 17.5108 13.6059 18.0578 13.9706 19.2429C13.9706 19.2429 13.9706 19.2429 13.9706 19.3341C14.2441 19.7899 14.1529 20.1545 13.9706 20.5192ZM11.418 20.7926C11.6915 20.428 11.6004 19.881 11.6915 19.6987C11.6915 19.5164 11.7827 19.1517 11.965 19.1517C12.1473 19.0606 12.6943 19.1517 12.6943 19.5164C12.6943 19.881 12.3297 19.9722 12.0562 20.1545C11.8738 20.3368 11.5092 20.7015 11.418 20.7926ZM21.9928 15.7787C22.2663 14.4113 22.2663 13.3174 22.1751 12.3146C23.1779 13.682 23.8161 15.3229 23.9984 17.055C23.9984 17.2373 24.2719 17.5108 24.4542 17.6931C24.6365 17.8755 24.8188 18.0578 24.8188 18.2401C24.8188 18.8782 24.7277 19.4252 24.6365 20.0633C24.6365 20.1545 24.363 20.2457 24.1807 20.3368C23.9072 20.428 23.6337 20.6103 23.6337 20.7926C23.0868 22.7982 21.8105 24.6214 20.1696 25.8977C22.7221 23.3452 23.9072 19.1517 21.9928 15.7787ZM20.3519 26.08C22.084 24.8038 23.3603 22.8894 23.9984 20.7926C23.9984 20.7015 24.2719 20.6103 24.4542 20.5192C24.7277 20.428 25.0012 20.2457 25.0012 19.9722C25.0923 19.3341 25.1835 18.6959 25.1835 18.0578C25.1835 17.7843 24.91 17.602 24.7277 17.3285C24.6365 17.1462 24.363 16.9638 24.363 16.8727C24.1807 14.9583 23.3603 13.135 22.1751 11.5853C21.6282 8.39462 19.5314 7.483 19.5314 7.39183C19.6226 7.483 20.99 9.48856 19.9873 11.7676C18.9845 14.1378 16.5231 13.7732 16.3408 13.7732C16.1585 13.7732 15.338 14.8671 14.2441 16.7815C14.1529 16.6904 13.5148 16.5992 12.9678 16.6904C13.4236 15.4141 14.1529 13.4997 14.2441 13.3174C14.3352 13.2262 14.6999 13.135 14.9734 13.0439C15.5203 12.9527 15.7026 12.8616 15.7938 12.7704C15.885 12.6792 16.0673 12.0411 16.3408 11.4941C16.6143 11.4941 17.1612 11.403 17.2524 11.403C17.3436 11.3118 17.7994 10.0355 17.7994 9.94437C17.7994 9.85321 16.7966 7.30067 16.3408 6.29789C16.5231 6.11557 16.7054 5.84208 16.8878 5.56859C22.2663 6.11557 26.5509 10.7648 26.5509 16.3257C26.4598 20.7015 23.9984 24.348 20.3519 26.08Z" fill="#1B314F"/>
<path d="M13.3324 11.8588C13.8794 11.3118 13.6059 10.2179 12.6031 10.0356C12.8766 9.4886 13.1501 8.39465 13.1501 8.39465C13.1501 8.39465 10.5064 12.5881 10.2329 12.6793C10.0506 12.7704 9.77712 11.8588 9.77712 11.8588C9.23015 13.7732 10.5976 14.0467 10.7799 13.4086C11.5092 13.2262 12.7855 12.4058 13.3324 11.8588Z" fill="#1B314F"/>
<path d="M11.0534 12.9527L12.4208 10.5825C12.4208 10.5825 13.2413 10.9472 12.7855 11.5853C12.2385 12.3146 11.0534 12.9527 11.0534 12.9527Z" fill="#FFD923"/>
<path d="M27.9184 23.801C27.5537 24.348 27.0979 24.895 26.5509 25.4419C29.9239 18.8783 26.7333 12.9527 26.5509 12.6793C26.8244 12.9527 27.0067 13.2262 27.2802 13.4086C29.9239 16.2346 30.1974 20.6104 27.9184 23.801Z" fill="#D82122"/>
<path d="M31.109 15.4141C29.9239 12.2235 28.1918 9.48861 24.5454 7.02723C20.9901 4.65702 17.0701 4.83935 16.8878 4.83935H16.7966C16.8878 4.74818 17.0701 4.74818 17.1612 4.74818C17.9817 4.4747 19.0756 4.29237 20.0784 4.11005C22.9045 3.7454 25.7305 4.65702 27.6449 6.66259C27.6449 6.66259 27.6449 6.66259 27.736 6.75375C29.9239 9.12396 31.109 11.95 31.109 15.4141Z" fill="#D82122"/>
<path d="M23.7249 2.28678C19.8049 1.55748 17.2524 1.92213 15.4292 2.56026C15.338 2.37794 15.1557 1.92213 15.0645 1.55748C14.5175 2.19562 13.9706 3.01607 13.6059 3.47188C12.6031 4.20118 12.1473 4.83931 12.1473 4.83931C12.6943 2.83375 14.4264 1.37516 16.432 1.01051C16.9789 0.919348 17.6171 0.828186 18.3464 0.828186C20.1696 1.01051 21.9928 1.46632 23.7249 2.28678Z" fill="#D82122"/>
<path d="M9.13898 7.39183C6.03947 7.30067 7.13342 3.65419 7.13342 3.47186C7.13342 3.47186 7.4069 6.29788 9.13898 7.39183Z" fill="#D82122"/>
<path d="M12.2385 0.919373C9.86829 2.37796 10.3241 5.75096 10.3241 5.75096C8.04506 2.2868 12.0562 1.01053 12.2385 0.919373Z" fill="#D82122"/>
<path d="M8.31852 8.30348C8.50085 8.39464 8.59201 8.66812 8.40968 9.03277C8.31852 9.2151 8.1362 9.2151 7.86271 9.12393C7.58923 8.94161 5.67483 7.84767 3.94275 6.75372C5.94831 7.39186 7.95388 8.12115 8.31852 8.30348C8.22736 8.30348 8.22736 8.30348 8.31852 8.30348Z" fill="white"/>
</svg>
