<svg width="31" height="30" viewBox="0 0 31 30" fill="none" xmlns="http://www.w3.org/2000/svg">
<mask id="mask0_301_4722" style="mask-type:alpha" maskUnits="userSpaceOnUse" x="0" y="0" width="31" height="30">
<path d="M30.6667 0H0.666748V30H30.6667V0Z" fill="white"/>
</mask>
<g mask="url(#mask0_301_4722)">
<path d="M15.6667 29.55C23.7024 29.55 30.2167 23.0358 30.2167 15C30.2167 6.96427 23.7024 0.450012 15.6667 0.450012C7.63096 0.450012 1.1167 6.96427 1.1167 15C1.1167 23.0358 7.63096 29.55 15.6667 29.55Z" fill="url(#paint0_linear_301_4722)"/>
<path d="M22.0343 20.7975L17.1143 8.90249C16.8368 8.28749 16.4243 7.98749 15.8805 7.98749H15.4455C14.9018 7.98749 14.4893 8.28749 14.2118 8.90249L12.0705 14.085H10.4505C9.9668 14.0887 9.57305 14.4787 9.5693 14.9662V14.9775C9.57305 15.4612 9.9668 15.855 10.4505 15.8587H11.3205L9.2768 20.7975C9.2393 20.9062 9.2168 21.0187 9.2168 21.135C9.2168 21.4125 9.30305 21.63 9.4568 21.7987C9.61055 21.9675 9.8318 22.05 10.1093 22.05C10.293 22.0462 10.4693 21.99 10.6155 21.8812C10.773 21.7725 10.8818 21.615 10.968 21.435L13.218 15.855H14.778C15.2618 15.8512 15.6555 15.4612 15.6593 14.9737V14.9512C15.6555 14.4675 15.2618 14.0737 14.778 14.07H13.9455L15.663 9.79124L20.343 21.4312C20.4293 21.6112 20.538 21.7687 20.6955 21.8775C20.8418 21.9862 21.0218 22.0425 21.2018 22.0462C21.4793 22.0462 21.6968 21.9637 21.8543 21.795C22.0118 21.6262 22.0943 21.4087 22.0943 21.1312C22.098 21.0187 22.0793 20.9025 22.0343 20.7975Z" fill="white"/>
</g>
<defs>
<linearGradient id="paint0_linear_301_4722" x1="26.515" y1="5.872" x2="4.86457" y2="24.0886" gradientUnits="userSpaceOnUse">
<stop stop-color="#B6509E"/>
<stop offset="1" stop-color="#2EBAC6"/>
</linearGradient>
</defs>
</svg>
