<svg width="42" height="43" viewBox="0 0 42 43" fill="none" xmlns="http://www.w3.org/2000/svg">
<path d="M41.3824 26.585C38.6144 37.7514 27.1649 44.652 15.967 41.8918C4.64335 39.0061 -2.15086 27.5887 0.617154 16.4222C3.38517 5.13032 14.8347 -1.64482 26.1583 1.11542C37.3562 3.87567 44.1504 15.293 41.3824 26.585Z" fill="#F7931A"/>
<path d="M30.3104 18.4299C30.6878 15.6697 28.5489 14.1641 25.6551 13.1604L26.6616 9.39641L24.3969 8.76908L23.5161 12.4076C22.887 12.2821 22.258 12.1567 21.6289 12.0312L22.5096 8.26722L20.2449 7.63989L19.2383 11.4039C18.735 11.2784 18.2318 11.1529 17.7285 11.0275L14.583 10.2747L13.9539 12.784C13.9539 12.784 15.7154 13.1604 15.5896 13.1604C16.4703 13.4113 16.7219 14.0386 16.7219 14.5405L15.5896 18.8063C15.7154 18.8063 15.7154 18.8063 15.8412 18.9318C15.7154 18.9318 15.7154 18.9318 15.5896 18.9318L14.0797 24.9542C13.9539 25.2051 13.7023 25.7069 13.0732 25.456L11.4375 25.0796L10.3052 27.7144L13.3248 28.4672C13.8281 28.5927 14.4572 28.7181 14.9605 28.8436L13.9539 32.6076L16.2187 33.2349L17.2252 29.4709C17.8543 29.5964 18.4834 29.8473 19.1125 29.9728L18.2318 33.7368L20.4965 34.3641L21.503 30.6001C25.4034 31.3529 28.4231 31.102 29.6813 27.4635C30.6878 24.5778 29.6813 22.9467 27.5423 21.943C28.8005 21.4411 29.9329 20.5629 30.3104 18.4299ZM25.026 25.8324C24.2711 28.7181 19.4899 27.0871 17.9801 26.7107L19.2383 21.692C20.7481 22.0684 25.7809 22.8212 25.026 25.8324ZM25.7809 18.4299C25.1518 21.0647 21.1256 19.6846 19.8674 19.4337L20.9998 14.7914C22.258 15.1678 26.41 15.6697 25.7809 18.4299Z" fill="#FEFEFE"/>
</svg>
