<svg width="33" height="30" viewBox="0 0 33 30" fill="none" xmlns="http://www.w3.org/2000/svg">
<path d="M15.8904 0.0911575C16.6333 -0.28027 17.469 0.555442 17.0975 1.2983C16.9118 1.85544 16.0761 2.04115 15.6118 1.57687C15.1475 1.20544 15.3333 0.369728 15.8904 0.0911575ZM8.27614 0.92687C8.74042 0.741156 9.29757 1.11258 9.20471 1.57687C9.20471 2.04115 8.64757 2.50544 8.18328 2.22687C7.53328 2.04115 7.62614 1.11258 8.27614 0.92687ZM23.8761 2.31972C23.1332 2.22687 23.0404 1.11258 23.6904 0.92687C24.1547 0.648299 24.619 1.11258 24.7118 1.57687C24.619 2.04115 24.3404 2.41258 23.8761 2.31972ZM9.94756 4.17686C10.6904 3.71258 11.7118 4.36257 11.619 5.19829C11.619 6.034 10.5047 6.49828 9.85471 5.94114C9.20471 5.56971 9.29757 4.54829 9.94756 4.17686ZM20.9975 4.64115C21.2761 3.80543 22.5761 3.80543 22.9475 4.54829C23.319 5.19829 22.8547 5.94114 22.2047 6.12686C21.369 6.40543 20.5333 5.47686 20.9975 4.64115ZM14.9618 6.21971C14.9618 5.47686 15.6118 5.01257 16.2618 4.91972C16.7261 5.01257 17.1904 5.19829 17.3761 5.66257C17.7475 6.31257 17.3761 7.14828 16.7261 7.42685C16.4475 7.61257 16.0761 7.51971 15.7975 7.51971C15.3333 7.24114 14.869 6.77685 14.9618 6.21971ZM3.63329 7.24114C4.28329 6.77685 5.11901 7.51971 4.93329 8.26256C4.84043 8.91256 4.00472 9.09828 3.44758 8.72685C2.9833 8.35542 3.07615 7.51971 3.63329 7.24114ZM27.9618 7.24114C28.5189 6.77685 29.4475 7.33399 29.3547 7.98399C29.3547 8.63399 28.6118 9.09828 28.0547 8.81971C27.4047 8.54113 27.4047 7.61257 27.9618 7.24114ZM18.119 8.54113C19.0475 8.16971 20.1618 8.63399 20.6261 9.4697C21.2761 10.4911 20.9047 11.9768 19.8833 12.534C18.769 13.184 17.1904 12.6268 16.7261 11.3268C16.2618 10.2126 17.0047 8.81971 18.119 8.54113ZM12.7333 8.63399C13.7547 8.16971 15.1475 8.54113 15.6118 9.56256C16.169 10.584 15.7047 11.9768 14.6833 12.534C13.6618 13.0911 12.1761 12.7197 11.7118 11.6054C11.1547 10.4911 11.619 9.09828 12.7333 8.63399ZM7.34757 10.4911C7.44043 9.84113 8.09043 9.37685 8.64757 9.37685C9.29757 9.4697 9.85471 10.0268 9.94756 10.6768C9.94756 11.3268 9.39042 11.9768 8.64757 11.9768C7.90471 11.9768 7.16186 11.234 7.34757 10.4911ZM23.319 9.4697C24.1547 9.00542 25.269 9.65542 25.1761 10.584C25.269 11.6054 23.969 12.2554 23.2261 11.6983C22.3904 11.234 22.3904 9.84113 23.319 9.4697ZM10.5047 12.9054C11.4333 12.6268 12.5476 13.0911 13.0118 13.9268C13.4761 14.7625 13.2904 15.9697 12.5476 16.6197C11.5261 17.5483 9.66899 17.1768 9.11185 15.8768C8.46185 14.8554 9.29757 13.2768 10.5047 12.9054ZM20.8118 12.9054C21.7404 12.6268 22.8547 12.9983 23.319 13.834C23.969 14.7625 23.6904 16.2483 22.669 16.8054C21.6475 17.5483 20.069 17.1768 19.5118 16.0625C18.769 14.9483 19.5118 13.2768 20.8118 12.9054ZM4.46901 14.0197C5.30472 13.7411 6.23329 14.5768 5.86186 15.4125C5.67615 16.1554 4.65472 16.434 4.09758 15.8768C3.44758 15.4125 3.6333 14.2054 4.46901 14.0197ZM26.5689 15.2268C26.5689 14.5768 27.0332 13.9268 27.7761 13.9268C28.3332 14.0197 28.8904 14.484 28.7975 15.0411C28.8904 15.8768 27.8689 16.434 27.2189 15.9697C26.8475 15.8768 26.7547 15.5054 26.5689 15.2268ZM0.47616 14.3911C0.940445 14.2054 1.59044 14.5768 1.49759 15.134C1.49759 15.784 0.569017 15.9697 0.197589 15.5054C-0.173838 15.134 0.0118755 14.5768 0.47616 14.3911ZM31.3975 14.3911C31.7689 14.1125 32.3261 14.2983 32.4189 14.7625C32.6975 15.2268 32.2332 15.784 31.7689 15.6911C31.0261 15.784 30.8404 14.6697 31.3975 14.3911ZM13.1976 17.3625C14.4976 16.9911 15.8904 18.1054 15.8904 19.4054C15.9833 20.7054 14.5904 21.9125 13.2904 21.634C12.269 21.4482 11.4333 20.5197 11.5261 19.4054C11.5261 18.4768 12.269 17.5483 13.1976 17.3625ZM18.3047 17.3625C19.6047 16.9911 21.0904 18.1054 20.9975 19.4982C21.0904 20.7982 19.6975 22.0054 18.4904 21.7268C17.2833 21.5411 16.3547 20.2411 16.7261 19.034C16.9118 18.1983 17.5618 17.5483 18.3047 17.3625ZM8.46185 18.1983C9.39042 18.0125 10.2261 19.034 9.85471 19.9625C9.57614 20.8911 8.27614 21.1697 7.62614 20.334C6.97614 19.5911 7.44043 18.2911 8.46185 18.1983ZM23.5047 18.1983C24.3404 17.8268 25.269 18.5697 25.269 19.4054C25.269 20.334 24.0618 21.0768 23.319 20.5197C22.2975 20.0554 22.4832 18.5697 23.5047 18.1983ZM27.6832 22.4697C27.4047 21.9125 27.9618 21.0768 28.6118 21.1697C28.9832 21.1697 29.1689 21.4482 29.3547 21.634C29.3547 22.0054 29.4475 22.3768 29.1689 22.6554C28.7975 23.2125 27.8689 23.0268 27.6832 22.4697ZM3.63329 21.3554C4.19044 20.8911 5.11901 21.5411 4.93329 22.284C4.84043 22.934 4.09758 23.3054 3.54044 22.934C2.9833 22.5625 2.9833 21.634 3.63329 21.3554ZM15.7047 22.6554C16.5404 22.284 17.5618 23.0268 17.469 23.8625C17.5618 24.8839 16.2618 25.5339 15.519 24.8839C14.5904 24.4197 14.7761 22.934 15.7047 22.6554ZM10.1333 23.9554C10.7833 23.584 11.7118 24.234 11.7118 24.9768C11.7118 25.6268 11.1547 26.1839 10.5047 26.0911C9.94756 26.0911 9.66899 25.6268 9.48328 25.1625C9.39042 24.6982 9.66899 24.1411 10.1333 23.9554ZM21.4618 23.9554C22.2047 23.4911 23.1332 24.1411 23.1332 24.9768C23.1332 25.8125 22.019 26.3697 21.369 25.8125C20.719 25.3482 20.8118 24.3268 21.4618 23.9554ZM23.4118 28.8768C23.1332 28.4125 23.5047 27.8554 23.969 27.7625C24.3404 27.8554 24.8047 28.1339 24.7118 28.5982C24.7118 29.2482 23.7832 29.4339 23.4118 28.8768ZM7.81185 28.4125C7.90471 28.0411 8.18328 27.6697 8.64757 27.7625C9.29757 27.7625 9.48328 28.7839 8.92614 29.0625C8.369 29.4339 7.81185 28.9697 7.81185 28.4125ZM15.3333 28.8768C15.4261 28.3197 16.169 28.0411 16.6333 28.3197C16.9118 28.4125 17.0047 28.7839 17.0975 29.0625C17.0975 29.2482 17.0047 29.3411 17.0047 29.5268C16.819 29.7125 16.5404 29.9911 16.2618 29.9911C15.6118 30.0839 15.1476 29.4339 15.3333 28.8768Z" fill="#0232AE"/>
</svg>
