<svg width="26" height="43" viewBox="0 0 26 43" fill="none" xmlns="http://www.w3.org/2000/svg">
<path d="M0.183472 21.7115C1.16434 19.7498 2.51304 17.788 3.61652 15.8263C6.43653 11.0445 9.37915 6.26279 12.3218 1.48104C12.4444 1.23582 12.4444 0.990601 12.8122 0.990601C12.9348 0.990601 12.9348 0.990601 13.0574 0.990601C13.0574 6.01757 13.0574 10.9219 13.0574 15.9489L12.9348 16.0715C12.6896 16.0715 12.567 16.1941 12.3218 16.1941C9.62437 17.4202 6.92697 18.6463 4.10696 19.8724C2.75826 20.608 1.53217 21.3437 0.183472 21.7115Z" fill="#828384"/>
<path d="M13.0573 15.9489C13.0573 10.9219 13.0573 6.01755 13.0573 0.990579C13.1799 0.86797 13.1799 0.86797 13.3025 0.745361C15.9999 5.2819 18.8199 9.81843 21.5173 14.355C22.9886 16.8071 24.46 19.2593 25.9313 21.7115C25.8087 21.7115 25.686 21.7115 25.4408 21.7115C21.2721 19.7498 17.226 17.9106 13.0573 15.9489Z" fill="#2F3030"/>
<path d="M0.183432 21.7115C1.53213 21.3437 2.75822 20.608 4.10692 19.995C6.80432 18.7689 9.62433 17.5428 12.3217 16.3167C12.5669 16.1941 12.6896 16.1941 12.9348 16.1941C13.0574 16.6845 13.18 17.175 13.18 17.5428C13.18 21.4663 13.18 25.5124 13.18 29.4359C13.0574 29.4359 13.0574 29.5585 12.9348 29.5585C8.88867 27.1063 4.71997 24.7767 0.673868 22.3245C0.42865 22.2019 -0.184395 22.2019 0.183432 21.7115Z" fill="#353636"/>
<path d="M13.0574 29.4356C13.0574 25.5121 13.0574 21.466 13.0574 17.5425C13.0574 17.052 13.0574 16.5616 12.8122 16.1938L12.9348 16.0712C17.1035 17.9103 21.1496 19.872 25.3183 21.7112C25.4409 21.7112 25.5635 21.7112 25.8088 21.7112C26.054 21.9564 25.8087 22.079 25.6861 22.2016C21.5174 24.6538 17.4713 27.106 13.3026 29.4356C13.3026 29.4356 13.18 29.4356 13.0574 29.4356Z" fill="#131313"/>
<path d="M12.9346 32.1332C17.1033 29.681 21.272 27.2288 25.5634 24.7766C25.686 25.1444 25.4408 25.267 25.3181 25.5123C21.3947 31.0297 17.4712 36.5471 13.5477 42.0645C13.4251 42.1871 13.4251 42.6775 12.9346 42.4323C12.9346 38.9993 12.9346 35.5662 12.9346 32.1332Z" fill="#313232"/>
<path d="M12.9348 32.1332C12.9348 35.5662 12.9348 38.9993 12.9348 42.4323C11.2182 40.2253 9.62433 37.7732 7.9078 35.5662C5.33301 32.0105 2.88083 28.4549 0.42865 24.8992L0.551259 24.7766C3.00344 26.2479 5.45562 27.5966 7.9078 29.0679C9.50172 30.1714 11.2182 31.1523 12.9348 32.1332Z" fill="#828384"/>
<path d="M13.1801 0.745218C13.0575 0.867827 13.0575 0.867827 12.9349 0.990436C12.8123 0.990436 12.8123 0.990436 12.6897 0.990436C12.6897 0.867827 12.6897 0.622609 12.9349 0.5C13.1801 0.5 13.1801 0.622609 13.1801 0.745218Z" fill="#353636"/>
<path d="M0.306019 24.8991C0.306019 24.8991 0.18341 24.8991 0.306019 24.8991C0.306019 24.7765 0.428628 24.7765 0.306019 24.8991C0.428628 24.8991 0.428628 24.8991 0.306019 24.8991Z" fill="#828384"/>
<path d="M12.9346 29.5583C13.0572 29.5583 13.0572 29.4357 13.1799 29.4357C13.0572 29.5583 13.0572 29.6809 12.9346 29.5583Z" fill="#2F3030"/>
</svg>
