<svg width="42" height="27" viewBox="0 0 42 27" fill="none" xmlns="http://www.w3.org/2000/svg">
<path d="M26.7178 3.06909H15.3742V23.5504H26.7178V3.06909Z" fill="#FF5F00"/>
<path d="M16.0044 13.4672C16.0044 9.52847 17.895 5.7473 21.046 3.22652C15.3742 -1.18485 7.33926 -0.23955 2.77034 5.43221C-1.64102 11.104 -0.695729 19.139 4.97603 23.7079C9.70249 27.489 16.3195 27.489 21.046 23.7079C17.895 21.1871 16.0044 17.4059 16.0044 13.4672Z" fill="#EB001B"/>
<path d="M41.9999 13.4671C41.9999 20.5568 36.1706 26.3861 29.0809 26.3861C26.0875 26.3861 23.2516 25.4408 21.046 23.7078C26.7177 19.2964 27.663 11.1039 23.2516 5.58968C22.6214 4.80193 21.8337 4.01419 21.046 3.38399C26.7177 -1.02737 34.7527 -0.0820815 39.1641 5.58968C41.0547 7.63781 41.9999 10.4737 41.9999 13.4671ZM40.7396 21.3446V21.0295H40.8971V20.8719H40.582V21.0295H40.7396V21.3446ZM41.6849 21.3446V20.8719H41.5273L41.3698 21.187L41.2122 20.8719H41.0547V21.3446H41.2122V21.0295L41.3698 21.3446H41.5273L41.6849 21.0295V21.3446Z" fill="#F79E1B"/>
</svg>
