<svg width="30" height="31" viewBox="0 0 30 31" fill="none" xmlns="http://www.w3.org/2000/svg">
<path fill-rule="evenodd" clip-rule="evenodd" d="M15.5172 1.09998C23.5448 1.09998 30 7.63791 30 15.4172C30 23.4448 23.462 29.9 15.5172 29.9C7.65512 29.9827 1.19995 23.4448 1.19995 15.4172C1.19995 7.63791 7.65512 1.09998 15.5172 1.09998Z" fill="#53AE94"/>
<path fill-rule="evenodd" clip-rule="evenodd" d="M17.3379 13.5965V11.5276H22.2206V8.21722H8.97923V11.5276H13.7792V13.5965C9.88958 13.7621 6.74475 14.5069 6.74475 15.4172C6.74475 16.4931 9.88958 17.2379 13.7792 17.4862V24.3552H17.3379V17.4862C21.2275 17.3207 24.2068 16.5758 24.2068 15.4172C24.2896 14.5069 21.3103 13.7621 17.3379 13.5965ZM17.3379 16.9069C17.1723 16.9069 16.7585 16.9069 15.6827 16.9069C14.7723 16.9069 14.0275 16.9069 13.862 16.9069C10.3034 16.7414 7.73785 15.9965 7.73785 15.4172C7.73785 14.6724 10.3034 13.9276 13.862 13.7621V16.1621C14.0275 16.1621 14.7723 16.3276 15.6827 16.3276C16.7585 16.3276 17.1723 16.1621 17.3379 16.1621V13.7621C20.8965 13.9276 23.462 14.6724 23.462 15.4172C23.5448 15.9965 20.8965 16.7414 17.3379 16.9069Z" fill="#FEFEFE"/>
</svg>
