<svg width="30" height="31" viewBox="0 0 30 31" fill="none" xmlns="http://www.w3.org/2000/svg">
<path d="M15 30.5C23.3125 30.5 30 23.8125 30 15.5C30 7.18745 23.3125 0.5 15 0.5C6.68745 0.5 0 7.18745 0 15.5C0 23.8125 6.68745 30.5 15 30.5Z" fill="#2775CA"/>
<path d="M19.125 17.875C19.125 15.6875 17.8125 14.9375 15.1875 14.6251C13.3125 14.375 12.9375 13.8751 12.9375 13C12.9375 12.1249 13.5625 11.5626 14.8125 11.5626C15.9375 11.5626 16.5625 11.9376 16.875 12.8751C16.9375 13.0626 17.125 13.1875 17.3125 13.1875H18.3124C18.5624 13.1875 18.75 13 18.75 12.7501V12.6876C18.4999 11.3125 17.3749 10.25 15.9375 10.1251V8.6251C15.9375 8.37505 15.75 8.18755 15.4375 8.125H14.5C14.25 8.125 14.0625 8.3125 13.9999 8.6251V10.0626C12.1249 10.3126 10.9375 11.5625 10.9375 13.1251C10.9375 15.1876 12.1875 16 14.8125 16.3126C16.5625 16.6251 17.125 17.0001 17.125 18.0001C17.125 19.0002 16.2499 19.6876 15.0625 19.6876C13.4374 19.6876 12.8749 19 12.6874 18.0625C12.625 17.8126 12.4375 17.6875 12.25 17.6875H11.1874C10.9375 17.6875 10.75 17.875 10.75 18.1251V18.1876C10.9999 19.75 12 20.875 14.0625 21.1876V22.6876C14.0625 22.9375 14.25 23.125 14.5624 23.1876H15.4999C15.7499 23.1876 15.9375 23.0001 16 22.6876V21.1876C17.875 20.875 19.125 19.5625 19.125 17.875Z" fill="white"/>
<path d="M11.8125 24.4374C6.9375 22.6875 4.43745 17.25 6.25005 12.4374C7.18755 9.8124 9.25005 7.81245 11.8125 6.87495C12.0625 6.75 12.1875 6.5625 12.1875 6.2499V5.37495C12.1875 5.1249 12.0625 4.9374 11.8125 4.875C11.7499 4.875 11.625 4.875 11.5624 4.9374C5.625 6.8124 2.37495 13.125 4.24995 19.0624C5.37495 22.5624 8.0625 25.25 11.5624 26.375C11.8125 26.4999 12.0625 26.375 12.1249 26.1249C12.1875 26.0625 12.1875 26 12.1875 25.875V24.9999C12.1875 24.8124 12 24.5625 11.8125 24.4374ZM18.4375 4.9374C18.1875 4.81245 17.9374 4.9374 17.875 5.18745C17.8125 5.25 17.8125 5.3124 17.8125 5.4375V6.31245C17.8125 6.5625 18 6.8124 18.1875 6.9375C23.0625 8.6874 25.5625 14.1249 23.7499 18.9375C22.8124 21.5625 20.7499 23.5625 18.1875 24.5C17.9374 24.6249 17.8125 24.8124 17.8125 25.125V26C17.8125 26.25 17.9374 26.4375 18.1875 26.4999C18.25 26.4999 18.375 26.4999 18.4375 26.4375C24.375 24.5625 27.625 18.2499 25.75 12.3124C24.625 8.74995 21.8749 6.0624 18.4375 4.9374Z" fill="white"/>
</svg>
