<svg width="42" height="43" viewBox="0 0 42 43" fill="none" xmlns="http://www.w3.org/2000/svg">
<path fill-rule="evenodd" clip-rule="evenodd" d="M20.8793 0.49939C32.5862 0.49939 42 10.0339 42 21.3787C42 33.0856 32.4655 42.4994 20.8793 42.4994C9.41379 42.6201 0 33.0856 0 21.3787C0 10.0339 9.41379 0.49939 20.8793 0.49939Z" fill="#53AE94"/>
<path fill-rule="evenodd" clip-rule="evenodd" d="M23.5345 18.7235V15.7062H30.6551V10.8787H11.3448V15.7062H18.3448V18.7235C12.6724 18.9649 8.08618 20.0511 8.08618 21.3787C8.08618 22.9476 12.6724 24.0338 18.3448 24.3959V34.4131H23.5345V24.3959C29.2069 24.1545 33.5517 23.0683 33.5517 21.3787C33.6724 20.0511 29.3276 18.9649 23.5345 18.7235ZM23.5345 23.5511C23.2931 23.5511 22.6896 23.5511 21.1207 23.5511C19.7931 23.5511 18.7069 23.5511 18.4655 23.5511C13.2758 23.3097 9.53446 22.2235 9.53446 21.3787C9.53446 20.2925 13.2758 19.2062 18.4655 18.9649V22.4649C18.7069 22.4649 19.7931 22.7062 21.1207 22.7062C22.6896 22.7062 23.2931 22.4649 23.5345 22.4649V18.9649C28.7241 19.2062 32.4655 20.2925 32.4655 21.3787C32.5862 22.2235 28.7241 23.3097 23.5345 23.5511Z" fill="white"/>
</svg>
